<mxfile host="app.diagrams.net" modified="2024-02-26T15:05:51.069Z" agent="Mozilla/5.0 (Windows NT 10.0; Win64; x64; rv:109.0) Gecko/20100101 Firefox/115.0" etag="9ccDakvMsLLVX8voXQbc" version="22.1.17" type="github">
  <diagram name="Page-1" id="uRJsP_OcRQf1WKzeHa7Y">
    <mxGraphModel dx="3434" dy="1422" grid="1" gridSize="10" guides="1" tooltips="1" connect="1" arrows="1" fold="1" page="1" pageScale="1" pageWidth="827" pageHeight="1169" math="0" shadow="0">
      <root>
        <mxCell id="0" />
        <mxCell id="1" parent="0" />
        <mxCell id="35QQ6GFylacjN5FKlyGc-126" value="" style="rounded=0;whiteSpace=wrap;html=1;dashed=1;" vertex="1" parent="1">
          <mxGeometry x="1810" y="256" width="730" height="568" as="geometry" />
        </mxCell>
        <mxCell id="35QQ6GFylacjN5FKlyGc-89" value="" style="rounded=0;whiteSpace=wrap;html=1;dashed=1;" vertex="1" parent="1">
          <mxGeometry x="1010" y="250" width="730" height="568" as="geometry" />
        </mxCell>
        <mxCell id="35QQ6GFylacjN5FKlyGc-59" value="" style="rounded=0;whiteSpace=wrap;html=1;dashed=1;" vertex="1" parent="1">
          <mxGeometry y="160" width="480" height="720" as="geometry" />
        </mxCell>
        <mxCell id="35QQ6GFylacjN5FKlyGc-24" value="" style="rounded=0;whiteSpace=wrap;html=1;fillColor=#ffffff;strokeColor=#d79b00;dashed=1;fontStyle=1" vertex="1" parent="1">
          <mxGeometry x="45" y="1030" width="280" height="440" as="geometry" />
        </mxCell>
        <mxCell id="35QQ6GFylacjN5FKlyGc-25" value="Propositions" style="text;html=1;align=center;verticalAlign=middle;resizable=0;points=[];autosize=1;strokeColor=none;fillColor=none;fontStyle=1" vertex="1" parent="1">
          <mxGeometry x="40" y="1000" width="100" height="30" as="geometry" />
        </mxCell>
        <mxCell id="35QQ6GFylacjN5FKlyGc-26" value="" style="shape=image;verticalLabelPosition=bottom;labelBackgroundColor=default;verticalAlign=top;aspect=fixed;imageAspect=0;image=data:image/webp,UklGRgZYAABXRUJQVlA4TPlXAAAvj8sDAVegNJIkNXx89/LlKyb9SiNJUsPHdy9fvmLSrzSSJDV8fPfy5Ssm/fMfY4wiQlWVUrz3/P/tvdVa5ZyllDAzktq2bZjo/7PT2x4RE8CDojskGIvHCFVSgOHiKkLaSfK65/2/dbtpbau37hfWqbXWZZnsU+p92AaSkiQMBpcs20Cs0gs2QSoZAgS7BDaESKUdDCSexeC33kr7ifUy2+/PPMdIc7YxxpxIU8+zI/qPMGCSjMTATxy2bSNJNVz/HVypA8f75HCM6L/Ctm0bGujQKd+f8fEf//Ef//Ef//Ef//Ef//Ef//Ef//Ef//Ef//Ef//Ef//Ef//Ef//Ef//Ef//Ef//Ef//Ef//Ef//Ef//Ef//Ef//Ef//Ef//Ef//Ef//Ef//Ef//Ef//Ef//Ef//Ef//Ef//Ef//Ef//Ef//Ef//Ef//Ef//Ef//Ef//Ef//Ef//Ef//Ef//Ef//Ef//1f/+E//uO//+s//OdC9iqKrTuXL0Qh6aaWbnz5HGaqigGgJ1efot5/J1FK0lWlEku+vW9AVaidUMXUYPqXRgqV0FlYGiqy8IUqdAi1k6koUAfvMEnIUTq7CjGFnPJfTRX1pGqowOBSSZKTZCHurEkpMUj5WKE4qRpQ9RJJJOFXvKNKJQmFhjh9PFTUE6phgHdTKlmKZOmuEotQQyVSeWj1pOq2v8SYOSbKzNJZcRKJRCKZ6Sn0BOpTKLYukPRLi/umqrCTpi3sUik9gz/G0KyeOF32aSGK/aLkXR2Y6QnTbXpRSuiZlbKMoZ4wHaj9mVLsWyBunqia4YSpzqUg1PSLJofr9cRpwJ+TSO9i5hx26uCkaZhnESLqF1FiWgVOkAY12GZhkl4q7+oJUqxWfTPm3E/ig3qitFY7RZF7aovDE6RTB/g0c+kpwk9OlJq9HqWnWWL57KToetXmslDsaYiLJ0nN7lMsuaehZNo9QWp6NWdK0lMxPTo5iuol6a+iyBoMdlL0c4r6/DgP1fSEqG3kJL0VlxJ3cWKUq5J7bJmaX01PiAZ9k/sMSfhccVJUp0ufQ2zysuKkaJiL3OMdKS8M9YQoWyw9FpFE2jspGjeFo/Ra+elJ0XArk/RbtGN2MpS3uPf8FydEeS31Pci3J0XD2Zh7TlqrJ0NH56XvovWTouEcx9xvePmEKHqOUs+tLJwQ3bjAvQ+L04NP6JbefvvmzTtffvUvAxRqUH0VVTu+43N091k68pAjBwlceOnG7a+eQ+uro6YAoCcJkN6r/N5BJBWREBppIuUbt/9uaqgGKOox3XssRJj6vqbEJRgxsZTSBBaRhiS/ffsXQO0Yr14bSYREhJOIUAillMI3vhwqDPWkARKPNjDJK2IRkdKQBBZOi7f/hWO78rEg6b+mCMFL8korEoJwk4RCaRZuPzc7nrs8F6X3n2y/d2qRLK+KJIkQySsqeeGLFycLQt81XWze0vL3BlOYwk52I8I39mBqqBie7IYTL31vQ0BPfJtQyR/vVxhenPAmiTBf362oJ70tsCTJi98pjtPiUn1EWEIuX5wEp3AiSh/riVJGL36sClPUk95Qkz/eVwWOxd5uiUzy1wpTO+FNzNIQfQyYnvAOLClIih+b6XHYWy2ZqHDM8p3CTnaTOFHTEPN3J75D4RipsCztngy1Aiv52vNqNi1O2195av+kGRTTmqopoFMA24jFUU/1hBmSmB7aAJgKzzZDEjfx7okzOOayOy1C3RDyIz61E2ZwYsnLzxVTQbopntrD7+m3ZEeKTA+nhOlmjn7kpyfNoMRMiZ/aNLjANh2z8C7qCTMTEclx7cV0WJ86bim7erKk7jF6CFMANuFxrcsufk9r08jCPgCgTvh64yQg+WNYxUCnqO3BTqZB5alBdZIHd5MTaya8ijrh/752ko2SwlPFRN8zmTodTUMoy1anqZW9WQAN9Z7md6llKjuTfc1k6lO9Jy2Y/g6tRWR5wh9mMfXFRkLP37UpMYXEXSgwsU8zmfp033+Sl3+vIqtqmOBvFlOf5b5T7sJ+n0Lx6SQPM5n6LUk9/8Qff6/C9Fmdqdd6q/eBdjAd1CgX3puSNjOo76fehz2dDodCQpQHNsEvs5i6XmDqNws6JXIhOcvii5l6rWdLECqhnzBHWYNNj7rQdhQ2M6+Bq6GEhrifNJTlpU2J3AmtTu48k6nxj8hJJPXUKDb79nvWaE+noc0OapyJzNRTRGhtgClSN9qDiT2zmVo3csOxpyGmvDuETofYyvIsvTbVeabSU5jXDTYlDqU0ebfOzmvF482YuPQ0pKcYTotcCtMDTGrNYmoD7B3uq+V1QH/XBkqLkzrMZGoAeHyKRKjEvkF5eX9YMS3UisSnqrPyGgAG9+aEm5D7BYe0tFcVU0OlSJRvDWqz8RoAVL++GDmVftHw9T2zweD3LYV52epkPs5iagCA6eCTyyn0a2588UKnStPrE3cxkauZTQ2FakWPZKiAqUKnSCwlSsoPbTKfZzW1wmBARb9U1RT6OxdhjquDiZxnNjVMFdX6NgBUMfx9S0gxl/3JzKymVtWe3dQAKMxgv3OtcJa4Y1PPjjz1CzuZVPps+tlJOegaJvE6WtZv6yaZ8d5xX/22boKR5clJ8ZruTuRwErEWvqYnxOtCz06G10T55cnVOrnBQpKkELf9/VFhdjK1JjeSlMQSSttLVs2gJ3zrICQltX6hMjSduJw0q1lEiCW0/JjintUTqrWQFLcviVAjQm2eCjVPgBOqNYss3HTS5belpEDcpmXJ+RuduJycqjkuwkcK3frbnZuNSGn1zKsT+HJSqi5uGAww2OCTy7E9SFIumLg6OVWLLMJbX78TGyEhEgltnPbshGrdAorH9vVlylI45kT+NDsTN5yYqv1RAKj6ISVKkduw8h9M3HdSqm4BQzU1fHoqszTUgslnNmk5uVYrAFPD/YsUAqcW6uuTd59Uqw2GCsCG2xdTIy1YXoCdDK4NUKhBFVsXgrSgnPdPCNeogAGAAZtzwv5EeTpp52RV3Z4+lZK4BGejnYkbTlTVrckev8tZcvaF4qNJG05W1S1q+2JshJxDuotJqxNVdWtSrRsx+p/XJ204EVcbzOZFinMdrk81O6mFGvQek/OXqdSTx7VBYWea7BwKPz+JXJth09uo0O7J4xoAgDOFKWVHpDzpAgobDQWgB6M2pWoFVKEGADBAX8UAQAGg9hiDKQwK2OEooLNL1LBCMefgR5Twsn1qhQIAoLUe+lGYoqLCgAroFKqrAVADFADUftP/JsEAGKA9pQJqaoCiAhVAPdwMamo6nD2awuZyDMnT6D/dCBUKAwBAD8AAqBpQYTAANoXqCihQDQAUBlQAqAAqFGqo0N7+YABMTbVCD9sKaEU1ABWAzSKDqb4ZE7semm860igAoP7jb3du3nz7Vd24efvOV8+h1aBQKFCnUa0GUwCm//jqzs2bl99+VTdv3vnqXzC135Q9fVoBA2CA6d8+uXPz8tuv6sbN21/+/QWgZoCZdubtErNNLsX1yWr72G/6wVcfvJ2CNFIkiIgk5tzw27e/HKqZqXXlPoFqU+g/Prn5NhFzCiQixEUaYlq6+eUvaora2zGoAbDB3+5cTiIkRYRJKMfCJOXG7a+GVlHRnbdKYKqnY3ScKLTeAbQCg7/cbKgIkYiQNEIkkoWpcErlxpdDBVA7ESdOXath+87l1EgISZhEJAQRCSxCHDJdv7OH/taohsf42wcXJJDEIEGCiFASYhFiIW5ufjnsUl6mDHstFnKN1zsR/vHBHKdEQkUkiFCQV5SkSArCTVy4/RxD7cZh0tTA3y4nJg6SmsDShMAlUeAiIkmESsh04/sh+qvtTy5SYBERSXKQGhFJIlQ4Lt3+V3c+u3QAupnJcWXJCx2wrQ9OlSTCIoVFkvxWRCLCIiLSpOb2L91g4tSfXJRGRCiRkAhxkVeURKSwsHASadL1L/satj5oggiLFBGhAyEREWGRIoXyx7/MJsHjRpxlCmsDNRhUYYMPTgmLh7i5/RyKioEralUPxzYT+8G7Ng7WJoYK6F8uCouLiJe/N1QACljnUQVUDbr9wRyLj1K+/UwBoEKhM0T0TGRfnmsrP0DVFNBPzsUgTmri4pcAAIV5Pn337cN1wXEkvj2WHraFmpq+AL6+HMRPFG78AlODQrtONUUFVD+8QEWcVGJe+GJfASjUZon8ITnbs1YA1ExN779DUhohH4iJbzyDVVT1wxRn6HDlSH7kIBJGVv5GW/oaDIbBB00pjkhDfPu5qaF2vTWomkK/vpjFTSkIRbn+PQymhjbfPllxnvK0lalqOjD85QKxhJCT0yoizdL3gGn1DLgkh6qQJMdQIsnoetBWrAbFpxcpMrG4KbBIWv7FYNp1U4MpBh9GCZy8yMQNCcfb+2YGazOuE9zn7Pt20Vo9eIeIRbgRr4qFQuHbUPjq7OFIkOAYmNPo0LeoLT0z/XBOSo5M4iqm/IVq1y8Gw0DvX+QmJQlCft9UhGj5GaCzxBp6wbcuO9YG1aD3LjKLEAtTcSKGRgKVG/vm+qkjGCfJfpRYwuiUb0zbOj++RMIkwuKpIBIa+XgfL7pf49NTMYZQGhKnQxIpHChLXviuzhRRXCJf22nlP4B9eq7hyCJFuBEvpUBFAi0/cxw1nDkcCo4jHCWPTv62Ne6dziQikmMWX6XA8fqzzhvwYYqZU4mhIfaBE3GmhjgUum2tvoU6ziZX6GUbW61+mpgks8j/n9ygIsJJeOGp58P8CKGQIzGPcaH4TVv/Ty9wFGERySTeokyLP3d9Dz4QyRKZinARJ1FJIixJSPjj/VliwFXfIP913WowVZh+JFFaE7Es7ZoCaj6f89JdfeuNKsxMP21IWhQxLX0HBaxzmJopTAeXhKVNxbS8D6sAbAaI2Urx5Ufnv8HMBh+GmKVFUV7cM8DUh3npqNoAqED9NCVpU0koy3emVlE7NqioVnVwKZO0qhLi9X2FmrXyFso9Z/tWXX/DgSnwIQlTm0hIi0+Bag5rsqCA1Y+YpW1RKV38KqAKG1zKLO2KuSnL+zAodAYY7DE54/yHGj5KQlLapKTMS7vqtHWChGrQW6m0PiUFKt+ZQjuGGoDtS5FKyy+JULP83AbWyqwThV3w5TPfWjHEnyNlkjaNWJLw0nMMJm/4tOHQthGLNEG+w6BzF1TdfqdwktKyCRUqy88BG84AUZzrLjDg05gKc2xxOIlQyfn6v1AnK/Z4MyXJ1C6cRCSksvi0awZT2DsNJ6YkLStH4rg+HGAGCKBnfLlrMM8Zbs41TIVCi49FpLBE/it8qgkSBvdPFY7SsrGICEuMi08N3ZJV/ZApUZbYNjFnIv7YdAZYm2HelzV4gsH9izlEkUypPRITZ4qSw3cTNvz7IseYKbZLYuJMKWe6/rxjY/goiZC0LhKOJBTLQztC1gpTqA4+uZxkuoglL9388jlQYQqdTuF1X9b9gsJ0cDFLZ5Qp72IABaCTDQWgMLyTuUhnFCOtq8JMYe2jMNhgs5FOicvPMFU7ImIYmt2/SJyKTB1Ryrefo+oQ1v3Xz/CaL6tuDGBq70buDsTx+r9gZmpjjU6AYApD1XdjytQdKDb54dBUTTtgVWHYPi3dUgwLu2qmR0RUgftzSRLx9JnIkhe+ABSwKYTpH53x67Tqp5Q7RAoxrJvqJAymwJ8jx8zdIacQ5WcdmnZgA1DgUukYnOLyc8MR0WDQ7dMchabPLsIxE5WPq+HFNAJ6tZumhnunCkXpkkr5rk7A+pV9fy4nSblDlinFxb1ubNgL4EqJsWMmHP8KPSIahqqXSspJCk2bPwtx0+RAHw/6cOkjqu/7suaGQU+nSB2qSYh4YTgcMwOTIEANFymHxNIhBQnC6zYw7cBHVTej5I6tHET4J/d5LtQ2SqAkFKbOIkmFmFLJfwWG0wdV/NkVcjR9s6HcoZHIIjGtTkCDGq5IppQ4docSpeRMD7sRqm2fK1lCxywW5qX9IyIGPZM5EjdJpo+YUyTKzA97kPsIsNLNYJ82lGOXMhcR4vLEYDrZGABfJ6EUcqIOBUlBYm5+VnTgDfUNySQdC5wpRlobHhGtbmaRnBPLFFIRIhERSrtTqbaO1tvnMsfCHXqFRIRo6fmY6AQI0O35TIWLUOkOSThRTLy6jy7o0ySUOHcLEhFJ8bujIYozLFNPKSwNzTpezPzcckY9MFW8yzlIJ/UQBgA2mcwAA66QdFcPre2lwNbpGKWTIqGlfYWpQY94bMc4/chJ1lFVp4x1EgCbUTh3k2bXFECdUKGa4l6SDqt5BtRWC616JecsHRXx+mMAqEe9+n3J0w/JXJ7Cpg3wZg0eTysuZkrcTWhdrWKgI9Pz8AIwXCqxu+S8rgprEVVsNilwV0lBdofDarAjXn2mTEErIdGaoduxH1o1n3UlElPqqIWfFaoTKqCqrkjosCWin6GqbWa7FDJH6aiKxOXnAI562AWZgqISMu10fM901Tf4YFsXWJoQuwnTutWR/xMAq4PTsXSYEHlhH7XFbPrnUCKXzmbK8WGtfnNk4V6haZhzSeX6cMqYM24Bb5RMIUs3FUt+ohh9a8+DDXBFouTuEnNMD2Ftvq25TDl21FhEuCztq0GPdqzEzNOPmChT82T62B+dcek2c0ypdLWWSNesTizD9lzIMXW4phQW99Gi9EqInDp5+Q2Rw+dmbnNUQd9imoK1ZI6Z1qeP/cGXdY+t81EoSFeD5BR3Rl79R/XNWChzh2uhlD9XtKftU4WTdFVJRHJs5KnqEc/eEGGZiqISnpnpFMFUX/flc7UxMWCTpOu6/uroSPQ5KAybiaTzirKrUJg/ZoZ3mZN0XqswA8zjdGThtHCZjgjlBwN0uBxIgfPOjL/N5qXzSk8UpqOU/TYbqukbkruPlDUdYNgCqLp9KkkPFHfNALWjHDQlJ2Ve3EeH10zzvnw77obpre5v4f9vYST1PVS9zxK7D8W0C1P1Rw3v5tCHR+uAVhzhuCASZSoqU6Qd6/Ca+TnnyzdjA5zO3SeW3ZHRHgeFDeelD0jmVWslAFunmhx6QKbdIfQoR+IpOUISms8xVeqKOV/+ibHrW7kHlnl9xNzzYNiIJfcgUGLaVWsBtTdLKLkP8DoqqsccWRCelqFwigtWpwgwTa6U/zpsSt1HStibQEFtPoemB2ROsga0Ebab0ITMPaiJd9X0CAeL8JQ0ohx36xSpgfvsay9Vx2Sl4R6YcPONwXQkeh22IiXuQ0icebeV8CZlltSDRUXWDOrxji5GZUoaS+Hy4zSpoZvRFdqpOl7USyH1oM4pNM9Hot+m9maWXohSofRNG7Z9IUYRjj2IlPipzxxdmKoqa+iuBhrglidU+Ml4DYab0heVRxMFUzVsXWDpjTjvA6i+J7tCUqQ3+hzHpVAZThEze9038O5Y2UzP9AZZHrHWngY1U71CqT808tAwgDmiOjhVhPpDs292PIrw7jSp69nkSCHZHcusblB/oF3Y5DBVDHFKemQxLVQ1VD8GZitZgvRH6aEd2eppS44/TZGgmPMMHOLemOHN3CPujjJ9DtAVabL0RpnLS4O5Br3UsOT+QIvDY1KL6fMpErDF5Bpo38aJuj3XI8v5+WivpwFmNp85SY/Ea1VdxzZTr0Y47hyTQnx9mtimJPFUNoyDvUdNf4jliU6QANyjGKk/UCq0a+pYq75GKWXuUcirx6QhNmWa1O9HdmyTLGAs2emGe4SsTpDaUN/MOfTICjN9o+bJYE4oS49gpr1j0prz3hRhPjsSI11XwEZnQ/qkHOPeKGhvw2COqeEedbHkxX14xvc5Zko9ChTlwfEoTGV3SmCmdkqyY2BZHcMUNp9D6g8k+REMNinCCkv/tAM3M9iZwtIrEdPScPzzsSBSaGc6YDDbTBRd67ujY8D2qSTUo1XKMlR1MgA7Qz3kmtdWw3AzhyQ9E+Ud6DEoKdN/poQpcIWdeTBO/eK9HKn06/gMerj1NOh2Kf2D4zMnswHsSmxY+iZaVx33HQ8al2+mRRjamSTFk/KfMbLiXMp9+iUWeYThpLD3uIehhEdupoNTzL2zkprnGLc6HqylrE4HBortmAq72s4YVjc45NyjQCJluR5mPeZ0if2DkldU1c1cct+MWMrLsQ/Hgya0Ph1QG1zNnMkRot0xBm/lIrlP3ygc9+xQtKdhM8ceWsy06wTsNQqxZ8ZJhK4fh5oQXZ8OmOFMkzn5kUn2xgiDUxI4ca8uQi8Po7/2Xgmph7XwQ6+oF5L0TSwiMe4dh1pMC1PCsJGpRK/wKvujYxtCSTj1aTiVVUwILnIJ0kPRNSdsQ7JQz0hMnMOj49GwNPlRmNbBm+IrkgUbDQVs8HrK7dySiAgVEhFq4Ztf6KH0MZhtSF8Vdk3VYfB6ll4q05rBqh53ImUKmFbD1inx1vWRrzbEKaZ2CCIkwkmESgs0OwYcVPTTVO1KbykP1Dzy4AL3k5jCMwXq7IuBAYMrEn0p4bMxLptRWlRJxKEVKH4GHPj6iQHneossKxyebXKSXooSvbQKO+aERKaBmQ7mYva2b0em4jVOLZEkBA6NtBNiuXZo0D4G/Jv7izyFQ9DXI/U0SFkdcx8LwlMBU9gVKsG5Tr+OjNW5pr1QpCkihVj8xZL2Dq57ana16TE/uthpKf1EmJrnsGPPehqgGG5dyOS8Ke2MvjcpUmmHRoRIgrCwtKJfJwHzob/QmjnYpkhPjaXkJ9WOO4MITwEqLlHM7Azt2ciXN6lwO+cSRCQWiamVX+S8aodc0MMw2J4rPbb0L4yvqyn3dKcmyF3V4044TQHM/lyEY/KlyHBUzM5lTrkNuLlx+84nn9y5c/Pt0MbKwksvem9YydRjo53xg17Kwj19WWQRY83MJ6hBFQbcn0viLrpedcTB/eJ745iylCzlxpf7+I3w9QdzxImFI/vGp3qQ9RA109cl+pMlZRYhyZxFghThRCLUwua7CtgYJ1Xdbty7xMJRSDiJBBHhhpgkSCyhjdPuWG/mQ4UaDDq4GMVfaXXUbmBXky/CkjLT9e9h+htgiscfnmKilH2HHuLgqD0LCtXhucT+xMBCgSWFQsKSQk6U2hjhtGAwjAFgK8m940ZIpKSGRJKISOAiTUOZmtwC/3k8wzJTYKiKdym2YPwtRg16JvoSU+aSvxhqxUGqgN27TIUl+L5V1F6b6n2RFpCGozSUOYkkltAIlZC4lRCfmuk4P8Pr4i/ihhMJixCTiEhDFIIkJvaHVzGOZj5AoTB8KA21QN6xEbGtOeedQ4qLP5tVwA78mEHfyRzFV4vW59oUuMptDAVOQvz27S+/+uGHrz65c5lKTO0E4kcGHeMZcM6fKBIiJ5Zy485Xf//hb1/duXlBRFJoJPpTmhczLKopKj5MnLmFSLujmq4E5zokWv4FMOhBo4aqMP0wSnGOz3Dwp2fBgOE8SwvKSTjf/kVNTQE8xtcfzBG1Yk1Y0/GybmdpQ00mvvHlvtaqpgD0k8tEOVALIZad4QzLqungncgcS/an7KuOGF5nZ4u8vGdqUDvwAagwxbvROZRfD1r9MzXVC5RaIDLd+DsqtAIAYIZ/fCBtRMqxDMerbSX4U6iQLHzxQmEwQKEG1b9clCItKMRvZ1k1cO9yDrFwJH+WDaPqXEy+lMVdKKpCMTjwooCa4p3kHD+H9riutslRqIW3+IWZGgAzVAMqFH+ZayEUCrKLcTA7G/3JEvP1XwCoAVpRAaDiH+/kSC0Evj7DQu0vp4VSZmlhy3odNWynTM78pLAKA+qBW4EKwLbP+cLLBwftW1C8X7K0sJZ+RgUAMxgABYBq9875w5Tij4pxpBe5hcDx4yFghoNkMOBDaqGOIs9nI1CUBR8M0N+Ary+TtKMomV/qKEEBW+HoOCwh/hXjyGAbsTA5vrR/EDqKkRRyhNIYlG9slI161vdGhVPOsvyLwjCKHl/MnDOT82kNGI5h9zj5QoUlx4/VMJLsIyZm75fDE4XOQiySE1ADAIX+7WYKObUDU5IndZS/wfRNytmPGNLqELDRUVO9QlT8oLxz4NYPb1y+eVi6zI3j3Lh8+eaNUdPlnzDCU9gpX0qQKLK4NxwJA+r2xZSyJPZlYTjORVeSc11CCvHzgY42Ax1+RMl/lR+rjfxmC5a8QjVohf5w5zIlFgnSkqjsw0b5KIanY2I/ciq71eo4qyoGFws7Wv7xwItVmB6WNiL7kZ9CFTZigpmOEHA/O1sTmJqfDXU0M+jmnFDI0Zewq2NU9iY3voQU4urQDCNK8S4ncl+rgM1C8Kr13z/87ZM7ly9QCiztKSVeUowiVWwV8gwx/FUB6BhBUQebwXGKrB30gxoOlW6W5EfZrRhdL3QUM12JvgiVkr9TqGEkqVV8Wqih7MyjserT4lwXjov7VTGiKswuheg90ryYjQShLC4KXAqVRkIRIRZu6RX+TG20UFeIHbPkhedax9oKmNkZx8C0PDzgVYwg3cye9V4d540E7HVyJkdaNxhQR/kBQK3vUijOyF2MEbeoOMMx71RoHfUPw9ap7Awl2QVs9kFiYR8SyStqiCW11mWmX4E6QmmwN2Nhx1UewQAdp0Y11Q0SR+U9AABGagHUjVAceYoxZIpRgp0rzjvmxeeqAAyjSdW2LmYhX2gRY4QN4eRLlL+qjp4HMNQ/e5+p8K8zEYgliZuScBEWkdQWhcuuYaQ10HNZoiOLQ6v62MYJgCr0kmcMTw4wNR3hbThm4V3VMbbpKGGLnC1GemhDaAV0pKxA1c2YnHeRvTH4Y4nBmYV9GEaNalAozvi+nCXeHX1mDCGQ+Ku1HMuCKmyktz0nIn6xPFKFAmOYmQK13hJPPcJYso3oSLNbx8BgI5huluyc+boBBox0NgAwRZ3P7Gz5yRj1pegeflLDyBdTAxSbDflazMt2jF+XWpQ1w4jaFD9l5oUXcNLjC0LFh9jw52awMd6meGoXzrKrwo63zCSyi/FlmyKxeJ5Y/veotcEusETHG0tahmF8vZmD9/EZRn0zO1gejojp+8GPKOmhQT0w6JuxsFu8BtgY6IYnxR09n5OjUSphDebx3ow5REeLaXXkwXbMnsQksjNUjC3dOtU4U3Z0xkjOuzoaqueTo0neh5s2MkUvch6OgbeVPW9w0bXOHJunHii2co7kyuKohhe3grheqKzBPFZ9N7AzD2eOYXF/xKw4xY7Q5wo3Dc6RW81pd/TgbG2ELfK9c161gcce6Hni5BiE495oKHC1kOsIPRlA4aAtb5M12GyRMS5bpTgewq75gTfFKZAk2THFqOp6vel5EUqRngDqYbYhIo6xsOyMSp0XbhxXzgvmkQGt896HxVkj9KiOGOpKJke7BgAeBwOgG41XHRt+gJHpfP2eFMdXmBeGAw9QYacjex6o/DhqrRfFWQ9N4RJ0MzvT7M8Y67hrIy69So4hPVSFo+aS0504r2N0db1+PTSOVYrlIcyjhkFXuHEMnGR1RHQ7im/dPNehuqyK086E3RljvaAYUfpGjH7QnnkFAxRvOFnKIss28qXz9cUcHEOQtOfyh0KxNReSZ+BrIwbbFBbxPK/B1MzhKep7zqSXM8RAJcS7hhHMAOg5diJKjMuqjrXiFoubyrAbdpzBLjA5hhjX4Cd7IybxFA3NRrKr0S9QypmewOAiU2yl4gp/PkusqeGfdKSsplsxuV1LfmBwlNV7xY/mmY56yM6m9yOLo7K8rH7oipAvT6EjPNU3HS+JKC6+cJlX0UucXN/1GWIomcs+Rq3vcyIfWCjuKjxrszk/aGd0krNBV4J4Ksq/HE0Hp8RXLwcYBZxhP1hSuQs1uOlWIlcWZ4hWMq1hpKAAbqXgtSguVvUchZ1xDL/2sjZ9vyRPyqop3GR6vrhSfhzxMOdoJBx2qrqN2lZM2ZEYn80SQ3mpMB0tvkbipExlFeYL3vJDvu1lrTgvxOKolwpPbbCvraKOwnYmxyBh6blC4acz2XERxZ3ZIRRpX2EYRYb5mNjrE56Y+QasOLI2co7OBp0XKeRY72HoGbeTry3pSHuTHcncrMI8w+A99jThl7NDMq1CR9uAXiCvIeY9da71XvJjeXSSs0LnRJIjy1Yd18Dskq+VfR2lvpUcQxb+deBXqynuxeR6+HaGGPhXM8Vo79+S3QIvqe+GAg25sWCjHrIztiIxFT++hXkGxfu+0LMRBvY/wn5EkT24/Q0AcIEdobQ6I4QKU7NvI7aom+Koz+Cvi8LRibI3MtHZNsRPsWR+4nsx3CMp5MiOjfLOi6O4XIOz7LzjZKElhc0CCVJofeSrYsWPxE8U3tLz2cuYd7tgp7MaVhyRIHHffFcdXGRhP/jXkTjtSeS77vzZ0bLEMpwNwiTyZMSBVfzRjxB3zd/+kJmdkJ0e1rA/epLiNcAcUVO8QZId410dYXTOE+Edg6sU97PjChL2dCYYSoiLw4qRdd6Psoihv10Vp5Eiv45KdFaczX5Q4m8fwxwrA+p70fWwOgpbhaPjxD1noHZRPJV2ZoJkKvHBqBkKO+cHfTZooV5JXoHkG+1frTjjuansKNQTNWyKkPhpcZSwyexotOQ9Bj3ruBuSXzGSZm4wxbw76kAVc37IN6j+bHIUL93tgp3OULtAfhShPdcBANuac7XF4Qi2UsjzrXtfFPonP0hEHswEkRjXzWw46mE7OfLE4K/7LG66Zv2r7XF0DKEsmLmigNlpYc/3bIT4XhFH8kt1xzZca1nDSHH2BsnOyBmwDXas96D+DBomp0DXhz2s7xfPkNec/woDzroG2j086JuuoTyBczTgsWtNyzbrI5NIKUsVI0txy5FFQwvL/DKVHtbYJMeX8wP4S1dcjXYOwQCdJyEfEhPTvincdS6m7PcWYTbbI7JQoofDMdCrjnkZregCiZfSfg/rFWHHFXbMH9tgR2L676FmOO32ZylybQh/6dlAyY801FHWTA2K3PDCvmJ01f9x5LM2Nuwiu31pt381/iiOYtlrg60knvrm0NpwKknyQmQVMLjragnRj7g30mGmBscUygMdBz3vyCO08k6z07DQ0/7Vdp4838ILtKE5R3JYP/Rij5PjneVBK6wkcVTYnfUF4djQcxtn9Fz0Y8fQhuZTdqt3+lfbvCvL0BZqnHG15eGh3Msi7EVJT9BGfY+KI/wEsz6E4zpQx3h2ym9orxXsjDROI/Syf/Vgnh0frxlakP3BEUoLOFQbOfghtGttMJgjz/Xf2R8l78LGWY+TH2UIVX/0UnCqo9CP/av1tEQ/0gNtwcxWyNPoxSEoVoT8ApV9ayFDL7ryLUbRTI1McQ2GMWq9z14vcXPzxuU20qmYnEIs3/SvVqHkR9ixNpZteE7hvUM6xVWKbj+RJUUrOlM835rO8MhcsuSFZxhLuhnET4GYiINzEjeRyHr/6m1O7MhuG1lxj/3gIk8Poer/iJ84X0M7+kOIftCajvJmZxaJOT60MblVokwI0Vr/6nviqWavja2qc54rPzmstrOOXZa7LfG+eOraLM8Kp1gW9ut44KpMDNEyAO1XvSGOW7KhlVpPO94pvTzsYvOOlunHlrgl7EdenOXBiaM8HHfwR+LJALMswfpW33LlGlDbCJj3tOa/h5jinB+F5GVL3GdHhF/M8EghpuUhdMzwWpkQxhwa2Gg7OV9ldnzrhhaiKl7zhL89hIrTnjvttsRAkmfcn+VZyWVHxxzUNyZIkOFoOTq/5bnlM2ujNtM/+VE4fHZoncRR9Kwl7FT0I5bdGR6hkVWzcZ9eIpZJobQ/Isn5TU6O9iPaUIWt+JFZ1g/Lj4sr+y2B0+QHySyPyIvPVGHjYaeFJsVf6NloE53Pc/Kb8qu2EkwdKZRWD0HvsyeNtcW8Z6adGR0kkrN8pxhfczJBtGujkZoVhnnJXpDwE7Qisw1hJh+I6Loeku95/tM1bYuzjnWUlzqjs8wU16vDaOI4OQ671qfaAJx2+7OI7LYzwLYUpxGKsniYbYqnVlsa1bdc7dcZnUWmuLjnsbdZJoieYDQl59NFyOkqTHvWRjAook94lWyHsOIJf94WuMqe/HNGR0iSfhrA4d2PaYJ8djBSjM0GYE7I4/AqPGwnqNopry1EXPaBg4624lgzfdYSpiuOw/LNjI4keR1D2PhsRJkgvByR1GxQNOSFcFnUdgbAuZiciCLyDAfrqiMi/0Rb2nCsSe7O6Opcru1DHQabPEFqeWkY5ZCcB8KJxEl5QWEtFArTM14jVEie4eDqT56T/2tthQ3yI8rajM5K3rOBedQrWdLk4L8j7ths2GLxE19DS6o4K1TES7R7SP2H5MlOa9x3rZdndfxUAfUIt1LMk4P/YyPt2AzDPRHJPlDKa7CWBudJnM6FhHb1wGWvedaxLQxb2RWbwUExfqEGH12VSRIeYDSlZsDuO26SNbSm/xEWP+0cUp8XT+1qS6bqWEdanLFZCZFDknVTOL33WSaIvhktxGaFbTgi6fP2eMutlsPRs45Q2kVb0jnHTYs6WyMLSeH1F1qhPrzFNEH4rH07mhXwhOXb9rgqnnppOEh6xpW91oAjIrM2ExEJ118Y4MVrMkn0+WjkZmDFE/pni3hmeQnTg54rtN8WhnN+FMkzNijmcH3fVKt5EWWCrLs2WozNarc8A/2nPVaEHD//xYHLznnWNGwNnfeDmYazNTjF6/tWFW46O1FYa9+OZih8edkqjvbjYZAjxbT7CNP+bI0o1/cVANzs/EQJ68BIKzWb4aon0iIbruFbHCxXW0R78kTSjA1eH0LVFFDzYZ6FJwer/apN33ck8pP22BSJfnyDg9ecZ16EtcYlT2hvNkbmmEpI/PGwwlfzMklYG3HHZlNXozZhdvx+qweYM3JdFW3prCcyIyNxDlzCF2ZQ+Gmy0A07m6F/9KS0yH3x1GcHYjjladfaG33dk/BsRmYiRRZ+Vq3Og/mJUq+NSGoG8P+4stse94Q8Oaj2tuUW6zddbXc2RgmRbvyiBnjbuUkC9atW4H/5wUIt8o9AyY+7h5CSZ2ipdjaSMiODCt8eAmpqnjZZ6IidZX/wtPC0PbYlRj/WDoHIkbX2sP9xDU9nZETeA9T7Mn3saFbgNU+kRdsWcmQdBx0U7BlWWwx/8IRmZGQpjwBAKzw1fex0ft0xtFpviafWDkE8tQpt6Q/8v7PHWiSuAwaDty5ynNI1qieFuc2QxFF3TV99LWC9gGYcJCYejciJ3V94BvO+TvXa11oO5GiH1b6stRZmSsZSRjSOoYXvjqr3nuq1N7TXD9Zbg1qs1ZUw66CMfm3InzXFYMpbbO6PfdaetcZsyWTULCyh+FP2K5w1hSz3UyZZmBlakZJGoyRpweKOTfIw6eo+hJlvLSJhNIilBct3ddpbbO5PuDvTNRHKb4+q6I+UF97vaFG3aLPCmpiWMJLssV7yh9LOBOf3Qb1+jGRMv8vD4mgocJVEsnPNnwOmzqfTInlK11b/4ElqE7851Kwm9iMum7aE4XVP+OnRCeLS/C5nYUSD3peU2blOC8OB+/dSKDy16//lSWiRe+zJZ4fYBc91HW0BT0jKEcpSknB0MIPiIktyvjDtDgHzZV5kUtDH+o+e8NP2uE/i+PkcsAPQOfKkrdqXo1V9SoSPEsH0LXIeKVk+hzmjZ6Z2rbA/+UHCOy0SPflMDzLVU552zVrDzntCz45U5KMFm4WdA0u+pt4XzNPEeL2rFXbV0VplgzzDN4aDpKeKIwvW0lNnZO/oxOlERwgzVdg5js4rCO2i+qJnZVK8/tUKvO9p1CKb4qlvDqnPsSNLLYZ5T8oRys6wNEcHUNVwPnpbCfkhzHmdbSbG6l1dXRGhly1S2PH7z4M3znnWi+1lX+j50YlLwnSkCNAV8VbJdE0NvjpPkqZzDcUtzxxbZCWH5Md/DkbPRUdybQ11RfaPTrxGcoQAAPD4lEim5HzaM+f3mrATJJS6/1YV1qcaK54j/6dFXOv/qh74XIPsa1tPz3luGmWOLLxX+AhRA4AN3sglSPQlPIKz/uDY5dAHdBQ6WwPVESH53+1xNYmjXh5SX3KcIvtt/WCOcJIjFCuZ8xED3GIWct7JPf5RxOuQY54utQKbfkSSb9qksCdaD6hdybJnrXHBMywdofg0SDxaMKjbjUjMzlaeDXy56venXgSz2p/aXCGRu+3xR/LkScUBUpx3hGW3JQBLnuEoxX06amCw+RTEWUl+9QyupMx9CCNOV2soNjyhtfZ4TdiRnd8EuEPUForH5Bmu2dGJwdxUvUxE1Op7IbEzmVadw4obHD//ofv6l6Jtc65xXxzF6+1x3vNCuzA96PO6J2mnrT+2xVPLRyj0HJejBVVxPzbulLLvy63CXi/erei8KqC9qrddWW6P+eL5nh4YDG+58hJt6b5nDutHqIA36MhhioveI8R5x5fN7EXkNfRAo+XO1godeCJLLZLJkT2oHWR/TOKo/7bGJomj1o5StsLT9E1EAOA9Jmciy5pVdWSDo9OLaVnRU3W2BhA9rYGptoABFzlnN9JzxUHY++RI+WdLKG45TpbP9OiEbUo+erDB0fll4oUXgOO775YpLfR1ulxjTsjvlX2FtWEVp6SwXz08EMOKoxX+vDVbcaTIt0eooIO5ePQApyU7Iw3t4IWjbTMnr08ZTkBzrQHgIgv7vWewVoBGz0vBIWHF0QqvW0vYnzwD/XiUws4cMWoAsDfIOwo1d80zaPKDnk1Ccw4678pTsxaCKrb8Wkm8hINVN9mzXm2N/0l+MP16hKqtvleOHuitLM4ioaUXMMc3J26Ku9OnPiPsGHfaYiMH8rNlBfSg+n72g+Raa+GsI5JeHqEYYDMcQcJgzvlxbCTsDj3tHLmRd6ZOrWcli59eaitX2IZw8iKk64DhIG057kKlNeY9g+wcoYDq3FSlTEYq5oPzTsTlrnravBcs+dfpU7/pyreKFmoDrjr+Ka7hEA2iIxL32+Kc54V3j1C1Kc5PURI3EzLgz8k7c6RF1/qM1y4s30ydGn+S7Fh/boZW9EdKXudM8XPYgUt1zjEUftYOqqfEU3t6hAK2UiROSSjL4mTE7B9SikTfUwxPAZg5vfOJnToJ62Zq06V+n5KjrVlLdt5vs8g/DzYDznmSd4CqLbxtdiSH50eooKbbp2JupuXiaxOyhp6hQMUXTg/MACf0Nbc687LCdKrUWMlEflxTa+GsikviKP4PDpYrIvwSbfyg9z2hZqQ5uqDV3sxhai6ZkChwpVBiZ8vXBqhe2J+8JmYutad0ud6U4GhliDaAnXbl5SGYnvcjB3mg7bDiyiKOUkFhm7GZkrDI3UmJ3c8s5EvhuAd1O9wqToGE414/p9P1PRJP7WkroUbPSTuH8pojLHe1laVXhRzfsh2hghlM5xNPSSv046QMZqcLJV9yLD+q1wZuiRMslHZ6Spfr7ZTYD36qLZjZ/eJHDvHZofzBMRRZbgd7PUZH1kbaRxZgFbYSp2Vdws6ERDG8QjGKs+I1mHm9e5R8KCHJr4opU6PxXOWloQXVFXaEaP/Q+n0/YgmNoZV3Jjoa37UjVIBBFaenZl32JiNm0E3yDpI47plbtR2dEBb+rKe7y7XNucYHGLbxrnpmycNDWfGDhGkPbUhPe+b8jdUjFFCDreTpSKYlnZyhXpDsTIjyCNUrWONVl1zWDDZdaj3TOIayhjZWfd0RKouHjKJuiqNKfgqYP49dL+U/R6oAYACcSyycKdH0IiSWLHdtUgLoeSFx1xrUyRQXxE/ZrC0MBtgEqu2S587X2virnncMhZcP3XaPOJLf56V656qw+yKOdXiCo1QAYFY3QyLhQmWKGTchNi8nKSuh+BP24VXrPIubyrO2RlF1QtWveUJp2IIpToujyvphP9igxJD81gOz6p9XmB2Ndo9a4LHincAxMcfpRSEpkl9MULB9gf3JT9QpGs46WtxpyyrMtKJOnhp/YscgvKstsM3RM357qCkuCDtWa+o9ZsBbRbLj2ztqBQDDrQvUhCJTLBQmyquYmDWgmI/+xHWnDMObjtCj1sKg1a7Ttd3yHCov22Azexr9emgGTktyfIvmHWBq85QcVx4etTAMFZspNBLz9IIyNbRb0Vkl0lviL877TkFx1RFeRUsyDIao7RVdrnWDkh8xPmgh4P3E4qeyc/jGWc+RvAdzD3YxFEcWATtaoRVD1SuRaYqNUGJawyQ1w702rOw4LcWKI3mhrYvh1o1f1HQC1fc9rfBqC2NnydP46WFbTV8n8aul7HhbVWzHkh1Z1aMWUFXYi3diw1OMRCU/xSQ1KM61UMtdOMnui6f2Wgo6uJoXvrA+mH+tjeOjVGoL4Zwkz/fMDjOzqxwdrTwyd7NbwZW7FaPoaGMwmMLemWZbKNHHZpPV8F4LMS++cBrbYseadtCW5iXTjZ8nT6047Rpkz59tFkdRY4egAFaa4Pho1TtU2NUckvjpn7CjlgEAAH2HYk5CIjyF4Li8jy4rkm1QyuxN2DWYeYQ6xyLkFMLnqlZb4XQS4XT7ucIA6MSogUvZ0/JLdUVhtkHiGHkZhkN1j6NjiMU7KGzerymZ46/dCDd9H81FlhJEwvQhLuzpZEVN9VxIyZcQ412oqgd2TiQ4WYqLgLVxtK0URITk2vcVUAMMgHbUyBc76xhY4ueoMD/MgKvCjt9mteJwbUXJjjHtOT8zXPCDJeUnGElHIgy29UEsQUiaKUNDvPRsOGFBVbwZxNtYll4ALuC8iLCTcXkGbaVeoSIikjnffq5QAOr5vI2euo79MYmjeLnCE6gNz3D0DA8MI2guO1JoxzkoNrIfJFH2RttHo2BVbeuTmxdSmDJG+cadFwqbsEFRNwp5IxJ3DR5B8ZZw47Uy7Sha0ZsNi4gIR1783sw5ult5AvOsV6LnZNkzg6vsAsfkGH4dJeAci6Poc+dg+n4UR3Ez4u+oZDA1M8PUkZqZTlgUsMencvSFYsoP1AOD3SokXor0GayNZfP51XnldOMZ1PfjXu+4ovcdQ+aYd4aeZ4VtkDhmKTs6wuh5Is93zT3Ms6MxX4ce1UCF4VXV6UIFYLCJSzV9g52tcKZrBhfZZnCrQypL+1ZbeNunYpJX1FBiWvrCOm0vXYMOxFMkn3kOFLgSSRxFz0YBfxJX5V3npXOeIcrq0Q0DTA3QimkjrVBgwtYGqN1K3rmkHHd9wHbMEp12DvQUbZw3WV4JiVg4iZQbz9QcS28rv3qiwDnPX47LFY7LoGcyeda5oh6OrbjC5aGzbSRHk0gP9OhWwwAYpo8MgGnHJ5EpdLtxNhaK+Ud1+SousBdCTX5gMH9eK69eQmJJQYhl8YsXnTX6j2PGAHbJMVDMeVc9D7YlMSbHuGw6wtINio4kXvWlXuHkWdMThY3y9Q9v6wIBgOKS5EzirOuqAHT8NU9J/LRs6owqcLFklkNEsvyLmimgUEBh3TH6zBOovpaZHKv4CAZAvWzF8cpS5C5G0iCy62qe+52rGs6RK2UXo2kmA4bvx0QSfcnlGcylPC8UxU301NvUbCsKZzlUOdx+jgqYolaMhX+9pp41cCsWzzOvmppbOcAlR5KE8K2NQsVcFFftDGF+9y2S4AcH2Z8dYYP7mZI3RI+cDu+LRHFTeVCda6u4yqmwHKrI8fr3qECFjbu9ja9Z9Vx1I4g4rpKfwVHbF4I4qmlejmSKM77QqpoTamZXC2c/sizq7Ag1uyjiHUq4rj5shMKOtuR9V9VLTUgygqgwf7yvpqhQ0w7VZegabauQZxB+5FnfiuIpCs90pKV/SL5W9lF9MFWd5+gYsqzNkDDgrRK8L7Epey4Z28kV3qm+DHWbmWkEilBJvPR9RYUBY+FtqfziOsAp8RTFawO3DJz33ESU/63QEUZXxFd5R53M1O6VlKNjHR7YTMk2SYp3TelXp3jBcaTQZ0Pv75UkDcfDYZbIJOHGMyhMO1Rz2HGl2pmS2TFw3HXMkZIfQZpljLaxyb6kVa/LwPRKDpH9oPISI2omA1TtdPK2zHHNYOrAPCc/OOfnvgyGpxOFPAJJSIQpl6UvbFgxlrxN6J/w1ZviicTywGDqw3uSPCOFz20kTB/P+UJpbwgn6VyR4sruLKmG6hvkvCXGnJ/78D+eoWR56IttZhZJeYRLKpxJSDjdeDbeuJvIqrouXQnRNdLSczfOBWHHEXmpqCMZzjlHfuj1w4ZQJMecw/4MKQDABkkLemLw4GpxDMS0NFRVv9FLLGOrlNtDVYV1w6iUfYOan93jxOKqRwaoYYyTGhSmm+KqkmkHo+p8brIncXEfBh27geJMFFfxss2YeNzE4A6tKTy0FcRTlB8Nq9Ooqd1jbsZ/DV3/Hjby+Bs1O4CpH48TJV+WBwqgjmUVqHbJF5JmfzQU9lb0DZkfKaqNxwAGfEriq3QXMybsbG78rQxdQm2y71t4AadnwIvXG6LxCdKk2/svtBuWSVa1wtEG8xTFVbwDqwYbHYPBhpvsSw7LOhpmuins+YlNXhjquGaqqmez8+NfZ03orcbfpOzAxscGl1gcVVJ69MLJqg7ux5BlfBUKxMvfj4q/FW724Lihb+TsS7pmAMYBgEIvRWdrVkel4t9Z2JFMEh9ZHTPb0HRTnLM0uzMntk+lFg6feQTD/yTXg8jivlttl1IhcRAXScQPO1KLxAd14PneT8WXLD9pHWsUavapZF8Sv7SRg50W15okLw1tTFPV4SUO2ZfwvGJEzW7QeWlBS8Ph+KjdcjROIiU/9KJucgkcx4cKlSDpZTcss+S465hh94l8KbS4rwYdhwpczMk5pJ1RUehZyY4rlhzyQxjGk+omxeJs12E6YwJX2rDw1MXuR0dEhOLCMx8Up2NI0SHGIJJj2OlInTnm5X3PN2ycQyzloZliLOmfYyJfODwfMcAGWJHiSA4xxcX9MVEMTosI+/JZnTUFq/dbmJi+cajV9JwfiYmF4poTVyTmIF7KZb8bRilzlI/hKD0TvUMqT1XHeYp/nMpUnMN1G9UMusmuhySUaXXcjSuFyflQXmLWFKB2mhI7k3gZsHELVVzKTCSeou9MVaE2GmoAALufYiNuonx9jK2bSbwVP36uAABUQFFfRWGjBH0rswj5HpeHChhM7WAMCgOgl5xvTJw/g2FkPW6IxFVF+Ds16OEYAAXMNhOLs5if6sh5dmOKd0W8j1nyrgJ17PJqIkm+LDwzQ4WOatWs2uOLsfj9JcpdHYfgDTV5+e+oBjVohaFaBRSAjmIrUSSIr+LH0AGGChz01ABUvDD9SHzFUqT5tSpG1mBeki8scWlXFVoPfQqF2mD7IkVfSOKSYeQ3u7GKTY4l+0IxPVAb6HhU6CZTCa4IX3te68hmMCj0EsWS/cj5V4yhTfFWZGK+8eW/TVEPCFtf3bn59u4ocVtEhH2h9F0FzCqgB71qigr9NCZnigjvjWN4K7P4KkhY3rfDf1BTGBSXpDhbSs2q2qzJYGaniKLz4nhNHSL+nST7BuG4BpiNCADV+mHOFJMfwrvWHWKWppHE+e2bd+58+eWdO3fu3Lx5oaFE5ekIAXZBuHFehZufYdADfzAFDFXvnxJvEctiHQfbdM5CIo1c3wdQD/sq1GDvMsXk3FF+WWdOtUJxvkTnyDnQnmJczDAv7BskNvIxRpaaGj4koczRMSzZGOimkC8sKYQgIo2EQNQ0JJJKkiA0iinOFhJn5ZgXvze1gzcAVcO9U+K8pUhJq7Axgj5OzkEKhVg+3j98VaipfViEY3FGaBcKmzWBwQpndg4pp4djB1ToWxzFV5lD+Vh1xNoA/TBTTJnZca+Nk/W+d52JSiGmEFiaJIVFSmCRmNMIKHQluNeJm7z4nSnsoIOiwvDpKeEQ3b/hVx3HVOe9l+RYYlx+gWo4VI/fSYFLIedQFl9onTUB2PDxHDuHholWbWwDhpsxOdc5N0E+3h912fYHiYkzJ0fKQ9Mx3n12JnEiEZEiIkEklFd7yZGfjQK+jlmiL5yJOd/eN7WDWkD1w8Q55ewe89OxzIZvOQ8noSwpXvseejA2sK8v59BICtkX4XUDdMaEmULnyftSMoe9cTEYHkdhXwqzlHB9d8S5dzELCcXoOEK74wzue9dcOFKRFOQAFRYRklEMarjA3kjOLKksf2/1QOxvF4uIUCLvCy3BxthQbLRwiLFkyrefH3IZfDgXY2bmxL4U+lUB01mTAXpV2tAjw/jSMyRtiJsvhmYwhQFQVEBt8MGpksRVJbMsPodhdG1LdzQKAN4oQtKGKN/4cvibmw4+uZyKtKLCaxhTg0ZiYmlB3Nz+BQAAqP3jgwtM0ooSP1WMrpkO+EcbxHXU8bH3pZ3X0NKX+6amAKCAYvvDuRjEW0S0ajrOepw6A+2NxkqIqRWEWJqbt+98eeeTDy5fKClIO8rp1zFRPZOZm1YoUpZu3rnz5Z07Ny/HIm2JFmGzKUzn2R+W5w42uC+pnZUyL93+6jnUYNC/fXI55VQaIV84NvnhWKPaFUa37ZSKtKSQKZUopcQUJLU0LHvjDt6KjURpRYEb4kZKLJRLQ9wOZd1mVFR7r2lh5ZcOUe0iSztiLiR56ebNmzffvhCISuAQchJv8S5sjKA41RnKiNgljuKvV02SiCTixK3tKMvjbthmaCmINBIkUSg5MlFoaSS+HCvPdszuRX8KravH4Xw7JtxISIUKBeKGRVIowo04V5HjkmGsGnPdWSMGfStzOyRJEkSERYJIoXbg+K2N+QyDCyGVdmCRwiLySt+0Fv411p7poLDTLdQ5749PtRWSVhRDaUREiJMEYWGRIkzF+ZLSXavjYDjXEUYPuplyW4GkoSAi0kiQlkj5ydgo3hBqKSSRIEWCMLFQKO1wHYNx1kwHmF7xh1LeGR/Txy2ZNMQsQiIiSVgkEQs33jnyr4ZxpJjveK12OkprYknEIswipaV6aX9coI9XQlsIl0RBilBJIg21w7c2q6pNdbOFC5e7DgCXWgokr4hFiERIOIkIO0Mi+zrWU53nrkAjBuj5LG2Lk7SluKbj/tRsm4WlHSWSIkIixNKW6KliVmXA4zlqgrMxLQ1t7AtwNcaSpZfKsjzehuF8x810g4mEpXcqmVN+CcXYsjMxSi9VCi+O2cx4AvR8kuJe5Z3h47FN7wtT7CcpP8R40vp6ZyijBjxussTYP0JsOL6ohrGl74XcUyjdxXia9RhWciT3I32uGPNrUJyT3irv1jHRP3UmyIjBzM6QUA/JidPa0Dy4n6SfCkV2Zltspew+JS0YBuMG0/c4Uz/hpcGYZnq1I4weBmq3cpDcP2KO4SWsjk/VMz2l0MLz2RaYz9H7z5J3dRz7Dfco9bSO32A45qsrqdtU6HbDsYc1c2yeV3Uwq+/1NAivY0zNdDBA7X3vxUmEHmBMmSpwjlNPw1OzMQM2OzM0anihOJN7OFISr8KgDgH3+xpo7DzzMb1PyRkRkes2pqGq6Xuxp2Fx3IHiXscD1Gyl6WGWSM1Lq/CoYT2NZXF/loUBqvPBl8TEhZ+OOQqD3Ss93d9UjCmzx52hjByg21H6uIT3FeZgpvpeP4l3oTOu2t6iKEGcFR4NAR33ZGekUAr9ghPTU6iO+3SuM7aH0XWWmZhKf0hMHGUNPlLY10LC/SJnSvwUNtvCBpuZKUdfOF3TgcHGPOJWEuHSL2KIy1bHHRjOdTwAsJWYigj1B5YkOe+oG4P5TLFfUGRZtLH37Megp0WSsyXOe6bjAt2eyxJjv8giDxXVMKbsbPcZDOZYeoaILO4Pvai4RTn3zLiEBzbrCmr2hkgsvmROj6DjBz0bA/Wsjik/U9j46/WuQOMEvFmEuFc1i3xTFU5S206xb3ei8kxnXUEVmyGy82KRawPYmE9hmyy5Z+S8BlSMicKudt+qbVJJfZoiJcVdeFEBO0u9m7Rqw1kXAP59SoR8iSTNno0L6kDPUeKePX5iQ+iYQYGVrlDGAAM7F6RnCstm5oMpoJt9CynyS2Dsw+wHq7jEiZ0PDfNPGHcGqHgvlJ6ttLCv0LGD4n7qyhsjmA1WYr+yUH6k6mQGVB2c437BeXFfh2PP7CcAejVmcRaVuA6zcQ8Ybjcce2YPzAYYN0BhDXU9QLF1gft0IKalffjdAdh7fTvQt5iBGYDtJFncVZ6PHQDY+SiphJ6cCuecdxU+OhelA+WYAHizVzuHdBeuUmzP5d58uZBIfAoHzYTAmULirrwDw/jakIYL5X4QGkmrZkMfznLJXYD2MJY2Q+qTRX7qCyreiELUDxIJ0SpsNsbgPZYWdLc6oDofGsrcD1KQ8FTVab0fmbtvuNSnQ5PX1Nt0UziXfpBzzLJbZ2V2P6YWQq4Ou9pKE0qm3tiSKcyHDQmxC5Qx0Y0c+gPHHfetdqnhnlikXBZtVmaGiy2skHYcMMVc05eRRsJD2MCp3sqlGzZmgJ1u+kO8bs6YQTc59qTOFPlXnZlhV1oIDX/usAbAezmknkC8tK+AU6inpQeh6i3qUXyE6o2anU65H1DOS/umOiMLdbMFOC6oiw1O9WUk00NVNaegb1AHxqFWvdAfFvedBxjAbCX2JTThIWAzMgPsoj+R4q5DHMKuCPfFlvYNboaruROPxgxq9b3+8FDhLlNgrieBafE5DMcoZlZhjz+83JD0SFRufDk0wBQ22VHoa4kz+5KFv4Wajl9snyKJwtxtGo4xP7QKN9lGF7KDAY9PScrdJ3JeeA5T+GvwHlMJseMEyqE8hJOODVC1ev9iSEl6pSbm5T2zAXTim37KQuRsXK6pYjg+uJJDFondhiXz4r7CTwOc6oSV8alXhGP34UQPrRUUg1NCTceHcoppcajHLJjev8CJpFfiUCQvPgPMJryZ6nYTirNFKWFX1cGwPVc4NB232IT4EEPPhzOpEzZmAAzbF0LpQaClfbQiVXuPJKRuk2OQ/LAOj1cw3TqVJOR+UUgoxoV904lvqjiTKDoHSuVBVRsfxXscuz4SJC4+N89RvdUB8whq9l7iHlh8qGqtYLBzOeduk7jhxX0ct5heysSlbyZSqKR1s8GERxW2IpJ9KST5OjzqqoO5LJS6TQn8EEPzxO7n7qMA8Ph0D0JZaGkDWu1WaqjjITE/rINjFuomZ0ncM1IQLhzSU+1wngKm25ycA5UcaA8+WpGQcrehtLRfYZ7P6ukuQGMHQHWlD/aTajtUg+JS6HqdXO/HB+FMYhFOfbOGKMe0auhunPIBrJ7J5A0neeQR8EL1UubYceOfFK73ClzpQVBTGM50nzWFWTsRCtuU2PHH/BP83rEBGyKJcs+2FAolU85xd9IbDKbvxeIcOAotwyEMoLoRo3Rc19Vg6vhRxWYXKGNiAKC20Xlo10wBaCs/NZvP0nGtmgJ2fILCBvOFWPqrVXT3zTmAr0laUH6mFbDxY30jRolCnb3m/BQV7jodErf+9uAhfYMKZ4odhIoIUVlXtCrdmuMssZvkQJHKboWfjgdM9fEp4dhfctmf9AZAcZHFXVl+Najp+Oj2XKHCqaNTQvwcLUivNEwdCB7S7TmKkUsHKaHkwot77Y5Br0jippuUUHL+vHrejwkMV3NKPUZoZ/LXMLwZ/SFa0wp1AC8+CkKRuxpoaX+oCnfdCzH2AuhHknIKHSSTROaHaFmqg9OUuJtQE9LiPjx1LIDZi7OFpcchy91pYLbRQoilPIeqwUF6hqN01JKUnwzWAjpfctuQTwAG8xQ5U/dIFHOzrG1nM2wKdbSOIdFPUDtmCYa5zFz6S5DFKYCZXmghUN7xGdV6/1QOHa2DrJsOYC2wIi3jZ0PbbHJIHTxQpph3h22bDWDv5o5SRNYNdsyC6tcsTe6xxRL2Jj8wnG3BUlhT+Gy8+IhT7CbNwr4pMPCnDk61PsUrmF2RLm6RkvmhomWrCtXt06GjIS48M6vHLAG60kQuPUZi82QKBMWt5G8izdDgURugZ0JH6/CTwdrIUFxJrT+nMATsTMm5e8RYVoc2sLZXNbPN0tGVfwIGGB631H+gLL1W4R+ngKkNGnI3ivzEZSnMsD3XzaGPTaGt1LCtuX4ErWb3TsUOBi75GWAtowoY7EpH64+hsKrHLAHnY7+HhD6fAgCYpyj++szHAMD+LImKCBXuBpQpiuTl5+3cAChwJcYoxFS6DQDoRzGTlE41zMI/GToie3xOUioUOwKTlJAkL+0P4axjAptn6blodTpwK+YWWBxi6MMAeJcTSSiUO2KxSJRm11oDqtsXQslFhNqC9uCod2IpRB0iRcnr2hUMuD9HEnLmjiCJC0uzW1WPX4Cd6zkscm06cK8k8RftWIWT6uMzHGJijl0JoUj8rqI9KewKxyit4WsD3b4YuUubQqHr+1B0RoNPM6dIHbEUREjid4Adx4A56b0WpwM4TexP+czrZxXYmmuYmagj5Cj0V4Nai1NxiZMQtzbFDzVg80LiDn1iCkt7quiQ7Iowl9QVa0RkHQP/3zFBHaXnYirTAX2vhRFaNPNBrSo250oTYkcCM9Fahba4zVA3E5ck7ckxaAU2KcYOXYS/N+vSq8AlyTF3g0KBaX2opscxQU36XmeS6cBwM0sLanbVaRRm9lEIVLgbNLG5tm8wtKchqtm7KbQ2vkFhOvhIulTF7wAbdOcCYDA4HXPsSORGrj1TG8DsOKbm3G9IJE0Js4uhBfIDp6CoMNU/xyZ3BM4Le2YKay2aGhTb52Jr2RdTGPBOh0z+imoDdEimqFtz1JGQCi3uqcIMxzBm6P+Fp4RZfS21UNOyU7BXHuq7nDsSStmFGhSAtlYrFJsXuL0DeQaFKfBOZyjrqArrTDZAFaabc9QNSBZ+BlRbyMcDNgGQKYFiI1HM7AvHuFth8FN9h1k4RkqS2qFIfjX8rOiGPsqcokiO3Iq5651MKQozFWoDTkwSkhCtv0AXZbY5R5ESlcztEApFFmEpP1e0o5kShsenJJOzJeFHqJ6ovsPchNiElNshZKEisfw8gHXlETHlyMn/lRbYekcClxwllDZIQYSbIM16NWgHGcA2LmSSIi2NNCQSi0j5WdGSZktWcTZT42xJZFXhqQp9R0JhTtySReEUy8LPCtSOYO+mwpETlej+9uAu23qnFI5ckrA/JCUlCUXWXxg6qqobp3LOWWJbFkXCKzMDNAC3KIXkHCSlPYOn1PBBwxwzxTbq38SF72HalVEM32HiGHoRVOsbRCkGjtmfmCmwNGF92NkfAGzMUcotjZRYAjX5Z2tvZkxm27Gwd5QcHpk5fqzC7KMkmdoKORS+9gyAdSWYKt5NFJvUC0zxDhOlIK0olIb4tg7QUVPYoOLTc0QhtwM1nMriK/+24mwJqJ6hwuKtvApPAFO1v5xKMVFLlunGM6BWVO2ImVb7KJYg/ovaCAOYfViYGyZ/mBoS+UIrUIFOHqCmiu3L1LR0oJT52p7CAJsBBh3a1ULOQTjGZg+OqAEKu3eRpCWR3N5X0w6Z6hCo9y+kQrn7ZlBY/ctc5JD8KYFy+VkBqx0NCtNage13KLVDw3F9qDAoZoCYwe6Td84iwju+f5ipYuvdxO3QfKFqgCmsI2YGMwy2PwjJfZUWgEIVuHc5S/QnS7zxbAAzwNBVGWCq+GiuHULzBQymaE/HA2jsO5y4y5AjlGQBrctOJxZ/rUHhLrUP55KIMLOk0DCPA/+WLHTjF4Whm/rLZSqRxiFJIX4FEglSwv9nrUk/EBESEgnC8koqh8PpN5CICEmWL4bohwz3zmUmEX4F4jQqJb0ClVe59j3a1rG3VcvJEWo9AMBbUVpQ2R/6Y8DXl4lYijAnyonCqAVxE7ghEQklfzEcdhbD4JOLOUSWwJKE+VBIhJPIK58UGmJKLWL4+nTMlIkbScQliNAIFoREhKUhJim89LP2BdTB4MOUmBILBSnENBoUuAgVSsRMwrdfQOtxENz33WlUyXGlWJbap25yEndledmCwRSDv1zMxCQiDVEpacQpKTQpFJFQbvwCRYWhs6qfXM4iSYRC8xvKq5RX+iBSilBmonzj9pfDFu2xDj6cEykUhCWFhka7FmGRIiGnwvn2C1hPRk1hw3uXY2GS0giXkew3mxvKmVPK139WtP87FkSo07X94KwOmP7QilrYMFPAtj68kCgKhxJEaNTu1Rjk+vdQQLv7M1SFff3BxSDSSPjNDr/5B3rlFJgplRu3v9w3Q6tStXsfxN/WgUcjBCEKSYTz7WcwNe1LRoUp/jLHJRFL5JBHg0WoUI4Sw+KXL0wNXdAPrnqpjk6jgCrMJxkA60ANmCmcE/CiDVNTaMXWB3Mp5Uhp5HtJIolEbnw5BGAK1K6OGqBAxT8+ufl2KimICP3WpEhilrJ04/advw+haoBqi8EMUP3bOzFJLCKSRkMalkZI8o2/W1VAe7JMDUAdmH4yFyQVlpGXlEQ5SV74Yr8CQCeWqWd6qDT1nCSSO7wVhl6pqin8VVsZKNSAiu0P3w4hsciINTHlkG98WaFQAOhyhkIrUAE8/tsnd27evPn2b3Xz5s07d7764d+AQc0qYGotAigMBvv6gznKQjTyKhTywu1fDECtFT2x3xSGCvvkMoXEEkZFQuTw9hdDM6vQimMh6Vz/Y+myVb/pxP5N640CMLQgU8DU1KB/+2CuUMqjkbgs3f7FAIOqaa2AdvZmClODAlAzhdZqeFVqqKjV8BtVUx20+atQADDF1ieXIyUZ7RyK5Bt3nqupDhXQvpgCBjVTGICvP7gQaMRAQmXh5t9hCgXUUHHso8mALHW4djbtwKWdbdoGCgNQAcDMbPDVB2+PaDdu/x0AADVADZ0+AzDDgTJAAUChUAAATGGqMMDaNTMAgAED/OOTmxfCCMOyePPOvxQKNcD60gBQGFQBAAYoBn/74PKI9vbtr17AVE3t1RP0OIhTfY+Fl/F7T2oVW1/dufn2hSzEIiK89PbNO189BwxTTxWP//bJBzffTsIiJMLl7Zs37/zdzBQTQKjA1ld3bl6+8ArEKSy9ffPOV/8yNRw7SXGO+k3M9PsPmEJRAdUffvjqq69++NcLALViaqqqwbZ++NtXX/39h3+hVkwYGQDoP3746quvfvjhhQLVDMdRUlyS3msNvxdVgQoDUA3TVFoBADAAMAAAdLKc1FBRAUArgIrjKtX50m845ru/B1GrBmg1BaAAAECnZAvAFAo1VQCAGgDFxFAFANirD9UArcdRHWB4vefGVL7B70gZtFZM2Q61AoCaGgBUANUmTFUrUFGr4SDpcVT4E/f+/ed34tWgBgCAQjFFpRWoBgBAtd9cUSsmjgwAqlXU46pKdaXvNced34VZf7MqakUFKnSKlhVQMzUFUKsBk6UxfbVCrTD8RjiOioaN1G8yye7vPwwA1IAKw9RVBQCD4mDphImK38gAteOqDdg9zsLc50XPcSJUZoNTkXOPobxoJ0SBnYtNpv5S0jWcFJW9EaTPOdKDE6Kmpu83HPuMvDwpGhSbOaUehxyfnhjFBpFyj40XTopeFKqXRPr81s1wYlTvSW9zYYovT5CiG0ypn1BMmfcUJ0dlczn2dUtc1GE9OYqeT32to+RvT5Ju2K2+1pRi/BknSQ2DuZ4GyrygdqLU6pWehhjzA6v1BGmlttHTyCS7ipOkXzWcKbnkvpFFaF1xolRmuhKIY7+gVAqln3CyVAatFzk1/aJhCXLNTpgCG9qtQtw3yyU/wYnTVwc417c7hcTXTU+a1qpmm9QzWJh+1hOn+wV0gHf69pKsw06aojBD3Z7rWZDF5xUnTxdghg2mWIQ5ixTqLkSRM0fJ+XvFyVRZ1SuUOeWGRajLbZQkMZXyVwxPpqIVNninEDeBqUjp7P9Vz0zrVk+qboUBl5KEnEQkdHVYopQYC68PFSdUZahA1XdjiYGJU3dDTkEyfTysgJ1QDYYBYPbhKUncdPeQgnCTy5cwVJxQ/ZoazBTY/iBGlu6qZC4f7z2G4aTqwIAhzEwVW59cvtBRWPLSjTv7ZqgAoDjpKq3otExxYlz/13/47//6D//xH//xH//xH//xH//xH//xH//xH//xH//xH//xH//xH//xH//xH//xH//xH//xH//xH//xH//xH//xH//xH//xH//xH//xH//xH//xH//xH//xH//xH//xH//xH//xH//xH//xH//xH//xH//xH//xH//xH//xH//xH//xH//xH//xH//xH//xH//xH//xH//9kQcA;fontStyle=1" vertex="1" parent="1">
          <mxGeometry x="54" y="1378.1499999999999" width="145" height="50.95" as="geometry" />
        </mxCell>
        <mxCell id="35QQ6GFylacjN5FKlyGc-27" value="" style="shape=image;verticalLabelPosition=bottom;labelBackgroundColor=default;verticalAlign=top;aspect=fixed;imageAspect=0;image=data:image/webp,UklGRvhKAABXRUJQVlA4TOtKAAAvp8EiACrOEwA+kyNL+f//jp36fr/fl5llVCXv1VLLtWzJlEzJe+9KVZX5/X6/g77JztZopFrvd2v95lqa0yzCNV5rTsJPw0nY16ETHhTCf7EWD4kHXeahW0cI14EV/oXw8+xE7YmKxnsqGp944SYi8RPC90l4WL9a2+iGhw6diOzBNZ7EQ+KFp/BwasI3fgJPL04Ufv0qhHuJ7zfYl3gST+EmVpcxtybmVPiOPnX0nArhXnS8U+H5eCfhofCcJqJuHQjX8U7CQ+H1sJKwOWsnGp94PnzhIfHCdURj1+80vvAdddroh6sQ/ou1ivUZeG8KOxR2ok/Cgx5WfXrkCbN+ha3QifjwhefDCzsRdWq8EbbwI/w0tiPxM7cOYTPWTkgQwDZum/+/dmssEuAB0B7/f4qcZn+V3O7o7kly8UCCE1wKD+5VoHi9eKkiD6niUi/uFlxKkSru7lBKg3tcL3e7O/Ob6f8E0NMv+K1Ukp4kp8kpaknlUGsqoKvoaiJFrKxUilrhA8M5yS6foGtD3sqhlTveF1NVwW2UWNLRtBVdSU6K9BQxSMRapQbBTK0Vu5zGJ3FW+FSYWgSwlUpPbLDnE3lkJeeqKXN7xP4dP1NboG9sNEBJAVlkN2o5Q3r27BH6a+rdN1zUj6W4kWSBDuTSgwA2OJ3kwKUqaf0qlaQrBNVuFtwufJVTN2+Qfu1Uk5qwSx1msfAjmJAmAwpAYWAYXJvBb6Ap+3Ttr4bMrqR5iBXFJ51E+twsRwW1ClfRdcNpfHK5qvq8AYNjyXo2do73mYVt+q06kR0ZKehZkIQhAonZJCgRbAwXg0YImE2KQK5nk0W9cEO2alejEyt30v6bolLimIMIfFWq4jen8Sm2GjrKoIrJ88+w3tV1J7dgnyhkwGJgKGgCisA2GRJQ1lfFFGPagsAw8RZmMDMGKMyQ1tYy4CiIJqy4zm7dAxL6p1E6Nc3POEXJSNrgdslpfdzFpvjWgFnXoT5qVF0jmaV5BIYBmgFaIOh2CAITQTAAvgClCZPOz5sPQdfBtN5RENGord0LyOdpH6+LRs3wcvxOHqH901UobBXSyrJUfNojSeQEd4Ctw+XeGkfVemIdEKmEYSNJfjLWRxM4p/m8GJPNNAizJJAGIg6esmxSBK7tcL1q1hEfD5mdUzYv1WXceX7VXe7y4IMNVS43HUUXXNypNCpVFV3EMqtSqagQJBeRtEnW1Kua4H+G7Y6undOkekVWHQBb+2ejj14DiJlkENYphAKBoKD4tQBIA39dNm877/WbBWP7SPI+wyd8bjKajBLwKacrYM4+NY1KUrwbHBXryQqfKgpkVY060df7z7IOHFN/2kUhXQOGyP5u+GE2jOtXrIDAKPEpBIlAIvgQGxgmAbBWwyLaCcWxXqse2s0/jNmzepfZ6Mhya0Axly+i0mlUfoVaW81Y2kwNbizQqzxJt/+rHjOrGbvrMhHBr0kmZIAiB0ChM/cCsC2wKKIJ03cKwcQAmCkMmq5AMNjEIMiLXYiSaAKzFazXz3fcT4dox1TdSu2SGmJRvoyzrkyjcilms52cZzOoYtJc618bO82EZt0jMpI1j6E0EWgOfLw0BJO9fNCcaQyJ8w4ffkfv6BSCQa5HZcDCICn6MITxVcGyauexQdhHb4eFtExoiE7t5v3+XDtuz6SqjLZaSuWlUXnNZq/BZdPqXl8tbYv3GqCFttNgBr8fQAqAUJEtZx9AzzwEGsNGkBSmDckzahFRac4pdAFKgsL4XBhazFBQJiKDxS+++HAeICn+Em5HtCOZGFfZLXtAghZN9BXsSBrSndvwAVWsIrDU5rIVuVJdNkV3hve+7pzamJ10CARnlbfvhUWDmgjXnxZd5qshu3vy3tRvKbEXcNDVZqsLj0rjoSPMSwIOIrHSJ6U6Ml4XBvaGk3psY3bVIQ0O/iIZ8FlGBiRb+/evYT//BVGZ3iA7dezxA3v9BF03OJJVk34GOZnGE/B4qDWx4hzjVDV2LyTsojb1Rv1oFJkJLx+CX8IG+gxRmLOMNcdyrmHLYGGgYGzGwYoDxXVIqZvNT8Rb/WbRRP1jcAyfLEjjwZbpdL3c1IsM5c7m1U+X6WwiliagHbEBUCy0YEHOk2cZt0Ogst/79wYgd1nzMHpkMVMWaAOUfTgKaW3qrZGzF5eXxiMaTvv+QGyR5PvD9Xv3nt6yX4nN9McwjVAyNujBy1eDprMMVBymWXvB31IcQh9iv7i/G2SATRLL+i27b8+dPdz7kvyUtEjjqVBd1OrcijDn6HQXjNG5XvtdC7wajTQWgYVlbFLNI7MGCBwMfoIgEQvf7Zeg9LHBEDg7dlQlt6iXemrB+D2brMd4Ytl+X5pNWN2MT21TFWPVib7RF0va4s163ULLZDbp2VchkoULIdCKd7Rl7VXrAK2yYC1Icmwm2l17ERt43WEAVAZIAX23McVXHAdFVsNHdJFQD61aY2jvnDvJeZxd0oqeTtsNq15qr+gIFRijmMk5qS4cq7P9tKJDjYqrhpoXhIEBMQS++jFnXlO67jBMjEBCiw8FZ2IU1t+dA4bAJoj4jYBkMJgmkeaZ7I+thUVQoHpf/bYc1UsrxvW56VfISZB1fiJHGo/oxAZ6rjMgGyVWCSKW0FflZN8ZqK0dZ0w9NtUhSZMcFHof2Mfe7BYWmIVRenwhIq2diVAaCOZpcNAHC8tEDyEy0NbvDWGzFV8HDVpzaN9dPUm3n+rZRG9VQHWm8SzKylpkXiIZpeKB9VlE4CxxFE68+wNve6ed0qS7RLFWaB0KNh8FZkER2OLgzHzbOZ8E+zB6GIZ925ooJDZCmw74sL/WTN3/DBeTwllEQqUny+lARVYaT+GjLdkVdIFaG+VXyQKWslXsvJOuLMLyDK6YNLdG9u89+osG214z4b8fReDvZkFgmsEbZ6Iz32xE20yjg2yGYtG83YwesOsm7uXXjE9We8kJapW1R3a5JBGfPFmqmrYy+W70fctG9t5p98jg0n2qolitVkVRZNkatqlZO32eSolYi6q5nNtYsgpG39H4mt1kO8dkHW3aLMzgO4JJgsFQsDQYDJaWlubNEOIJhYLBUF4eIMnhyYPEpaEnIVi6SaxfTU/Ch4N2yzTdN1wld1Ki0tTKaxXyz3AWZhOrLLqy4q5ZFUVU8cmnmjaPDYqlrUzY89GoFZnJjdilS08eVnsmzy39VbmLLNVuUa1Kzz6a7nZ6qYRirJzi4jE+2WO+a9n96lbDbwkl27EgtOuyy4OwKSRaftk1DMnCa0DgdTyvD5AhGCwIggVJIc3i156DgHac82avRWWyz4rKjEbs3Kk+HdKbpyqPs4MPFKNFUZJseKTkCleQ1YGAY48Fn5usojF7ut+sasM3GqDDeF2tSlOZsNejUReVD8AEFYjOrCbRtWtNGrZ7ku6hnTspuFwbAtnWwPoiYuU0SsmnUtyK6X46xscSemmLGhCLemwboMx3hNI6/EHAsGCytZBI8wz2mZffftUr41mHQB8LijwHevQJbGAULAMVuQKmuVyT4fpo07n+P3h3TNZN/ZaREXTUenKubJTTm5Xls9sKwtl4tdliuXDsnUuYH1tHv7huoGVoua5Tx/oCtUpTmaArUcxk03fRS3zMLlQ2y/i6bNYpxw+bHVN9O+UqOUlSmg6QjWELW6FbkIyzK6q6Ebta7/LJe6t/r23bb9erJu85ogVgIPpW5/zeTFo7boJBf29QnCcUBMTHQGFEjEAZMKbJF3k8GqmN2KHLTPqvpusJVqwgoArmSp9xG7zU+gabiq0Kb+AMqVc11Q9Ha288ZzRhD11maBBkg74PZ8OPRn7h8X1maZrKRF2MZi0U9PhXxZAC4jyQ+KLLWQYavHYn1ccDtXHiXdG7EkvR9UrM5MBrNk71bnAtw6scVEBHP8tEXxswqzrmmMavs46pEbCKEQloCspkgF/+fphxPJC4FgXdUco0YxpfEcPazdCrG74euX8k+TFnUUlOOU6l41KJAm/ArBgtSfhUpa3kyzW4crKuD9aWLjWx2dddW/EIBBVal5PxYm+FbWm71jhdWJmmMmEvRSOTfYh9tJT9zH/tjVxx4yWbLnqtUZncsFp15IcDJzdJTwzyiPRWKlc0jq6uIatqSrYWULvEbgkdRUYku3ySrg/ajR17XAO2ZH+Y/bGX8aswtCH4ZTwZm5ixvqpaXYYasWMXfTHce6fovsHRbLwybPPZtxkM3Em7S7TLRp0RrhAMrp6mZ4mzouN82Gj+F1npKP1lOQg+FnGXMGS3wmZwfGwYUUwbr/OXpqlM9KXoyrwNFo1YdAySM0mZJNezbT4UEN0IxgKwYFqI/pjMbD1v9d81k3QtRcWcPWqtKFarNIMgbwj7PRKxoqsrFI/HI1ILYjCcSL6SETrUaT5vHN2/e5YWIkdgIUByLK8UgWoYH1P1mrJ3d0wfvxf1W0HkbsgqscrSNik/v8pd4cjyyrKsKIqkyLKicBdJ3oJfru/MP6H6/5psBVDaMHkOLAJhQrDa4NkwyANg4DIApkPaeF2k0rNtsqIoVsEqy8Z5ZWuVfPJkWQhbrYIsy4oiK4oim06QrHJY4JMKFcEsn6yJuhxdWXkw2FWhUNDY18oWQknroXk7juk7S7JTXBLA0tgwV66UwlkqtvQRgSi6FGOF85P0cFj9Fl/TWtbLMch6WlAcjhmMyUYta2B8Txs5B5KV78MCWTFWDthFMWyp8opqfpEQxieS/Gj0HOxZM1vj9Vg2ZMq8ZlPQaARyEBSNZOpLlmbbyiXRp2JJm69KJdJE0qVSKbfZtdItbKAGG7euXxJ8TqMEC7FTWF1R4VbtV26syvdKikU2WQk+KOEOHo0lZF588qifjmdYqJ4J2B9BiSNoMEMg/Tom1UPLE+atvl6SdHcKllFHA9l0FbE2E3kBSc4vN0pS3bYLk3RvzB7uNXOa/jo2j27/25g5laTH791WuppKOyWj6HhkpVRZRNujo5YWVYpZnJRekbF1riunNmX3uMxEy2+88fRiEHgOQtznoAsrt7mqwhWLqKtpQ2FlZSFttYhaW2WJO+1xrXRQK5dRTu5U+p6jr5yMe8Yqw2nuwB6wWWVZVUxusPZXHCVURSLvPo9ZJdbumeCy0rMvQEHQM2AZl83TRVILvNJ7Zk/o6185vuiVO6tuKBTD1kKjNtCLYQNn4E7gA721n65zZyUx7FHxiQ1es9koFzWQEa/czB1YfWekXMkkXxxc2zrs6LhssgYS7dp/wc9x6GaU6LI5CCJd9WjVQidmUdVUx6be0wm6Md6XxuzJUbv/GcfsiT9o0v4zzY/1jpSXp6sW1Wml4xklrPyC7sOdyLRZ5hJD+AYqTaypdXiDJJksnba30V/Jnee22dwVJaR1wFXpN88EoNjTFu/OAc1vBkle2fy9oANx1bTlDOqxP47pkylbaKm0rQ8rHqOEkiNLb7DZrAH3DfY76XphNRAWjKoOeJwu9W+aoIsDe3k7Dq/fbbWVDsOPHmUTr74KgcHEZ4HBYMjeTXMQ1rmiE1sQS06RcXO+b6/oMONadp/GX5s6bByZKfe858cZw+xGf+1asu971n9yJ+41vC6WuBSPwic3LjWKLuCWk5U3sHL7zZp+u75/rRo4q//BZ+1fqwfN7qmXt8FMBTtF031ZmM5YnUucdYmztq/X99fafrvmQ1u6dIA2GlROS+bKTnUmOIzIrmfDxz7fE/6INTffd/XLL2Vh6RCMjbqtYkCv/nb8XtI7f1/RnyUYpZjDWVlEarMnf2OB5OcODKc8Yr7XqEp1vcGR8T7bv1a2msF1s4XuS/1iUPAnoaSwEEMzghSWzZCwP+OetyNiCLx/DsKFpWm5ZN0kl4yoPa26fx000iAIGsElTOFHQiBQ5NjqRz4ZDkGNtBmqx+Yn7JDROpW65YTKLWJJo6jVNOe3/g3WRiiSfh2StZmsQ7ouk6MQjoxwTGT2rDmcKyW1XDbd5im+2oqvahiKZJCt5N93xijUTMilpCDdwhnWzwRsmvtBoqd92sN7AdmWq+Yjsl0RwEwRQLL404h84abo3pXTRs2BaXufk2NVZEFQ5BmEEsnjoufdeWlN4Q3p5YGtDlkl1kpYViRJliWRu9hU3xmpP3rMtOZ8UYf0VweTPhK2Dw3a/picUpZoBQqyg2n6tBkI7Pf+Be5WBKVQVWsE0SpIfJJVkcOiqjoEhylkuVBUZMEjiapJPFavKyDwhaVC2avIM8iCInkkSbLKsuCWBVVQVJNJqlURXCpdJ2ULhuzWBtGBId67RhP4Y0LB1gJiCIrCOicEiFbXXv7gNSApC7tlDRqtv/Sq8EtqviAIHh7Hbx37qxex9uqbQo97MkN8Zm37HJuiIrNSHlBM7h2vc3FoA4ZBmGxyQJIHSYvXrjih+3OrsT23a+tMYEr4jBxIHhM1W8bL72Sk9k+7h/hkQLU5Jced+SqVTK8uxwZJmdFmC/vwAbZYVkXtVhFp0Rn4iabowWDt7tyfN8XLMS+LDYqGMOS7gqfwTCTssdBxsCUeiRvcFbYjhXyOLCoVoC3mWtKxPIMkKVlpgnxsSSk4e1iw8YPfXLD+K7FTK1PQlW7uwE1XUWseUs5mvIp0zLc+gE9Md/6YOTFoNifMos7zeeee1LkmdaspCftjoleP1KHJe9Nw7pKAJf8dPCWXW+kzmZm0xCvwQg1e+ZTJc7Mj3o9GxgGUNMi79vDP8XMcXhvkBcAPjHvZCfXD9+x/GLFLR80l4/ApU3Q7ujP37i3NCc7YvkfpXUalZFkVTCaP07l6bFkLyUJB3hN6qKJYvcrdxMGX//ruAdtAbUVnWuPu/NmP7kMpLjLYUYm1nxqoAI/iDAWkXYfKZ64MiPY7sAU+mLsMW3JdPW0fDt5fO9ZHDdBel2maYJc/EpZxfwj7j6idVTjVSb6WoPkJtSxhFib00jF36bv4s8goFx917Gk++HcLj07W096zJqEWv+iB3pGiCqcJpFVE3mif7cv5ffbnPjWvX88ftrvn0laZXhPg9Ybxt6+1987rU4vHz2UXj0GStourmkhuTVJhonLb5Xv1skmUamsnQwM/LGvtwZu1EfwlPv84NGqWPbvN1NF7Rt8RC2eoqXbPNRlZT7Vn/wunjteZBn+t2WKAPhjoew3xwMS1LPGfULuAbzX6EPy4LpPacexHTkqsx5Kr3LT13acDezN2HEcZQGDrVmsQaMA2XTVu6O6edDf0FwlLns3p4hKBruQpL3nYVtVSguUk68nP1neXtZkhsV2HTbYfkUKwqxkGQfnno6SIHBJDkFmF+6/o0jko4kFYzBDNH+lYYw0dJRbkhMKv4oMvy7Wxc06GRUCgJ9Rl/bF7jJ5nAqXwfz+xh6O0r2VEQBoN2SvJ+SWbqbUJ9FdSr1qXfaMofA2rQ+qV8lTjAd/YPR8f0+J+Na/+zGpRmjCMNTkA6ExUuHjvlgjYB1DEaV64+fYb0Jv+S2y5+XzJZIVz039Pg52h2lWX2QxDLwc9tokZmscTKr722uIQXxDAZoZD+rQ/q3W9Oc0P/oXNNZvJ6rtPQVAsohlTNIiSXHHFK0NJYXCU/igkNa7OneuLwb19iu9ge3toQRF3EKareESPwaraP/3KR+tEQi1sVUPrTraG/gccC6JAn9lZD0Wg92YfuudipqziWUX+lLnZMDuvZdMIMoPrV+vxc4lc9QaRT5SINV3vSPv+6MEM/GxghMDA2Vhoip1TJ6/eawEZOAcQl9apBiP60BfkNJtg8ty76i2jj2lo1J1WKVfMQ1umTknirKibrXZlhEKhIAy8vDS4mwFlilzxXLDQu86GueY0XYVbRf9xOEnGSxdMtqrkh/2qR+pY3WoKi5aCMI5pfhSQ8L3Z4rPOKn6zPKEPAjT7A7ajoJoJnFSfJW8hWcCWPtfdpzUoDRa+f+3gPfe/IybYZSwM+MPws89h0x8ZaQ2qXQe/P1g7UpRPRhFpr5XH9f7lTrmbPXpW8+wWg0y2ExE5KHoX0huvQSSQ/GyYHD0bPXT7wgMwjctKZxXcQeKsZjsJFIGocV8AxGaod8/l7OJVlXyLOAOxvtQ/xLvyIsq6FyizY3+qv6gphOHaj8r/2DM/dVA+tliv+nljpdUEiVyCyvh4UWMm4jp3DncxnmQXd+NUzYQZMEQeMXR76f3ZSohkWmRm1GG9mKxb59WOfXXrRFb0y4j8gqiDzNJjexng54JD66L5QOYaFDGbbIOLyPmPY9n42ytevhv9fGzQx5byhNi0dC94WJNWiCd4sPTYIdR+kL5IJPbtFcRRctJ56d2nsoyMsluf+rLSvNWP/VWuYej7Au8Lgnyvmpc+eLeVW9NlHk8uoRi6v0SiNhizLHiQTbwLge64eTcgBjRX54GiEaQMaXBX6G5PkK2iKnCOtURvQAMmO/5JaAIXN+teKVN85M/io9ISkV6ZntJFMZkGkrCPbaqPFqnOl9ySIHiNUld2nZzbUNi7NX8hgEDtCRycss9yBaOskley4hOtut/FAP4tWiYM6i12iUqKVsOVdZrxmrD/NRYIATGNn70uG7frYX1m6Wgdnjp5VGCVuHOm+/G4OfehdcxPGlU7bYaPH0I/g/0oSKadlF79zfNkC17JawqRyJ2uxydyyM9xNfoIHPti2Ixpfh0bGIBlgOIs7Hpo0Qavd96J8ffDR995J52IN+pW9tsC4KWbah8Kiz0KBmEDoSKro17mRN2g7dGBVXefTFiK4B+inYJYyKcUikNmV1TVBDBh0uDMPlO4dxZiORbHpL2m+8XvhWDwkRWvtViD4BifJqPxAR+v4apOYP9zECz2w4/7sqX1niy1yihqTew1ZvvX+r3moKRnMeBxaDh5/7VIRtHV4nlO2zQ9jKumX+bNdymrPpqOn/MbpD33wZaJXP22Dr9WhlZZ1P/E7jtjzJ4wdMTmciszyi7unIm61n+WNmdPJu2zNqFgzJK4X90hvfsLwiN9BS5TuLh1+vTq6EwFRJeh5CAJSHyoGJI/MYII0oz5Mrv3jHF7PFVlmVZrZqoqRvlk956q+1JQUfDQXxXkDQHQDhyPp3rlHBUdjc8xk3Fs+Lyf+hsNwmewkVDGlHUWeKRjT3w3rzQqs88sRAhFNGMfOdC7f6zw+unCNqtR5qn+LzKS/olHnAYTB+997yHaJSpGF4ouaklXDukdfypofpip4IkckHolLps7/ZXUqVZ/BgyueQYL1hhtR81e/VTt4SjtmRU81PrdfAe0FF4xxbe79dcaJC9/iSsW1neHCXvZvfVp1MKToypK/iTdrJcd9u5GRLVM4IULF+yHMFgEmkTPyTytVwwviGar1Sz+L/ouH7NHYqMem5QB5YHAoFFGZNYdOYc5w5VzVC4i4Z/7xn8DMNbBsxpnh+Z4+eUsWBEbjabpVsAoZUyfiKnaQPTeMMzm/eqjzWrJErdR1n69FEUAEjOwtEiIrfqQBvviQu13TKFkXKan5MJuM4XNwL8BmmkY6MXZvoCflJeiSOf6/0OYJk98rQ2z47i+hCVVYi/w6WDLD55H5E5cSkeILr0qE7msDuqCRB8ThPmgLj2Zm2q8cqPv5Kiqoihd+PlloA0EtiB4HJEvrtXALGte/SfPnSPcSs5SMguCWQpXY4mh83s9NAaD+ADIQZasQ43Tq5wY5qQ8+e9fBbZMnDU6JKLGCBRWsAemDcRaHeKvg2OwmdCv5uED45L6QbPqdhoKgtKMmYZTfQtbq1SAT2YZFW7fw1FS9rF7NcOLHfajvRcBWHHMxutQK6PkDZJ5ugta7tAM1CZDHBnhUXPIQhc8dJzJuteAz7N/FDwM2kLhH9zbSLuXSo5Lc6VFPDKWCFjxSWp4ZsOWx+8cFIxNBh8ri0XdKbolYsM78J6MGadfYexXC5UvAkwTCCZ/RxAEJMlgwW6O/WU967/IWTxnruItL/cq2N5c/UlDR+PrOxYhniCb/EkXNai2k+u6NCdltxFB+nQ9bdV94SMXb49kvWl6kLL59dHhHFAItt2yXnqPjcMb61JffD4Zx3SVNEC5L9fu8juMmqS8Bt0W0EDph10jAYsH7C9RkYGATtPAP8Yn3UYpXrXyQ4hD/e27AHG9aqV3RZiuwobykXuYTQTT+oUjirTkK5yiWw0nDIZVnvAGkUdRK8gIAVtgy+pkFzVBNwALFLt4e4LnU3uB98968tRemssmByQgbfT5yp7jAIKpIfm7NRke0lvuQ0atPDI3oEqSGhAoPW6Bdix5nzZEWz4Izqb5WjTPGjwbrHNSG7b9RntGztGoTEWgZz6ozQzDAizZeb9kaQKye0Sj9og6oBKpAnNY5ksf2L9EMTnIkGiCd5qJ3EZ9flslj0wFVpskDdtdkUw+jYEdmqybE3WzQTS7HqZxoOd+J0mFkkOUeSRzOl4YNBu0wfLgs/a379FEOnNjTW5CL2CBwKK8T7bv/IQt0zkBXc+qCIqLL5xf5ZDcv6zBcsDkshVASa9a26x7Pvq9C6hGeR2itSB5i5r1KyBYDiI7DogY8mOw0D3gj7TsV1OuwG/G54WphCJJkqSoFiyNLbCdnpgbWsuAoKAoMSiSsYAp41EdZlT2nJQUoOtiQ6ea9JaPs8k0YQ3dP+5wjdUp3UeZojAZJIqfGUcsxK650MJX8MN//hFkKCmbuEX1SdIjMoAtcz18K21kpVrVa75ZgZIdrvvqc3b0rm5VA67dcf/WeMPgiJrr3Ory8sgeH2mv43wyb8s6NtDg3iqc56oko7vsVzBQ3jr2keG7M1u0KSc/XHB00t5ojPaaf+TH+SBiq8kU3feLXqNcW53qxtF1LJYNIciMu3ddgcAiI9RfqzIVY8WAtRJfbNJc0YS1BXUAFoOBEDEgZhgEhfPqZ2t1zupIsiuivgTQ7DO/vOn2mj6Pq/HoVJW3RD8ExhT5E2KjTrKfULvp5neLjMfn2tjy9QPL2Y/Bpj/gmDoRti+SeRSzlVru/DGa4kWUfkgOi3TZHO6ktY9XRxAhUKZ4fTQbPxeovKpFbo/CWy5SSW4jdf7Xv3gt06hOZk3RPbclwK2SOs/Ew/POZolGz+GtAdEEopOONKiiLYeVMUMjaEcycfQc/QOzzEZVEitseQaWl1A/s2HzIBL24S0wecPuMOnyFKO9BeHsyhSXNOnOgD74kYeixBnwxUEwDUNRbNjkr4N/TkrOXtafy+91+gEW/viZxcnJxVKcRN9ZookgQ/OegHjQrD/XeXTJej5sWN+3F94GPwbbhEX7cXlAFQQ+iUoLVDDRl7VM/3xO0yA4ZHdjA1052Te3ZDCLIl9CYq9fL20V7krY6Z6sq+jDp8NnwsXvV4pL6Sqbut7ZpXKeHYW58NjIPUpHkwVTKNjqhy3oWjMQ4yEsWIHIDg3oLZzgZMj+AldKFbfd4St4cp6EyFGydjPK4KhxUsDizn6WTpWz+I3cZfm962x2qxnYFTn9sGLsnEy6Z3RgTqrylpSraMW+mqCLn/YLH60j+MCHLfDJcTpbt5ppPrKcKbtlDOJctSSXnHTxhdN/Ps0XvBm1wbR5IobpHatxK7zUSq0wmwdoHdMMJUX01UPTCX1l5yI8kTg2Q4kjOu7qTjvB4Oq5brGSWvMoZvMXCMr8zBEMmP6e/I5zhLYOq3SBs4rv7wH5moPP3k+52bZyE1izqWJqn52reQyND9CIzGC/WZd6cK5i9IaaailJ9xpMh9N5Fq4JaZL3ncVbZaMqJdUXDoyaw/WifSO277SfDemdY+9S0j3CrqZUpKTeyjon5codpj2RUyuYwdBui7fxRPWrsKGg3HCxDv0x+lHQHCWOrsyR+muuSiVEHpmut+TtvdXS1xeKZkaKi9NLXDxUei4VSM4T+caBhQiobQ/Xq/wMz5GuOxUUYj+KSBpMq6l6cMSeeVfoKZVTdYt+DRKjJBdHs/Go2r/x3ID/jWa/xlBoOUjebHoartrlNkE2WYXPwxKj92g3TD7JX3eqz/vlvJStCtBy7Ua56ChL7gT9p42kNTyaYKDQZx7JpIm6IStG7xQlu70Sn6ByaXmcpK86yyCpP40PCmxzUoFURV793jNREjbpsP2dloMNdstW3+DdqWXSlwlhvtku9SW3lb+R386j4JXLsGPd56vXuvCc2jE+g+3WWPhs2JCdotJ6mX3OfC38vfhzuKCwetjuYTMeBWOAdBEatSef2WW/K6Jvim7GdTMWdF1Gk+qVtHlOulrddiR3gi7HZCYAh8BM8kgEh84vWC4dlS9Q6WyFWlplWVKsioRPi14HNXjIaixpd3p20lUBs2SUtFRIH659u/iugzBg4X9F74ho3AZRUhRJ9HoVwRq+UKlyu+aQVFVRFNeUulM/2wKgIEgcF02eKR0b7HiVhYyb7OK60aQYJPkgGqHTy7MUZPIFzvUO2c2RSA4BYph2d860O7fyCAEnXRi1JyIZ/jlCMUwd3YddQkCYtFfqs9WXk4OC9tK8C9PxSY/Ca73yo/1bUZCrwPCT+MFn4rEFKo8Qealb2q7efWW/PpsYvhp1s+UQ/8q1w51HVzj8btqqUqpSJTXs9EiyWzG1VOH1DNCqxwV5tzy4tFF0dEnGmX7OR1EU1TOglrBJ2Wffpe3D3XZqZeWydLHGLfToaWueGDGUTWtAbzRY4BX4JF95hTjZ/zXcjp85ovGOmnyd9RebW8Uj3+Eg63XjdJZ2kKG/IdvqVSqZzZJ+y9vt8PcxyIA2jm5YsX1CucxTSLayG6eWHj/z1Q2qHcsELLD4nzl962gdi6tGDOnP8W9oQKIyLX5nTOm7hnN+o3R87h1UwuEIe8PuQECRJJN5yKp8Trp7zmQC8YVgkj+0rUZKapqAoiiyjE82rk6ACP1YxNIYZo7RwSJOQFZvldTNjvE+p83Q5cwYZa3Qj5N3g42vyir+9K3rnX8j+PHGsv74vYrXs/Io+UtTtrDV9GeKAZBjHfjhUnxwqeRd2nt/ZsPPgjBNI5E2de9aPG5qxSMn19OWM+DxgDYiiY7EafuoImCx2bhz9oiGi/au75kOMEVhGChskIF1Tar77z7el8/HFliSClzEsiBceAO1FrwB00l0VabYZSaU8UGwhVs69SeiOa3A6x1zp14pM5x9CITVZgenzFMHPhnwSZncyVNTnP+NX3WADUuLwFTlXYhX84XNLkdvLtCQweSgkbbCfbkcH1ArHkmiq5+17jSJIFkXkebQ2bl0Ll1XpOfWjNpjsV+debeyGz+gcwOVNyi8ngl9qQ7r38akf2Grrze2uNTpMwcMB9hKqtRPcRdO0gVmWePLRJ/5D0MibYSjq977nMCfJsz5FJemXsRwHj6xkwpEhVjJ+T6TqXQVOQ8LWuVgBoTvuhCkER+fBWxpA6o3H6/ToT/SvMCNGvh0UXPgricS9soCV8BncZJ2E2sVYrgYJrq1a39N17Pw0QWyUhYm3n9RmYKSvWU4Zocaq1c5n5UasGT/XfPyD3zqkZX6H1voanxALfPfvxRXtMBL3x1IC9Jq3yM4xfJVvlWDZz0bGAItLO1bi8X12IJaU4GKLdcv4uThUamuSODcOmwCyr+Ajbi9EHh5MAcljmJis3khfqYO7o2j59ikzUtV8fOaJcVrMoWuwnaqWtQLsFgGz2O25PTrpdVpAoVSvvywP7tRtUePhCBrNMxOU3VbcSleUViKBViCNEzoq/Wrzeo1j2iA9r+Jj0cm9vaoWNKgaIPXFoYJw4IwG233KZ1n5VHogqGrT9pxDDEiuv4E9tW7Gh+4N+cv8ZFVXTvntbJJr2usbtP2HmeoliTfBknytK9Rr/Xf2KGLwHidFc12ah2WZIdQpfoNExnho82rvzb9sA1AjhKjJIgMEd+L/dC8q1DGx6BhY/Zoi2Hd+OWQ3v3ln+8Iu+lqUSAL+CBflNxbjfIKPnfT7Vkc5GXD/Fw3DdImiyUtQMnGB3S89L61RvuSAAlKDMd4O1+DwnsuPllVoN+q9jkGwYZlrNMiObE2WGdQZfseG1lh67Q5nxkEf626qjUWB/N5RGxI3qIGaA0KoeQLe/d33AkrtaDWsqtq6SgdgsUzDn7vI2rv5nJZLCgUw/eJZZNdDCgCatydk/xYMfaX3cZZTFfRMO1tjXeiO+19hB+BaYAirwWUxRAxNPLm71+s/XgkA9Fbr1n1S6ifJuifz5azFEUitefoVixYRK2MyleJgUg30yuQmG8e035E0n9Wu93UOg1AwgdLcj/ylv0SSP+KR8L2T9irKp85nQ5gQ2D4/KGN0BsBj6Oiberd5CtSVEVRVA8R0JaFy0boCPv8bwtm3N7e/G4nj2IfrXPso+xnMGA/4Ig5GCj/sKi1SCXtthRHoqrexahMFLxXfcvJTQ9gq/zNYbrOS2ZI2ETw0e/zpJ1ssGMUPkFHUIo/saZwsm8NrDUdMKrRdI+eeigYfESTiAUKMcXAkrUQ7LodN7EPR77EE/jm8NqTvE+xPW5FrgUvXFgoGeemhtwWNRikwXc7A17aHbNtgpIGIGzMrh4353RMeC9R+P7+xt0Fl+vmkyy0ofLLTXV5/WySw8ACietEnXFzRpYVRVFEGy2FD9Kn9v26aPyjojAvbtp9fDwCXdVjZu590oGm3W2K7uT6zitRbWI251jbegu0cdXTturXUqeUk0z3W0VHoLfnvcTg4kj6E3sTtTbKhyU4Kft5WarX4MgU5Y3q/YlY3XHGNUXPqJfEJq6FQebD5vc/HQ1lGn9V12mZccKOGj2nq/F63EnDqXOppGiUt4KuDHSYD/fP57nq7NouO5FYpQmEHWRlzUk1PgMMvUkTgQGzhi5kWflq6OqwLbunvoM0YGBmiOYX16O+zffKqqIEfIX2N/MHdJwxEWPCCABwFgn6q+QJc+s2m57FfwssuyM+/vgsokTHkyR6ruX8l/Wl7D1Th4x3W82SnIuO6s9pMQPRn3HFkxu85hPqgmCUy77E7/NXkNFLbSJnabiqFJUm6clYn07QvNYxpH5kxyBDiwT0+V/KzUEIH2z8jcS+Bv29MHXKSQG2tBz1GiVVOAJdaypIFOTNQUnnt9Pb2BBOCxCwpT3pHsS+Orv3ItAGaDdp/zuDyOXzrnI5NgT+whhmwGeA5vPi0ISbWLlXVcxE6kqxKmCw7LcrEINvuRSFb9j+xSNPuH/rdH1YNfZGveQBs+6omO8hAy4VH2CLW8bowl8Gm6BHDyTulvt5XSIdDwsm1pV/XfNnQvKX0/q9YXC1bNSirH1ZKjY4C8i6RDI/U/QFKs1evSvHzemEmdd2R9eblmWgGAqaEURJ389eM1c/lUdyb7EatYqsKvL3qrkgyW6eW5/4Wpuht1+Y/bIqQ7Q9smplBGct+Zwht48W6NKGyRDY/TszRz9Rw0k8biGPLHkFr5wyRW04CDHuaWuPjdR+m+i70mX1yoIojdkj9VgXNvsADnac8eZCKggv8gycTZoOI+IHx726U/ZftyRLVpcqudKnK781X2fadwEqckK/eWqVy52OrQbVlshMWx5k29+D36crvF7RpUj5Ac6SSBFpfJAuVWUVKqIiCNTaqkhy2ODy8Trfq+Y1+rVEGbia/RBM/5mRyOzvDa/mS1pqN+qMouz7DK9tEGgvDywyLyMGjQ1WPtkE3iuXLsErLrRKSjoxbJ0dUZQh2hpZNdcBklmLlJ60T5uzLwpU/C1pO9ASr3R7OZ12Uuf5f5fO6dKTjO1cXzSabmhsJonmoT+5Xb7PuTJAHPOpCm/yFbSslyPIFzDJmqDbuxMw49Plekc7vXGIbC8qqzlewucoMwoORXKRi3WrGewLHGBI67Jpios3+MNmTpFuNRmF/7Rz2C8w3hcK+MxOp99LR5D1NpoDLnJKMV5VveWcolN1K57T2Eq89m1tB7AbfK3H6yopaWjhMsouWMon6MorzeEJHs/TMnmq7mcpJqw5klol3Ml0LEUW9tECsopYrZo9GaytP9O6vFmLufx/iGT6WZA+pghLBNOad6xsS7GxW05/I+hnaX4EfWbd1+gtVZER28w8UmXXnvq2/v6z6kTdUXPQYE/lTvum9q0m6JLHEEXQ6jk/izxyWJEk1/D989uBjCuLfEnDd699LrbMnt73W+CFB8LBT1v3a3znRr70o//NpXbRIHW/MDnhWXIyFEX2WmoMG+2zi+pkvQgwZsnj32xXTOa6Gh84jRKrqJQwUfdiqsnT8qx4R3matIfM1ltMkbJlH95J9Um/Wji2Die7bBWWZ+Msb3HOllgH7RYd0y45bRbDTaRTj98OmqEgLBDKGrDRD80EveeuhcaixAAmAJrPEDMbxyLQc35aiSU9c3kUy+vWFoUwUPs0Ee5bi7gTl2bTlaPrYAxrMk0vYoJP0Dk7n09VFGn6Pa2Ppp968cuP7+mZ+f6iSXspJmujxBFDEIyO/GDpuRIPMSSpsKtmnIB+LXdgK7w22hfpyEBBdvbJUlQRWzyLYari+1vdx9l8jil6STP0mKL/sDzJKJe7pPA9bjF91vIcC+7+h7v2RL8pJvhSA7REg1H766FZs+rTo2eO0wmL/3nezdkSYdBunuVsmOq8T/WNPHAXCjsiLQAUhE1r14WMBWkh+gAxImWDv5C7FGmMbl+tD69UeQQ6sZSL1Pmy1pyNkrTrYSkuoSXcT+m1cy+JGMqCNsT/UvaRzKMoqqwo+FQ7DM8LwbRb9ivJzn8av5i4q0HY80/XhjVkf6cCi8xDW0zzs0bz6hNe+71bf69d6aGWXxJdZZw6gxXbrUmfroKGr90WQA7BIyNh+O4THEZ5wlSug7tIPL9GwXjW1l4Hy9+0Ok+9hyYQhuQW7UvYFSH87c1ngyHw+mzZYScN9u7ULpkNkeXw4N38C66BxLOW/L67GAVmkzBkZzbM1q3n/bY9rH298621mZFte/jPY2zbfq99vndij4nuBqDNrwq2ofuFhs1fldheEd967uDEGg6BACwAs263nDzXKswGRVpV/yBTpPakznnmfB5ircjhsEMcgi2IHBQFjeOq2dg9U17h/NhKX/6CuM6e4H/FXCsPlUjy4yZ6UfuLYwpB8sbs/OWmF+VyBuMUVVEUwbLqyJfbDVMi2ljONCsbVOsNBsEo8VJxHzYMqS2RSOEBZW7SfAiMGZ2pQ/tX8eRx53apqbUg6du6fPF1zNps+p74SY7S8dkQxSoO0uZfcMesY8MNG0+lqw3nNWF3kIiFcWtkhgb3xpQrS70y/ZWmuiz1KlKv/DUbmzKlb2+6SuJnzo4vEH3sAR12dM2XiyV5lCp8YnBtYRIxzXV/cT/ASO2j9lzTXRz1wttB+nQvPGA2+AQeRVFkWbYn1YNIpEPErWXTHjAbyXo+w4nYrLkcJT7YGkOSt4g7ya3io5LT9aRJ92L/KKw4BNSk2id3dcmHlo4NJ4M3sLWIsztkfzkIgGBSRNxr5nHyXEYpRMoawOdN6usNut18mOgY+/keCorAID8HHIP9yIkcmeKyc11kxSpyrsyTeccibLkk+QpjuwECXbjgM6tdDdJgQeEjGsanXqUJ2vWor41KK9RArKiUUVmqSCxk890XXaXtKJ1VOLIlX7h8xOyOQk2m/R8oSN6cPafdfeXkC1Sea/xejIvGoBkkBYl1mTpFj7GFyGPFAnGSrtTpBj8q+iGGpOt+USQO3h0QLFj8nY7zeUExWtarqvn02R6EydtxtGGrHaN0AmYQFj3rn+m9P2VmmhVe4b1r2X1R2ICISVwPLSYrD6/jdB01gbxRVjcO2z8R+EtcB4njdxY+VzLOF8bSIr5IB376McHib5ahcdWrq10Mm7GJNf9TR8U+zuJ5qACPOp8vnRtFpOfSig2u9ZDWOQuDwdp1BzRBmSIt8apsgnY98qmyRXVzFrUwVvQRCVvR3Nk0unJzpU3lXNaJY1nYEY0BTA0Se9ScKhPYthalbln7Hg1o3YjSeEivXZBp48vOTtazVjMQFAXFr204zx/1nITRzFgLIXnL7Z96pZVWowqxRby+Q/RDoG8pltnJKiYWPwHs+NMZkphpMNT7A/tsfCo+aM/hX9X3h8ijmTVs9wYKtu0xgbe8RqUjh+3fKCmiAUhA0Z4zA9s1GyVnUkt3tn/MHtUi9GaZ4qjpOTeWssC7D2iiRnP0nqaHdGDjXDpK4eVO7tnKWf45Tb+eEGxhKHgIJlmHwgeSvL7+XKSYoH2N0LuYCnxVxMptNjaQ/crp6EvfP2H2TPBxUkTKYJhYV+qzLSJDqJFRp+uN0wXFhNKqG4iiiZOrY+LbWg6/uKZ+9TWdyqP4irAjPxALmykCwNiyp8+jv7FxPg+GB1Hw7ppxFMtVjHYEhmtvVNY6ePXTjvOl37Y1X/v+atk0Gm6n6X5GV4XvSr41gT9ohqHkMNGb7V6zcQs63sOJwASSTd38nP129f6Lr32xfXuhTzBKEm0OwYzX+UcZ+iCNHweU9ThAC8H8Ixgw0IitUMeeOF2lVAKrGrfkq8YrC1K7qktNZjs+FAweOnQcFGFRAzSPrcYTdanKBO171Gt22L0e2ejyH5au8OlPcQfK7Jl0nurH5/SZuRAJD3xUaRu+iVdIJknHltP9sMmvxyaUVJNYV+lDensBX76D2hnef8cyK28XU3hArxg1B2KYDknnRUXqqD1FR91HMsrlmzL3mvIFNvECpnF8z/io6k0T9mO3a2C048Q7S4i1ykftFU3ay5qX+sDlxbdNrEv76IDZFLg9MsDZNTjatt8OFW/XvuRh/YfgNUqVpEC5II7i4Uhm/DifMUNyELQfFEYZh2CDDt5bE4H2NWrq3v+yOEk+Gx3vqXryp6hIYdMMBg8FEWkppMkM+9k78/PkqzZF+34/ZStK8vOdgmqsp4SsMlhzFrRj4dkz0bUSS//OTas3U4yF+fO/uqG7hzSYQnAEbIviawYoc+2m5Sfx01RX8kiVVYGpvt+Qz+9CMG9t0+/15g+obAQ+r161TL4qup7LOE8Bt9Xt+yNNWIAc0WwSXRJ3nXbC8GdfCwsP0V+kRU2lT+bx0dXfd6PpXAySomBssq75GT7pXGoC1/v3en0T50IcGv0cl8yrh8bjfd4sGrWzShLtKjlI2dL2HLPlOITJBmZAX92C46VnluW0qoHD+HvqVvBxllPqaqcaF/lSP6YbS2sPQZDgIfZRAH9M1xm7BzmDaILG0z5h5/flsr6zqO8s7LPL3oV+s8zYPl7Zr37uy6V9Z2liLBifV9yzZ2bzypc7Wkd1GVrw8wMaf8b0LSwwhSIoYSIxrR+x5WdI97NJYln33b6FttJbbc1UA65LufPav9FrL3nLsdW0QXe9af770HbGkpYqtqACo0RiSaQSKzf6JQXvEcPMFtObGZOldUibaamOkJEqPnDwbd7zcgdpYxl49l6mLV2mDPNubDfLKXuW+B7ml0RvvmuV3UutlQ3YgNdJdmFHjmHa/vlh8Ie0zzf0LA9IRsmyoiiKh7Qzbk83yNaIDAW5/cyItu7PBv3acwBxKUoWHXWbTY++nTvuzie74L8afxcH7NY2O7ju10KT/BACvQgFeiJ49OWDQrBMTeBNHXvsd1NYZYJjWiZoEdYi4f96P/4vozWVpEHwM9chQfdSGnTbqXd39kxy+rgTHfNDkAQkYh9DDPTa6fhiRNpqCkWV8x/dCn3K0HLwGAvWZ5fkpmPJMHdwhEqJqn3wbt6PiB7/AbAZQGkuh+C/Wq6HSBODUfkqNnxHMV8mSI7aRB/X/dKufX2w6AnTP2ATJKvCq9L1uJXJetR6hsJC7A//yjBxLBolagvXEbruSjLqhi9XpascYVki1nSgRLC6sQCvy1Vl7zdZx3hIioKviaykwdiKJTcTgVH8kqNisP7QZOCNvJHlKIwb7zLkcVeU1c5nHoMZgOm7HiX+zBDQI9kvATzyoO8VksMgkOT5NAbDFqwJLayP1tP9iDthFkxgyrKyWhaEefRLmaR/Zs9cYvYk5dWNBqejQt9rbDYYW0e5g+xCkyiK7B1UazUvAJpvAkWaoKfBzko3PjAc/Atu1Rn+ZNkMbglCIJQ+RLY7irWmTJ7HKklGyUVOfLJF9oZlgcL3esuI9sLdfXYeMUhHJGLNR1f6ijaO6P2xyL68GCbfXgd1uvOrlCnGBpvg5A7wCouFWmU9xSZJYuYdH3l8Tol+qSBM2BQ1Z8ps+95N2SJOkrMnmyDgCBjsxfcUBM4GAsVXsH9oHdN4CyDdvh8lWccCByHY4ePLlz8IEN0f0srYvgIFY4oy9P9DOtYaUJs5iX2WqpliS07p/kvWTdS12TN5KbbsMwu1aecBooi129bQFJU7w7KJVHnS/NsQbW+7iSHXIWmkj5RsLuAMdFXYaifW+xpX77P3PhckfsBprTk4tUtd5LxMxfgLxUCfmc/QYGCzND8l+GxQxusfOyfCEi1p9vDZJSLt5trtv7naDvz816z4PtkJNK5uiVqb1A8MU4VHEIAYzvL5fKqDSnF2k+/JcO5oip5sJ/7CbFM2/RGB60fbiX2zoAhb+kyQ9byLjk7f/E6YiCqIYD8Wjsn+0K4rympvr639ztbedFNeRFEAxIAwpKjY9SjNkOYPfbBnQdjsxsf3NymuesqbKRdnirKy2ttra3+x2TNlaZLutuiXXj4KslvbKQO5DlttCJhCVRVFUTg7XXuaBowNDGmz5C/bcFHuhI8YrGLhHcvoit47HyVhEceAr4X5HJs8oec/ryvTZTVKduCTGyfomuYFEQIRiW6D9MMymvGlpHkYoFYWCz6QebgDGzb4yAInrwdnRjGTacYAo4/BF4JBQVqxbNS+R/eZZcP05/i59BqT9vF0FUxXYZLyJ/vuFzVY27pqeuPpDV8QJGVI1qDwMTTrsfGIPUDG3awGqLQJqDV30Wxu5dHpLui530dFGlPosUzzHJAEgh4LQdKrQsW7Q8XHIQkgh+QIBsw4CMQ0uXU5oKl7SfGe9Zq5kdmqW5opjoeOFYdK38XZM89TRs3fuq7JNILJyuq+7P+dSrisiil5lo7QoZjOeAigfVvDbDVB19VAZrbziIVbIBKjfFzLRDZrRCCw5eVHM3Oo/nB5XYWK0RJZ5alOckFDtp8HiNf83g/prC/ugw0lTiIPn+TD52KJD823uVqvyu88Do0h4q5mhjJF2PTtZwpDsCikx3WLRt2pOV9sgT4t2LcFX23CnnFsrqvEvYh4ASKCsGofUf/XakT/zW0lkdxcsZGuNoXNTtfhBLmGjfSvVfVeo0MXXHTNcUj2+l5fDgKtfdCDSjOWw6Qo6Z9e+lKvv+BAXNTpxwWpXfHK9xBr254zZgqW5FDZ63t9Ob/Y7Jkdr3NSfQmInhYMZRrHf1/9WSuxAduzmoKXs9Tbbc5+kJShdbomQv17BRmHMwSqFUFR5Km+03C6saARjSH4JU3Re9rcdZnDgmQUlTJYBVTDRDv1pB85ooPsjwDiSCQOmG2ioiiywi/LVkWRA5zc8Tp7Qg7UIZEZAprARr8MJFqDPrwbFDk2/yKUxk0INHRoB5uUIb5Vl+E2Pfw1fheKoiiyYlJZVhRswa03ea+eVGO1SAJto/QjsCAAR2TX712x44krjq+u3cEmgjAuO1vboebVZ5SPGs4tsCqKYpV5wm+8Tta7FX0kyAwHJKYGg9/WgtV/DWjrj+bxjd+LcdPqqUEizWcWry0uztndet48YwmRcpHVszlePNF2vxFngmfMj/lLfcnkxD6ystJ0i+6XOOtQmGwyzTO0CPaZhdyUc4aAWZmRc6QLJmg+4xu9S9tweEe+z12130Yt8o2zfjrvAFtiwcDeVudLOvTQl1ovmk3am2Hl5H8MxE55ykSGzW/tOCwWtdAvdPZ/GwEGGfiY2KShLRf84K8PwFyzFgyBbUahVqscMqw2p16lYZU4wylIxsNyLQZ5w2t3Bw6L68y3DIjh2i/2EgQWQiSoSGjt1cUMyXN/o19/6+yfmMtTp2QnsXy4YvS0e9QwOzD0saQZ2yGIqUEQDREo8mmgz6jzV2uK8nio5MS63vB1RPHce3ls94ybun4T7ticfr4wmyORUeN8rgdn9Kzvu8+3ib1K7wp8ouCo33QPo6WSp6DrzuimWT1rWp9ePEl3lxlOnkeleKhhzBxJ2FnxM6P7fNNz54zxCXGZe+fJELHhCLZyfcl9OK97T3tD8TWrfy8zqFowwcOzfNsKU6tsTB/8ItvMu9FdN+9Phz/ChvkrQ/j2M0GYwp8oCl/k/6Sm+WLXnTpyfp+6T5+NKObEJ06hcy/FB9sCBlWM0bGE/blV9//C4EOaRLtWPPVTX7XWfj2bgcbs3o1ThvXuaX68j45w7aOtjarAdAbvtrb5Zhu+3abfPhGD2/Sbpj6R77bm0FYa1vreap9v9q81hovwYMnULX+X2r+3TsTwtnzr8/g8Po/P48R+s90Mm7JXuAMbWaj2z+Z4PzS8VZwdTh53UewYbddTQhdkxeTbvlJs4OSknrcPyyOUr5ecxBY+PmwX20vdKG4Xl5dJrK2Cz+MxSnbRUZXVZL1FBnucXTwuXlGpmNAhmNUCXzYnqd9oqkqn+fbIPdzHy+P9fYea2LbGtJ2RHeaD+J6Z2MvHzpn/3eByrLJ0CVuqNuEU2oAPFvkCnGUhkWeY6mSVjNeNAf6tzyzts991eRM6feMS9ps+s3iQt431iSQ/SVUlJ4dIpFdX/lmFG40y41ZYwuCIYSv0rvyS9I6a2uCoQVV6Vac6+n1z5VJrnmqySn/ehZyjz3bhnRe+fxfeWfPpEGlLtTibI+Qa7HAn7NRO7g1+YqgWTVeDJbkDQmeZG5+spiuplF/gKTz6cCJFRtrOC4cDiiQZ5fWXY4NUlFvwwacftVlN8PX+gXRV2G6ncu9HCEXYMmBTRVmhq88l1k7Bq/qX4YWqfdmnkIjl0QEq6d/oCGTRBbKSCsoLPZ7C8mwqTaXSfa4Ssz9QXmSUZLBMx5b34wwOr6nFarpSXoJPyDxZ+9KLqLyK/BnL6TrU4JLLqdVsjuQiK0jrU12V+MSjbfjALpuuuiabDGB5ewqs5Vl38CiqJ7OggDsQRUmpzjfqzoCVGjZSRyuXno9PvBqfbAIVS9noiiwrsRatdp/FoUpy/k4qUeXyeMt9ryZdCLhOIe7Alkuszbf47C6P5FAr09Mr/XaBShVmFZQ7/VlCpVHuCgt3QNbTW1XIpl5VtUhUyQiBp5Kz2LfM75dlWRYCnGTuHZUqsZ7NSct8gaBEMyvvurtLoYOnv7nxupC2Mu6uRWcWfGwNLAKSr7ibEuSBu+lnetRMl/MIlHyHLtN+trSVCbocGxnow4hsBQSDRe+mrN6Bu/Fzgw/PdEEEkwWp/VMn7AUxTWWCz8cyfR5T7MCjdt9NKfkDZp2OKShIcGYvZdNgg0Ka2kkdt6eVNNVxdzmy60eQMmt95ppgobutnQN6rY7JNwOSmS3nEd/h22K35vsbSFOZUGfjIvsvR1Xj9bGP3a0l9mpdJaEkOTNbHiiEwNjPiP5LnoCzlWkqqVvWfac3Zpe/BzKMEkMiY0LBYDBjJjs/cVa97QxAMjPkGbVOE7a2E+tn12779XQ8viNNReIOUl02do91jSlN2Cum6nyjoRwAeknp3qfNW4OC5mWgYIeCt85EVmK9sb/WRiI5eEqfBYDmb1p4Sek5GQjGRcFdm1BSNq1PtVF16VQ5Q/z735hFDVKaSv5OOvIWTs6UvTNM+7rO9CbopGPgjUBiBJJz6xXB1TlPjigWUfSSg7MYNs2LYTOmaAb7mZo0M4JnrkW0YRAY/vps07k+HTLbJuumYRyyyr1zQ9pKmFhVqvuIAJ9ncFWyCsfoZKea0JD/000KChv9yLq39dzzHs+CoOTHHzCLCR1+Zb/MPUo3AVBIxsKvRWqdbda+xw31jnfF4GpfyavxbxMVc5oKXV2ysoBaLsLrpZOVNnwyeZ8M251d6vPG6B6FDATrQ31lMA34fG8ZkDNtzmLuex0Maw0D9MLO0lVKA7btiA8Gcf20/ZeuVJc93IxPqxWnlihSmkrlEnLSjg3qh3ZqIXfSu/WoXpHJzhuk39rv+PpoxWYIwkRtoLHesubzzWKufg6mCaw4NlkUa3eoD/trzXhfTVUFNhCrDap6/vPikx4/FmApSUlT9bmpdCG1Mm/jDtIriLRsp3ZpO+8mp1iqioftno6Y0CDa/rgI7H0IlV4MQYKlMHEwFAzCJMFgEADPVKWlwWAoBMFCwdJgKLggmLcijwXWMiG2sk/kW4m1dpoeclN9RqAkbJclsyBk01FV5+WHHWkqpqSrsZ3JujOot3SsT5pkFy3jAckBlPTQ9h2bDgfXoMdg2ntXrABJ1s1Eexf8yGuuvnoXAp//SEhzccZbzoNEKOPrsFE7jujT88bpnEERt0NJa3ZU+bgTKVc+ee8M1Np2NSIWDREYfPgQQ3wxS1wLQGAxWBjCN+/QLg3ITHQ2SL6YIQFFmMaQcWczYYMgj7/9+Qw+LSoTW+CV3rVgTJ/6KZ6thI42i2lO2MJs23me87vAct/jwbO9fY2t2+10k7Dr+OGL7/HI+etuZ8qMaDQToee7Hg4Ba0L6lrPBAfC3/9wASdHboDX7JeyCcfrHcE4mkVep2vNlc5qTxX1LrpkYtgXSj/7/k3Tn0+qAMQ3Qhs3w+3g8ojHT9rdVioiDM9Hqs1/s+4Ae/r2vhWXHIKvVe7k3vhul/Slb8jXQ9SxqDR3pVhSBCtKc/J5Vqzy2osxMsrrQji1TXTzRFxJ28QkzKDrSND/7CdsBOHxY82rMRJeBsmDbgCYIA0awATt+LSN06LPCcip8ApW6ktihkv7NqyQ5M82JrruoaieVJxSKHqlikcfnLsQnkya/36xt996t/+rrKhl0kGkS3A1BIViotDQjWJoHSRH9g7VTNWZf4qyJzCQEXBoKZZQGAcna4Pxg6c1aBqKZ0Zide3LOWJ3gJkatJEXEJ/GB2SxJ1HpRVpZV8qQ5mbLoxxo3Z/vUohP77bpofPbuMoZ8oSbpwsUI9PayCxDswdrhydx6V/wrX9bPcNobAUUAOQyMngEShRYvRkkOfeNNqmu3+Xwod03be+Wqkha/xF/JnZdy+RN0vs8uaBmvRkYC2/TWCJLXB+kHaV39mHtpwxo222qIZVjkySrP7OO1mk5iigPS3ZvOgoV2PRE1gUPrVN1OPXFY/zVl7v4fuc+5lZ4rp8HJ/67PUkAkimy+SbqeMHNb9+B61USDECoM2gcHQ9ILGMYP2e01ZtXJozjv/OFe3JM0j6Hk2z9UzceiKqM+nz+pPhy+fyWrglrhk9hS9VZKvrQ4hVo5SmpsVfjcO0sCX88YHu/N+a1zSDRTbowoBorC5kO9pVJ1bOBRuZN0ov+ClqnMovt+qCz9datFx/p0cG2fuNf1V2mjo+h4WLI6aye25wsoafHb7Oe5JMOpfK+10IzlPUuKnz5rz53bbHp9M7pfeFhvEj03yDyF2Mrd36uiENL8grGvYZt+Z6B2TPTtlKvEB1VefDJgoQPY4LdavWKa3BFq7RG9VEpy2Z2iW6TSNWb9VYye4z335wl9teAMt8JLV83lTgzt3R1/Ywbspsl3z3Cx8HOe+jT5kkRPbRStFRU31HjltDgTyliyQiZWMp/iz9SrLHWKqIVVeb6gZgkfnEGtn28ItRIkSXXIzxdEzs+XlSrv871Q75pEDOdXSfLzxTBSkvJlSZKeL8gLejoA;fontStyle=1" vertex="1" parent="1">
          <mxGeometry x="62.5" y="1064" width="142.5" height="47.05" as="geometry" />
        </mxCell>
        <mxCell id="35QQ6GFylacjN5FKlyGc-28" value="&lt;font style=&quot;font-size: 27px;&quot; color=&quot;#009900&quot;&gt;$&lt;/font&gt;" style="text;html=1;align=center;verticalAlign=middle;resizable=0;points=[];autosize=1;strokeColor=none;fillColor=none;fontStyle=1;fontFamily=Comic Sans MS;" vertex="1" parent="1">
          <mxGeometry x="209" y="1374.62" width="40" height="50" as="geometry" />
        </mxCell>
        <mxCell id="35QQ6GFylacjN5FKlyGc-29" value="&lt;font style=&quot;font-size: 27px;&quot; color=&quot;#009900&quot;&gt;$&lt;/font&gt;" style="text;html=1;align=center;verticalAlign=middle;resizable=0;points=[];autosize=1;strokeColor=none;fillColor=none;fontStyle=1;fontFamily=Comic Sans MS;" vertex="1" parent="1">
          <mxGeometry x="209" y="1057" width="40" height="50" as="geometry" />
        </mxCell>
        <mxCell id="35QQ6GFylacjN5FKlyGc-30" value="&lt;font style=&quot;font-size: 27px;&quot; color=&quot;#009900&quot;&gt;$&lt;/font&gt;" style="text;html=1;align=center;verticalAlign=middle;resizable=0;points=[];autosize=1;strokeColor=none;fillColor=none;fontStyle=1;fontFamily=Comic Sans MS;" vertex="1" parent="1">
          <mxGeometry x="245" y="1374.62" width="40" height="50" as="geometry" />
        </mxCell>
        <mxCell id="35QQ6GFylacjN5FKlyGc-31" value="&lt;font style=&quot;font-size: 27px;&quot; color=&quot;#009900&quot;&gt;$&lt;/font&gt;" style="text;html=1;align=center;verticalAlign=middle;resizable=0;points=[];autosize=1;strokeColor=none;fillColor=none;fontStyle=1;fontFamily=Comic Sans MS;" vertex="1" parent="1">
          <mxGeometry x="285" y="1375.15" width="40" height="50" as="geometry" />
        </mxCell>
        <mxCell id="35QQ6GFylacjN5FKlyGc-39" value="" style="shape=flexArrow;endArrow=classic;html=1;rounded=0;fillColor=#fff2cc;strokeColor=#d6b656;" edge="1" parent="1" target="35QQ6GFylacjN5FKlyGc-41">
          <mxGeometry width="50" height="50" relative="1" as="geometry">
            <mxPoint x="420" y="545" as="sourcePoint" />
            <mxPoint x="524.5" y="545.0799999999999" as="targetPoint" />
          </mxGeometry>
        </mxCell>
        <mxCell id="35QQ6GFylacjN5FKlyGc-5" value="&lt;span&gt;ACCR&lt;/span&gt;" style="html=1;verticalLabelPosition=bottom;align=center;labelBackgroundColor=#ffffff;verticalAlign=top;strokeWidth=2;strokeColor=#82b366;shadow=0;dashed=0;shape=mxgraph.ios7.icons.data;fontStyle=1;fillColor=#d5e8d4;" vertex="1" parent="1">
          <mxGeometry x="90" y="300" width="44" height="59.1" as="geometry" />
        </mxCell>
        <mxCell id="35QQ6GFylacjN5FKlyGc-6" value="&lt;span&gt;BSP Lin - IATA&lt;br&gt;&lt;/span&gt;" style="html=1;verticalLabelPosition=bottom;align=center;labelBackgroundColor=#ffffff;verticalAlign=top;strokeWidth=2;strokeColor=#82b366;shadow=0;dashed=0;shape=mxgraph.ios7.icons.data;fontStyle=1;fillColor=#d5e8d4;" vertex="1" parent="1">
          <mxGeometry x="90" y="403" width="44" height="59.1" as="geometry" />
        </mxCell>
        <mxCell id="35QQ6GFylacjN5FKlyGc-7" value="&lt;span&gt;SNCF&lt;/span&gt;" style="html=1;verticalLabelPosition=bottom;align=center;labelBackgroundColor=#ffffff;verticalAlign=top;strokeWidth=2;strokeColor=#82b366;shadow=0;dashed=0;shape=mxgraph.ios7.icons.data;fontStyle=1;fillColor=#d5e8d4;" vertex="1" parent="1">
          <mxGeometry x="90" y="508.45" width="44" height="59.1" as="geometry" />
        </mxCell>
        <mxCell id="35QQ6GFylacjN5FKlyGc-8" value="&lt;span&gt;Amadeus Value Hotels&lt;br&gt;&lt;/span&gt;" style="html=1;verticalLabelPosition=bottom;align=center;labelBackgroundColor=#ffffff;verticalAlign=top;strokeWidth=2;strokeColor=#82b366;shadow=0;dashed=0;shape=mxgraph.ios7.icons.data;fontStyle=1;fillColor=#d5e8d4;" vertex="1" parent="1">
          <mxGeometry x="91" y="608" width="44" height="59.1" as="geometry" />
        </mxCell>
        <mxCell id="35QQ6GFylacjN5FKlyGc-9" value="&lt;span&gt;CTeleport&lt;/span&gt;" style="html=1;verticalLabelPosition=bottom;align=center;labelBackgroundColor=#ffffff;verticalAlign=top;strokeWidth=2;strokeColor=#82b366;shadow=0;dashed=0;shape=mxgraph.ios7.icons.data;fontStyle=1;fillColor=#d5e8d4;" vertex="1" parent="1">
          <mxGeometry x="91" y="727" width="44" height="59.1" as="geometry" />
        </mxCell>
        <mxCell id="35QQ6GFylacjN5FKlyGc-13" value="" style="shape=image;verticalLabelPosition=bottom;labelBackgroundColor=default;verticalAlign=top;aspect=fixed;imageAspect=0;image=data:image/png,iVBORw0KGgoAAAANSUhEUgAACHoAAAgACAYAAABTzMZhAAAABGdBTUEAALGPC/xhBQAAACBjSFJNAAB6JgAAgIQAAPoAAACA6AAAdTAAAOpgAAA6mAAAF3CculE8AAAABmJLR0QA/wD/AP+gvaeTAACAAElEQVR42uzde5RcdZ33+++uqu5Op9MJiSRcJE3SBEKqQgADicotSAKJCIISZC5eZxbP8pxxjfjMo56z1nNWzn9zZpzRGeeyHAWGi4qKKKIIiAiEq+LoqIjOIOIFURIuIYRcurv2+SMJJKE7pLuqu/ev6vVaKqGz09357L22SeedXVkAAAAAAHvpe/+pMyOr1KKUVet5vZblWTVKUfvNP915uHUAAACYTBUTAAAAANCuRgo68jwOi4iIPI8ssogsInJ7AQAAMPmEHgAAAAC0vGGDjiwW5xGHRoSgAwAAgGQIPQAAAABoGSMEHcflEYdExN5BBwAAACRI6AEAAABAcgQdAAAAtCuhBwAAAACFNVzQkWf5kjyyOREh6AAAAKDtCD0AAAAAmHQjPKHj+DxidkTsFXRkqg4AAADamNADAAAAgAkz9y9WHZ5lA9XIo1bP82qWZ/2RxQl5xMER4QkdAAAA8CqEHgAAAAA03SuCjshqWcSSPB/ozfOdxwg6AAAAYPSEHgAAAACM2V5BR+wKOvJYksc+QUdE5OYCAACAhgk9AAAAAHhVwwUdEXF8xMC0VwQdntIBAAAA40boAQAAAMBLRhN0AAAAABNP6AEAAADQhkYIOk6IGOgRdAAAAEBxCT0AAAAAWtjeQUdWzSJ2BR2Dgg4AAABIkNADAAAAIHXrVlT6/lDpi0q9FvV6tZ5l/buCjhMjBqfm+c6QQ84BAAAA6RN6AAAAAKRi36CjlNWyPKqxMRbl5aGpkUdE5vkcAAAA0MqEHgAAAABFM3LQUc3LQ90vBR25qQAAAKDdCD0AAAAAJougAwAAABgloQcAAADAOFt66dKODeWZc4cJOmp5eWiKoAMAAAA4UEIPAAAAgCYZKeh4KqIWIegAAAAAGif0AAAAABil/QQdiyOGugQdAAAAwHgRegAAAACMYOmlSzs2dEw/JrKsGnm9X9ABAAAATDahBwAAAND29go6Imp55NWIqD0VsTAiyhG5oAMAAAAoBKEHAAAA0DZq69Z2bt6w8ej9Bh0AAAAABSb0AAAAAFrOSEHH8xs3LoxM0AEAAACkS+gBAAAAJEvQAQAAALQboQcAAABQeHsFHaWoReTVyKO2+emNx0YpShF55JoOAAAAoA0IPQAAAIDCWPCBNV076tsW7C/o8JAOAAAAoJ0JPQAAAIAJt+ADa6bvyLYdHfWsf8+gY0dsE3QAAAAA7IfQAwAAABg3LwUdedQismpkUYt6Xt0R2+ZFHqXIBB0AAAAAoyH0AAAAABrWf+nKGYNThhYME3TMjzyynUftijoyewEAAACMldADAAAAOGAjBR2D2ZCgAwAAAGACCD0AAACAV5j3wRUH1evZUYIOAAAAgGIRegAAAEAbGynoqA/F/AhBBwAAAEDRCD0AAACgDfS9/9SZ0dHRP0zQ0f/yUYIOAAAAgKITegAAAEALGSnoiCz6I999lKADAAAAIFVCDwAAAEhQ3/tPnRmdlVrkWXVn1BHViKhFxGGCDgAAAIDWJfQAAACAAttv0FG3DwAAAEC7EXoAAABAAewMOqbUIh/aM+hYHBGHCjoAAAAA2E3oAQAAABNo76CjVIuoVyOy4yLikKjXY+frrOSGAgAAAGBYQg8AAAAYByMEHUsiYs7eQUdmLAAAAAAOmNADAAAAGiDoAAAAAGAiCT0AAADgAAwXdGSRHZ9HzBZ0AAAAADBRhB4AAACwh7l/serwLMurkeW1iNj5zzyOi4jpkdcj8peDjtxcAAAAAEwwoQcAAABtaYSgY0nEUO9eB6o5AAAAACgQoQcAAAAtTdABAAAAQCsRegAAANASRgg6jo8YmrbXgYIOAAAAABIm9AAAACApgg4AAAAA2pnQAwAAgEIaIeg4IWKoZ68DBR0AAAAAtBGhBwAAAJNK0AEAAAAAB07oAQAAwPhbt6LSt6nSF4P1XTFH7PxnxKKIoal7HSvoAAAAAIARCT0AAABonpGCjmdiUUR9amQmAgAAAIBGCD0AAAAYvZGDjmpEvVvQAQAAAADjQ+gBAADAyAQdAAAAAFAoQg8AAABi6aVLOzb0zJw7TNBRi6hPEXQAAAAAQDEIPQAAANrISEHHhohaDAk6AAAAAKDohB4AAAAtaD9Bx+IYqncJOgAAAAAgTUIPAACAhO0MOqYfE/WsGvmul1uJ6Bd0AAAAAEBrEnoAAAAkoLZubefmTRuP3ifoqG2IWBhDUbYQAAAAALQHoQcAAECBjBR0bH7m6YURmaADAAAAANqc0AMAAGAS7BV0ZFGLfFfQ8eyuoCO3EQAAAADwSkIPAACAcbSfoOPYiKwUESHqAAAAAAAOlNADAACgCQQdAAAAAMBEEHoAAACMwoIPrOnaUdm2QNABAAAAAEwGoQcAAMAwFnxgzfQd2bajIyvXIqIaEf0ReW1HbD826oIOAAAAAGByCD0AAIC29sqgI69FRHVH7JgXUSqpOQAAAACAIhF6AAAAbaH/IytnDG4dWjBM0DE/opQJOgAAAACAFAg9AACAljJS0DG4LZ8fmaADAAAAAEib0AMAAEjSvA+uOKhez44SdAAAAAAA7UToAQAAFNpIQUc9j/mRhaADAAAAAGgrQg8AAKAQ+t5/6szo6OgfJujojyxC0AEAAAAAIPQAAAAmWN/7T50ZnVNqkUc1sujfHXRERP/OIwQdAAAAAAAjEXoAAADjYu+gI98ddtQi4rCIPHY+pQMAAAAAgNEQegAAAA0ZIehYHBGH7hV0CDsAAAAAABom9AAAAA6IoAMAAAAAYPIJPQAAgL2MEHQcFxGHCDoAAAAAACaX0AMAANrUCEHHkoiYI+gAAAAAACgmoQcAALS4l4KOUlRLkdfyPKoRO4OOPBd0AAAAAACkROgBAAAtYu5frDo868irEdH/ctCRHx+RzY7Id/8HAAAAAICECT0AACAxLwcdea2URzWPvBaRLYmo9+4uOV4OOjymAwAAAACglQg9AACgoA486BBzAAAAAAC0C6EHAABMshGCjuMj6tMEHQAAAAAA7EnoAQAAE0TQAQAAAABAo4QeAADQZIIOAAAAAADGi9ADAADGaISg44SIeo+gAwAAAACA8SD0AACA/Vm7ttx3xLNHRkS/oAMAAAAAgMkm9AAAgIiIdSsqfZsqfRH1WtSjmmWlWmRRjfyZRZHH1N2HCToAAAAAAJhMQg8AANrLSEHHc/miiHxqRLar48h3Vx0AAAAAAFAYQg8AAFrTyEFHNSLvFnQAAAAAAJAioQcAAGl7Kego1aI+KOgAAAAAAKClCT0AAEjC0kuXdmzomTl3Z9CRV7Ms3xl0PBu1yGJKRD0iy0LQAQAAAABAKxN6AABQKCMFHRvrUcvy3UHHroPzePnbAAAAAADQBoQeAABMihGDjjwWZ3l0CToAAAAAAOCVhB4AAIyrnUHH9GOiXqmWdsUceURtYx4LszzKrwg6AAAAAACAEQk9AABoitq6tZ2bN208OrJKtRR5LfJdQUfsCjqyfGfHIeYAAAAAAIAxE3oAADAqIwUdL2x6dmEW5XLkuZYDAAAAAADGidADAIBhCToAAAAAAKB4hB4AAG1uP0HHsVmUS4IOAAAAAAAoDqEHAECbWPCBNV07KtsWCDoAAAAAACBdQg8AgBYzUtAxEAOCDgAAAAAASJzQAwAgUQs+sGb6js6hoyOv10q7Yo6IqA7EwDxBBwAAAAAAtCahBwBAwe0n6Jif1SOLCEEHAAAAAAC0CaEHAEBB9H9k5YzBwdICQQcAAAAAADASoQcAwAQbKegY2hHzs6gLOgAAAAAAgBEJPQAAxsm8D644qF7uPErQAQAAAAAANIvQAwCgQSMFHXnE/Kwu6AAAAAAAAJpH6AEAcID6PnruzBgY6B8m6OjP6vWIEHQAAAAAAADjS+gBALCPnUHH9lrUo1qKrJZHXo2I/ti+vX/3MYIOAAAAAABgMgg9AIC2NULQUYvt2w/bfUwu6QAAAAAAAApE6AEAtLwRgo7FsX37obuPEXQAAAAAAAApEHoAAC1D0AEAAAAAALQ6oQcAkJyXgo6IainPanmWVyOP42L79kN2HyPoAAAAAAAAWpHQAwAorBGCjiWxY/uc3cfkkYemAwAAAAAAaBdCDwBg0o0QdBwfO7bP3n2MoAMAAAAAAEDoAQBMoLkfXnV4NpBXoxT9gg4AAAAAAIDRE3oAAE33ctCR1Ur1vJpnUYuIJTGY90YWsbPlEHQAAAAAAACMltADABizVwYdWS0iXxKD0RtZtjPoyHaVHQAAAAAAADRM6AEAvKrhg444PgZj2t5BR0REZjAAAAAAAIBxIvQAAF4yuqADAAAAAACAiSb0AIA2NELQcUIMRo+gAwAAAAAAoLiEHgDQwgQdAAAAAAAArUXoAQCpW7u23HfEs0dGRP8+QceJMRhTBR0AAAAAAACtQ+gBAKlYt6LSt6nSF1GqRZZXszxqkUU14rlFEdnUiBB0AAAAAAAAtDihBwAUzUhBx/NRjSy6I/Kdx+k5AAAAAAAA2o7QAwAmi6ADAAAAAACAURJ6AMB4E3QAAAAAAADQJEIPAGiSpZcu7djQM3PuMEFHLbKYIugAAAAAAACgUUIPABilkYKOjRG1LAQdAAAAAAAAjB+hBwCMYHfQUS6Xannk1TyPWimiujGPxVlEl6ADAAAAAACAiSb0AKDt7Qw6Dj6mnNWreSmrReTVyKP2dMTCUkQ5z3cGHVm8lHYAAAAAAADApBB6ANA2auvWdm7e9PzRwwcd9XIeEZFLOQAAAAAAACguoQcALWekoGPL5ucWlkoh6AAAAAAAACBZQg8AkiXoAAAAAAAAoN0IPQAovP0EHceWSlESdAAAAAAAANAuhB4AFMaCD6zp2lGpLxB0AAAAAAAAwPCEHgBMuJGCjsEYPLYUgg4AAAAAAAAYidADgHGz4ANrpu/oHDq6nNdreWTVPMtrWWTVwRicJ+gAAAAAAACA0RN6ANCw/o+snDE4WFowTNAxvxSR5VkWERFZZMYCAAAAAACABgg9ADhgIwUd9cGYX4pc0AEAAAAAAADjTOgBwCvM++CKg+rlzqMEHQAAAAAAAFAsQg+ANjZS0BEh6AAAAAAAAIAiEnoAtIG+j547MwYG+st5VsujXs2zrJZFVCOivxR5CDoAAAAAAAAgDUIPgBYyYtAxMNAfEZFnecg5AAAAAAAAIF1CD4AE9X303JmVge21PErVPI9ankU1i+gXdAAAAAAAAEBrE3oAFNgIQUctBgYOq0dp50FZCDoAAAAAAACgTQg9AApgr6Aji1oeUc3yWBwDA4cKOgAAAAAAAIDdhB4AE2jYoCOL42Jw4JB6VnrpOEEHAAAAAAAAMByhB8A4GFXQkdsLAAAAAAAAODBCD4AGDBt0RCyJwYE5gg4AAAAAAACg2YQeAAdghKDj+BgcmO0lVwAAAAAAAICJIvQA2MPcD686vKNeqtbzei1KWTXPo1/QAQAAAAAAABSF0ANoS/sGHVketTxiSdSjtx55RJZF5IIOAAAAAAAAoFiEHkBLO9CgIzcVAAAAAAAAkAChB9AShgs66hHHZ/WYJugAAAAAAAAAWoXQA0jKaIIOL7sCAAAAAAAAtBqhB1BII7zkyglRjx5BBwAAAAAAANCuhB7ApBpN0AEAAAAAAADQ7oQewLhbsW5F5bFNlb5yuVTLI6tGlvfvCjpOjHpMFXQAAAAAAAAAHBihB9A0+wYdedRrpciqj78Qi0rlmLoz4sgFHQAAAAAAAABjJPQARm0/QUe1VI7u3UFHFpmgAwAAAAAAAKCJhB7AiAQdAAAAAAAAAMUi9ABi6aVLOzb0zJw7TNBRK5VjiqADAAAAAAAAoBiEHtBGll66tGPDrJlzy4OlWl7Kqnl9Z9DxdEStFIIOAAAAAAAAgKITekALGjboKGXVp/OolYZiSp5FRJ5HlmWRKzoAAAAAAAAAkiH0gIQtvXRpx4aZBx9TrtereVbq3yPoWFwaii5BBwAAAAAAAEBrEXpAAvYOOrJa5Fk1ol57OrKFpXpeziMTdAAAAAAAAAC0AaEHFEht3drOzVufP7pcz6p5FrXI82GCjoid/5MZDAAAAAAAAKDNCD1gEgwfdERty5bnF5Yiynnkgg4AAAAAAAAAXkHoAePowIMOAAAAAAAAAHh1Qg9ogv0EHceWIkqCDgAAAAAAAACaQegBo7DgA2u6dkytLxB0AAAAAAAAADAZhB4wjAUfWDN9R+fQ0eVSqX/PoGMw6seW6oIOAAAAAAAAACaH0IO29nLQkdXyPKp5FrUssupg1OeVIhN0AAAAAAAAAFAoQg/aQv9HVs4YHCwtGCbomF+KLMsjIrKILCKUHQAAAAAAAAAUldCDljJS0FGv5/NLpRB0AAAAAAAAAJA0oQdJmvfBFQfVy51HCToAAAAAAAAAaCdCDwptpKAjIp9fCkEHAAAAAAAAAO1F6EEh9H303JkxMNA/TNDRX4pdCYegAwAAAAAAAIA2J/RgQo0YdAwN9kcpE3QAAAAAAAAAwH4IPRgXfR89d2YlH6rleb0aEbV6nlWzLGoxNHiYoAMAAAAAAAAAxkboQUP2DToiy6qRRy3qg4ftzDeyl/9XzwEAAAAAAAAADRF6cEBGCDoWR33w0D2DDjEHAAAAAAAAAIwfoQd7GSHoOC7qg4cIOgAAAAAAAABgcgk92pSgAwAAAAAAAADSI/RocSMEHUuiPjhH0AEAAAAAAAAAaRF6tIgRgo7joz44W9ABAAAAAAAAAK1B6JGYuR9edXhHvVStZ1HLsmxX1JEfF/XB6YIOAAAAAAAAAGhtQo+CGjboiHxJRPTmpd05x66aQ9QBAAAAAAAAAG1B6DHJRhV0AAAAAAAAAABtTegxQUYIOo6PiGmCDgAAAAAAAADgQAg9mkzQAQAAAAAAAACMF6HHGI0QdJwQET2CDgAAAAAAAABgPAg9XoWgAwAAAAAAAAAoCqFHRKxYt6Ly2LaevnJer+V5VLPIaxFZNSJfFBFTXw46AAAAAAAAAAAmT1uFHiMFHb96MV9UjqGpEXsGHZ7SAQAAAAAAAAAUS0uGHvsJOqrlGOqOEHQAAAAAAAAAAOlJOvTYK+jIoprVBR0AAAAAAAAAQOtKIvRYeunSjg2zDp37UtAReS3yrPqrrXmtHENTIiKylzoOQQcAAAAAAAAA0JoKFXqMFHQ8E3mtnAs6AAAAAAAAAID2Nimhx36CjsXlfKgrQtABAAAAAAAAALCvbDzf+dJLl3ZsmnnwMUNZVs0ianke1YisPyJfHBFdTf+AE9aEiE9GvZjJinutOTdtffpdBO5pLXdBOzfuaS4C9zT3NFrm3LgA3NPc04qq1Fm53XUDAABw4LLIt0Zk2+p51LMsno4sezrP4+nI4unI6n+oD5Qen5JXfv3oJ7+53VoHumkT1Nat7dy+9fmj9ww6sohaHrEwIsoT9rPxBwiF5YttBb7WnJu2Pv0uAve0lrugnRv3NBeBe5p7Gi1zblwA7mnuaUVV6qy4bAAAAMbjd455PBkRj+WRPZxF/LiUZz8e6u748a//+hvPmmdvowo9ChN0TPoXDXzlaNSLmay415pz09an30XgntZyF7Rz457mInBPc0+jZc6NC8A9zT2tqIQeAAAAE+7JLOKeemT3Rim759e9b/xBrFtXb+dBhg09Ch90TPoXDXzlaNSLmay415pz09an30XgntZyF7Rz457mInBPc0+jZc6NC8A9zT2tqIQeAAAAk+7pLOKOesTt9ah/47cfv+OJdhsg6//wm0/Ks7ya5fVqXirVIs+rETEvIkrJ/Wz8AUJxT43JinutOTfuaS4C97RWus6cG/c0F4F7mnsaLXNuXADuae5pRSX0AAAAKJR6HtlDWZ5/qVSuf+mXf3fHr9rhJ53N/8jq1vmttj9AKO6pMVlxrzXnxj3NReCe1krXmXPjnuYicE9zT6Nlzo0LwD3NPa2ohB4AAACF/k3ud7MsrtuRDV77u7+7c2Or/kSFHsX+QK1zakxW3GvNuXFPcxG4p7XSdebcuKe5CNzT3NNomXPjAnBPc08rKqEHAABAEnZkETfWo3TNr3874+b40peGWuknJ/Qo9gdqnVNjsuJea86Ne5qLwD2tla4z58Y9zUXgnuaeRsucGxeAe5p7WlEJPQAAAJLzaOTZJ7ZVsn//w8du29IKPyGhR7E/UOucGpMV91pzbtzTXATuaa10nTk37mkuAvc09zRa5ty4ANzT3NOKSugBAACQrGfyPPtUqWPgHx//2zt/n/JPROhR7A/UOqfGZMW91pwb9zQXgXtaK11nzo17movAPc09jZY5Ny4A9zT3tKISegAAACRvexZxVZ6X1/3qE7c+meTvTZ1DAAAAAAAAAKBNdOURl0Y29N/zLlv510dcds6s1H4CQg8AAAAAAAAAoN305BEfKcfQo30fWvWR2rq1nal84kIPAAAAAAAAAKBdzczy/K9f2PTsD+f95cpzUviEhR4AAAAAAAAAQLtblJfiliMvW3nTEZe96bVF/kSFHgAAAAAAAAAAO72lHKWf9F228tKIyIr4CQo9AAAAAAAAAABedlAW8am+y1beMvfDqw4v2icn9AAAAAAAAAAA2EcWcXZpIH943gdX/VGRPi+hBwAAAAAAAADA8A7Ks/xzR37orE8fcdkbuovwCQk9AAAAAAAAAAD2J8/+vBw99/VdtrJ/sj8VoQcAAAAAAAAAwKs7IYv4wbwPnnXBZH4SQg8AAAAAAAAAgAMzPc+yLx952cr/NVmfgNADAAAAAAAAAODAlSLib468bNVnll66tGMyPjgAAAAAAAAAAKOS/9nGnplfW/jhU3on8qMKPQAAAAAAAAAAxmb1toHu7xz+P1ccPFEfUOgBAAAAAAAAADB2SzvqlbvmfnjV4RPxwYQeAAAAAAAAAACNqZYG8u8c9aGz5473BxJ6AAAAAAAAAAA07pjBvH7HkR8857Dx/CBCDwAAAAAAAACA5lgQ2dB35v/lWYeM1wcQegAAAAAAAAAANM/Ceim7uf8jK2eMxzsXegAAAAAAAAAANNfrhnbEV2vr1nY2+x0LPQAAAAAAAAAAmm/FC5uevTIisma+U6EHAAAAAAAAAMD4+OO+y1b972a+Q6EHAAAAAAAAAMA4ySJf1/ehVWub9f6EHgAAAAAAAAAA4yfL8vyKvsvOrDXjnQk9AAAAAAAAAADG17Qsyjf0f2TljEbfkdADAAAAAAAAAGD8HTO4PT7V6DsRegAAAAAAAAAATIAsi3fM+9Cq9zTyPoQeAAAAAAAAAAATJM/zf+r/0FnHjPXHCz0AAAAAAAAAACZOz1CeXR3rVlTG8oOFHgAAAAAAAAAAE2v5kZsql43lBwo9AAAAAAAAAAAm3v97xGXnLBjtDxJ6AAAAAAAAAABMvO5yDH06IrLR/CChBwAAAAAAAADA5FjR96FVfzKaHyD0AAAAAAAAAACYJFme//Xs/2PFtAM9XugBAAAAAAAAADB5Xju1q/KRAz1Y6AEAAAAAAAAAMLn+at4HV887kAOFHgAAAAAAAAAAk2tKPRtadyAHCj0AAAAAAAAAACZZFvmfzvufZx/7ascJPQAAAAAAAAAAJl85z+v/z6sdJPQAAAAAAAAAACiCPN7Rd9mZtf0dIvQAAAAAAAAAACiGUkTlf73KAQAAAAAAAAAAFEEW+R8f9aGz5470/UIPAAAAAAAAAIDi6BjK6//nSN8p9AAAAAAAAAAAKJA84n8c8ldn9wz3fUIPAAAAAAAAAIBiOah7qH7xcN8h9AAAAAAAAAAAKJg8sj8f7u1CDwAAAAAAAACAwsnf2HfZmbV93yr0AAAAAAAAAAAooCyvvG/ftwk9AAAAAAAAAACKKMv/KNat26vtEHoAAAAAAAAAABTTYXM3rT9lzzcIPQAAAAAAAAAACqoU2cV7/zsAAAAAAAAAAEV10Z4v3yL0AAAAAAAAAAAorkP7Nt934u5/EXoAAAAAAAAAABRYVq+v2f1toQcAAAAAAAAAQLGt3v0NoQcAAAAAAAAAQLEtn/fBFQdFCD0AAAAAAAAAAIqukkfllAihBwAAAAAAAABA4eWRCT0AAAAAAAAAAJJQqgs9AAAAAAAAAABSkOXZybV1azuFHgAAAAAAAAAAxde95bnnqkIPAAAAAAAAAIAE1COOq5gBAAAAAA7MucefbgQAAIAJcuuP743B+pAh9pBludADAAAAAA7UP7/7fxsBAABggtT+r/NjcPtWQ+ztOC/dAgAAAAAAAACQhqrQAwAAAAAAAAAgDa8VegAAAAAAAAAApKEs9AAAAAAAAAAASITQAwAAAAAAAAAgEUIPAAAAAAAAAIBECD0AAAAAAAAAABIh9AAAAAAAAAAASITQAwAAAAAAAAAgEUIPAAAAAAAAAIBECD0AAAAAAAAAABIh9AAAAAAAAAAASITQAwAAAAAAAAAgEUIPAAAAAAAAAIBECD0AAAAAAAAAABIh9AAAAAAAAAAASITQAwAAAAAAAAAgEUIPAAAAAAAAAIBECD0AAAAAAAAAABIh9AAAAAAAAAAASITQAwAAAAAAAAAgEUIPAAAAAAAAAIBECD0AAAAAAAAAABIh9AAAAAAAAAAASITQAwAAAAAAAAAgEUIPAAAAAAAAAIBECD0AAAAAAAAAABIh9AAAAAAAAAAASITQAwAAAAAAAAAgEUIPAAAAAAAAAIBECD0AAAAAAAAAABIh9AAAAAAAAAAASITQAwAAAAAAAAAgEUIPAAAAAAAAAIBECD0AAAAAAAAAABIh9AAAAAAAAAAASITQAwAAAAAAAAAgEUIPAAAAAAAAAIBECD0AAAAAAAAAABIh9AAAAAAAAAAASITQAwAAAAAAAAAgEUIPAAAAAAAAAIBECD0AAAAAAAAAABIh9AAAAAAAAAAASITQAwAAAAAAAAAgEUIPAAAAAAAAAIBECD0AAAAAAAAAABIh9AAAAAAAAAAASITQAwAAAAAAAAAgEUIPAAAAAAAAAIBECD0AAAAAAAAAABIh9AAAAAAAAAAASITQAwAAAAAAAAAgEUIPAAAAAAAAAIBECD0AAAAAAAAAABIh9AAAAAAAAAAASITQAwAAAAAAAAAgEUIPAAAAAAAAAIBECD0AAAAAAAAAABIh9AAAAAAAAAAASITQAwAAAAAAAAAgEUIPAAAAAAAAAIBECD0AAAAAAAAAABIh9AAAAAAAAAAASITQAwAAAAAAAAAgEUIPAAAAAAAAAIBECD0AAAAAAAAAABIh9AAAAAAAAAAASITQAwAAAAAAAAAgEUIPAAAAAAAAAIBECD0AAAAAAAAAABIh9AAAAAAAAAAASITQAwAAAAAAAAAgEUIPAAAAAAAAAIBECD0AAAAAAAAAABIh9AAAAAAAAAAASITQAwAAAAAAAAAgEUIPAAAAAAAAAIBECD0AAAAAAAAAABIh9AAAAAAAAAAASITQAwAAAAAAAAAgEUIPAAAAAAAAAIBECD0AAAAAAAAAABIh9AAAAAAAAAAASITQAwAAAAAAAAAgEUIPAAAAAAAAAIBECD0AAAAAAAAAABIh9AAAAAAAAAAASITQAwAAAAAAAAAgEUIPAAAAAAAAAIBECD0AAAAAAAAAABIh9AAAAAAAAAAASITQAwAAAAAAAAAgEUIPAAAAAAAAAIBECD0AAAAAAAAAABIh9AAAAAAAAAAASITQAwAAAAAAAAAgEUIPAAAAAAAAAIBECD0AAAAAAAAAABIh9AAAAAAAAAAASITQAwAAAAAAAAAgEUIPAAAAAAAAAIBECD0AAAAAAAAAABIh9AAAAAAAAAAASITQAwAAAAAAAAAgEUIPAAAAAAAAAIBECD0AAAAAAAAAABIh9AAAAAAAAAAASITQAwAAAAAAAAAgEUIPAAAAAAAAAIBECD0AAAAAAAAAABIh9AAAAAAAAAAASITQAwAAAAAAAAAgEUIPAAAAAAAAAIBECD0AAAAAAAAAABIh9AAAAAAAAAAASITQAwAAAAAAAAAgEUIPAAAAAAAAAIBECD0AAAAAAAAAABIh9AAAAAAAAAAASITQAwAAAAAAAAAgEUIPAAAAAAAAAIBECD0AAAAAAAAAABIh9AAAAAAAAAAASITQAwAAAAAAAAAgEUIPAAAAAAAAAIBECD0AAAAAAAAAABIh9AAAAAAAAAAASITQAwAAAAAAAAAgEUIPAAAAAAAAAIBECD0AAAAAAAAAABIh9AAAAAAAAAAASITQAwAAAAAAAAAgEUIPAAAAAAAAAIBECD0AAAAAAAAAABIh9AAAAAAAAAAASITQAwAAAAAAAAAgEUIPAAAAAAAAAIBECD0AAAAAAAAAABIh9AAAAAAAAAAASITQAwAAAAAAAAAgEUIPAAAAAAAAAIBECD0AAAAAAAAAABJRMQEAAAAAHJg1H/sfRgAm3U0f+peolMqG2I/L7/pyXP+92wwBME7OXvzGuGz1uw0Bk0ToAQAAAAAH6JHfPWYEYNLleW6EV/H7TRvdswHGUe21C4wAk8hLtwAAAAAAAAAAJELoAQAAAAAAAACQCKEHAAAAAAAAAEAihB4AAAAAAAAAAIkQegAAAAAAAAAAJELoAQAAAAAAAACQCKEHAAAAAAAAAEAihB4AAAAAAAAAAIkQegAAAAAAAAAAJELoAQAAAAAAAACQCKEHAAAAAAAAAEAihB4AAAAAAAAAAIkQegAAAAAAAAAAJELoAQAAAAAAAACQCKEHAAAAAAAAAEAihB4AAAAAAAAAAIkQegAAAAAAAAAAJELoAQAAAAAAAACQCKEHAAAAAAAAAEAihB4AAAAAAAAAAIkQegAAAAAAAAAAJELoAQAAAAAAAACQCKEHAAAAAAAAAEAihB4AAAAAAAAAAIkQegAAAAAAAAAAJELoAQAAAAAAAACQCKEHAAAAAAAAAEAihB4AAAAAAAAAAIkQegAAAAAAAAAAJELoAQAAAAAAAACQCKEHAAAAAAAAAEAihB4AAAAAAAAAAIkQegAAAAAAAAAAJELoAQAAAAAAAACQCKEHAAAAAAAAAEAihB4AAAAAAAAAAIkQegAAAAAAAAAAJELoAQAAAAAAAACQCKEHAAAAAAAAAEAihB4AAAAAAAAAAIkQegAAAAAAAAAAJELoAQAAAAAAAACQCKEHAAAAAAAAAEAihB4AAAAAAAAAAIkQegAAAAAAAAAAJELoAQAAAAAAAACQCKEHAAAAAAAAAEAihB4AAAAAAAAAAIkQegAAAAAAAAAAJELoAQAAAAAAAACQCKEHAAAAAAAAAEAihB4AAAAAAAAAAIkQegAAAAAAAAAAJELoAQAAAAAAAACQCKEHAAAAAAAAAEAihB4AAAAAAAAAAIkQegAAAAAAAAAAJELoAQAAAAAAAACQCKEHAAAAAAAAAEAihB4AAAAAAAAAAIkQegAAAAAAAAAAJELoAQAAAAAAAACQCKEHAAAAAAAAAEAihB4AAAAAAAAAAIkQegAAAAAAAAAAJELoAQAAAAAAAACQCKEHAAAAAAAAAEAihB4AAAAAAAAAAIkQegAAAAAAAAAAJELoAQAAAAAAAACQCKEHAAAAAAAAAEAihB4AAAAAAAAAAIkQegAAAAAAAAAAJELoAQAAAAAAAACQCKEHAAAAAAAAAEAihB4AAAAAAAAAAIkQegAAAAAAAAAAJELoAQAAAAAAAACQCKEHAAAAAAAAAEAihB4AAAAAAAAAAIkQegAAAAAAAAAAJELoAQAAAAAAAACQCKEHAAAAAAAAAEAihB4AAAAAAAAAAIkQegAAAAAAAAAAJELoAQAAAAAAAACQCKEHAAAAAAAAAEAihB4AAAAAAAAAAIkQegAAAAAAAAAAJELoAQAAAAAAAACQCKEHAAAAAAAAAEAihB4AAAAAAAAAAIkQegAAAAAAAAAAJELoAQAAAAAAAACQCKEHAAAAAAAAAEAihB4AAAAAAAAAAIkQegAAAAAAAAAAJELoAQAAAAAAAACQCKEHAAAAAAAAAEAihB4AAAAAAAAAAIkQegAAAAAAAAAAJELoAQAAAAAAAACQCKEHAAAAAAAAAEAihB4AAAAAAAAAAIkQegAAAAAAAAAAJELoAQAAAAAAAACQCKEHAAAAAAAAAEAihB4AAAAAAAAAAIkQegAAAAAAAAAAJELoAQAAAAAAAACQCKEHAAAAAAAAAEAihB4AAAAAAAAAAIkQegAAAAAAAAAAJELoAQAAAAAAAACQCKEHAAAAAAAAAEAihB4AAAAAAAAAAIkQegAAAAAAAAAAJELoAQAAAAAAAACQCKEHAAAAAAAAAEAihB4AAAAAAAAAAIkQegAAAAAAAAAAJELoAQAAAAAAAACQCKEHAAAAAAAAAEAihB4AAAAAAAAAAIkQegAAAAAAAAAAJELoAQAAAAAAAACQCKEHAAAAAAAAAEAihB4AAAAAAAAAAIkQegAAAAAAAAAAJELoAQAAAAAAAACQCKEHAAAAAAAAAEAihB4AAAAAAAAAAIkQegAAAAAAAAAAJELoAQAAAAAAAACQCKEHAAAAAAAAAEAihB4AAAAAAAAAAIkQegAAAAAAAAAAJELoAQAAAAAAAACQCKEHAAAAAAAAAEAihB4AAAAAAAAAAIkQegAAAAAAAAAAJELoAQAAAAAAAACQCKEHAAAAAAAAAEAihB4AAAAAAAAAAIkQegAAAAAAAAAAJELoAQAAAAAAAACQCKEHAAAAAAAAAEAihB4AAAAAAAAAAIkQegAAAAAAAAAAJELoAQAAAAAAAACQCKEHAAAAAAAAAEAihB4AAAAAAAAAAIkQegAAAAAAAAAAJELoAQAAAAAAAACQCKEHAAAAAAAAAEAihB4AAAAAAAAAAIkQegAAAAAAAAAAJELoAQAAAAAAAACQCKEHAAAAAAAAAEAihB4AAAAAAAAAAIkQegAAAAAAAAAAJELoAQAAAAAAAACQCKEHAAAAAAAAAEAihB4AAAAAAAAAAIkQegAAAAAAAAAAJELoAQAAAAAAAACQCKEHAAAAAAAAAEAihB4AAAAAAAAAAIkQegAAAAAAAAAAJELoAQAAAAAAAACQCKEHAAAAAAAAAEAihB4AAAAAAAAAAIkQegAAAAAAAAAAJELoAQAAAAAAAACQCKEHAAAAAAAAAEAihB4AAAAAAAAAAIkQegAAAAAAAAAAJELoAQAAAAAAAACQCKEHAAAAAAAAAEAihB4AAAAAAAAAAIkQegAAAAAAAAAAJELoAQAAAAAAAACQCKEHAAAAAAAAAEAihB4AAAAAAAAAAIkQegAAAAAAAAAAJKJiAgAAAAA4MA+uu84IwKTrKPvS/qv5y7PfGX++4iJDAIyT7o4uI8Ak8qtBAAAAADhAh0x/jREAEjBtytSYNmWqIQCAluSlWwAAAAAAAAAAEiH0AAAAAAAAAABIhNADAAAAAAAAACARQg8AAAAAAAAAgEQIPQAAAAAAAAAAEiH0AAAAAAAAAABIhNADAAAAAAAAACARQg8AAAAAAAAAgEQIPQAAAAAAAAAAEiH0AAAAAAAAAABIhNADAAAAAAAAACARQg8AAAAAAAAAgEQIPQAAAAAAAAAAEiH0AAAAAAAAAABIhNADAAAAAAAAACARQg8AAAAAAAAAgEQIPQAAAAAAAAAAEiH0AAAAAAAAAABIhNADAAAAAAAAACARQg8AAAAAAAAAgEQIPQAAAAAAAAAAEiH0AAAAAAAAAABIhNADAAAAAAAAACARQg8AAAAAAAAAgEQIPQAAAAAAAAAAEiH0AAAAAAAAAABIhNADAAAAAAAAACARQg8AAAAAAAAAgEQIPQAAAAAAAAAAEiH0AAAAAAAAAABIhNADAAAAAAAAACARQg8AAAAAAAAAgEQIPQAAAAAAAAAAEiH0AAAAAAAAAABIhNADAAAAAAAAACARQg8AAAAAAAAAgEQIPQAAAAAAAAAAEiH0AAAAAAAAAABIhNADAAAAAAAAACARQg8AAAAAAAAAgEQIPQAAAAAAAAAAEiH0AAAAAAAAAABIhNADAAAAAAAAACARQg8AAAAAAAAAgEQIPQAAAAAAAAAAEiH0AAAAAAAAAABIhNADAAAAAAAAACARQg8AAAAAAAAAgEQIPQAAAAAAAAAAEiH0AAAAAAAAAABIhNADAAAAAAAAACARQg8AAAAAAAAAgEQIPQAAAAAAAAAAEiH0AAAAAAAAAABIRMUEAAAAO2VZFtO7p8X07p7ondITP3/ylzFUrxsGAAAAACgMoQcAANAypnR0xYyp02JGd290dXTGlI7OmNHdu/NtU3tjRvc+/5w6Lboqnbt+XG+8ZtpBUS7tfPDhPf/1H/En//JhowIAAAAAhSL0AAAACmF3pPFyeDFtxEhjZ8Sx5zG9MWvajKiUyk37fD5285VOCgAAAABQOEIPAACgYVM6ul75BI1hIo2dEUfnS0/T2B1pzOyZHh3l4vz25LYf3xc/ePwRJxYAAAAAKByhBwAA8MonaOwTabz0BI09XvJkd6Rx0NTe6Kx0tMwW9TyPv7/lKhcFAAAAAFBIQg8AAEjciJFGd290dXRG13BP2dgVaeyOOHjZTf/xnXjkiV8YAgAAAAAoJKEHAABMouEijT1fAmX6fgKOKR1dMbt3ZmRZZsgmGarX4xO3XmMIAAAAAKCwhB4AADBG+0YaXZXOvd42XKTx8jG9cXDvzCiJNArlCw98Mx576jeGAAAAAAAKS+gBAEBb2jPI2PMJGiNFGnsf0xuzps2ISqlsyBayfWBHfPK2aw0BAAAAABSa0AMAgOTsjjT2foLGtGEjjX2fsjFjam/M6pkelbJfCrO3a+69KX733AZDAAAAAACF5qvbAAAk5cbLPhnH9x1rCJpqy/at8a/fvs4QAAAAAEDhCT0AAEjGiUcuEnkwLq6464bYuPlZQwDwqj53/9eNAEy6S15/bpSyzBAAAG1K6AEAQDLed8aFRqDpnt/6Qnz6zusNAcAB+b+/9A9GACbd2mWro+TlKPfr9ocfiPsf/aEhAMbJCX0L47wTzzQETBK/EgQAIAmHzHhNrFlymiFoun/99nWx6cXNhgAAgBby4C/+My6/68uGABgnF518ttADJlHJBAAApOCdp5wfFX9jjSZ7+oVNcdX6Gw0BAAAAACRD6AEAQOF1VjriktevMQRN94+3XRNbtm81BAAAAACQDKEHAACFd8HSs+Lg3pmGoKmeeOYP8bn7vmEIAAAAACApQg8AAArvPaddYASa7hO3XhM7BgcMAQAAAAAkRegBAEChLT9qSVRfe5QhaKrHNvw2bvjetwwBAAAAACRH6AEAQKG99/QLjUDT/d3NV8ZgfcgQAAAAAEByhB4AABTWa2ceEisXv8EQNNXPnvxl3PzDuw0BAAAAACRJ6AEAQGG969Tzo1IqG4Km+v9u+kzU89wQAAAAAECSKiYAgOYpl0rRO6UnpndPi+ndPdE7Zdd/u3ti+pSX/33alKm7jpkW1953U9z643uNB/vo7uyKd7x+jSFoqu//8uG446cPGgIAAAAASJbQAwD2MKWjK2Z0T4sZU6fF9O7e6Kp0xpSOzpgxtXfn27t3vn3G1Gkxo3vn27o6dh3T3RsH986MUpaN6mN2litCDxjG205aFQdN7TUETfW3N19pBAAAAAAgaUIPAFrG7khjd3gxfVeIsWek8fK3e6OroyO6docd3b0xa9qMSXmJiGX9x8W8g18bj298wkmEPbzz1PONQFPd/bOH4v7//qEhAAAAAICkCT0AKIx9n6YxXKTx0hM2untj+tRpL0UaM3umR0c5zf9by7Is1i47298yhz2ctnBpHHvYfEPQVH//zauMAAAAAAAkT+gBQFPsL9J45cuf7B1pzJi685h29vaTVsXf33JVDNXrLiaIiPeefqERaKpbf3RP/OBXjxgCAAAAAEie0AOAYSONnS9/0jXsS57sGWl0dXTG9Ck9kWWZIRtw6IyD44yFJ8cdjzxoDNrevIMPjxWLlhmCpqnneXz81msMAQAAAAC0BKEHQOL2jTS6Kh073zZ119Mydn3f7m9Pn7r7CRs7f9zBvTOjJNIohIuXnyP0gIh492kXuC/RVDd+/9vxyBO/MAQAAAAA0BKEHgCTaHds0dXRGVMqnTH9padmvDLS2B1wTN8j2pg1bUZUSmVDtoiVtTfE7N5ZsWHzM8agbfV0TY2Llp1tCJpmcGgwPn7L1YYAAAAAAFqG0AOgQR3lSlQPPyp6u3ti+pRpMb27J3qn9MT0KT3Ru+vbL/93avRO6YkZU3ujd0qPv7HO3v+nXCrHBUvfFJ++83pj0LbWLjs7eqf0GIKm+cKDt8SvNv7OEAAAAABAyxB6ADRosD4UH7vkr2LBnD5j0LBLlq8RetC2siyLd516viFomu0DO+KTt33WEAAAAABASymZAKAxeZ7Hleu/agia4qg5c+OEvmMNQVt6U3V59M+Zawia5up7bownn9tgCAAAAACgpQg9AJrghu/fHs9u2WQImuLi5auNQFt6z2kXGIGm2bJ9a/zrt79gCAAAAACg5Qg9AJpg28D2+OwDNxuCpnjriWdGT1e3IWgrRx96ZJx6zOsMQdN85s7r4+kXnjMEAAAAANByhB4ATXLNfV+LgaFBQ9Cwnq7uWL3kVEPQVt5z2gWRZZkhaIpNL26Oy++6wRAAAAAAQEsSegA0yVPPPxNf/+FdhqAp3rHMy7fQPqZ3T4sLT1ppCJrmX759XWx6cbMhAAAAAICWJPQAaKLL1/vbwzTHsv7j4qg5cw1BW/ijN7w5pnZOMQRN8dTzz8RV679qCAAAAACgZQk9AJro4ScejQcf+5EhaIq3n7TKCLS8cqkUf/rG8wxB03zyts/G1h3bDQEAAAAAtCyhB0CTXX63p3rQHGuXnR2VUtkQtLRVi98Yc19zqCFoiiee+UNc98DNhgAAAAAAWprQA6DJvv3TB+KxDb81BA2b3TsrTl94kiFoae87/W1GoGk+fsvVsWNwwBAAAAAAQEsTegA0WT3P4+p7v2YImuLi5ecYgZa18LB5seyo4wxBUzy24bfxlYduNwQAAAAA0PKEHgDj4IvfvSWee3GzIWjYytobYnbvLEPQkv58xUVGoGn+9utXxGB9yBAAAAAAQMsTegCMg60D2+OL373FEDSsUirHBUvfZAhazqyeGXH+6840BE3xyO8ei1t+tN4QAAAAAEBbEHoAjJMr7/lqDA4NGoKGXbJ8jRFoOX/8xnOjq9JpCJrir2/6TNTz3BAAAAAAQFsQegCMk99v2hi3/OReQ9Cwo+bMjROPXGQIWkalXIk/PeU8Q9AU33vsJ3HnI981BAAAAADQNoQeAOPo3+683gg0xcXLzjECLePNx58Wh8442BA0xcduvtIIAAAAAEBbEXoAjKMf//a/4vuP/9QQNOz8E8+Mnq5uQ9AS3nv6hUagKdb//PvxwKP/aQgAAAAAoK0IPQDG2eXrbzACDevp6o7VS041BMk7bu7RXoqIpvm7b/67EQAAAACAtiP0ABhnt/3k3vj1008agoa9Y9lqI5C8Pzvj7UagKW5/+P74weOPGAIAAAAAaDtCD4BxNlSvxzX33WQIGras/7g4as5cQ5CsOdNnxbknnGEIGpbnefz9N68yBAAAAADQloQeABPg8w/eHJu3bTEEDXv7SauMQLL+9JTzoqNcMQQNu/k/746Hf/uoIQAAAACAtiT0AJgAW7Zvjeu/d5shaNjaZWdHpVQ2BMnprHTEH7/hXEPQsHqexz/eeq0hAAAAAIC2JfQAmCBXrP9KDNXrhqAhs3tnxRnHnmQIknPeiWfGwb0zDUHDvvrQ7fGzJ39pCAAAAACgbQk9ACbIb5/9Q3zr4fsNQcMuXrbaCCTn3ae91Qg0bKhej09+63OGAAAAAADamtADYAJdvv4GI9Cws2qvj9m9swxBMk6evziWzD3GEDTsiw/eEo899RtDAAAAAABtTegBMIEe+uVP4j9/83ND0JBKqRwXLH2TIUjGe0+/0Ag0bGBoMP75dk/zAAAAAAAQegBMsCvXf8UINOyPlr/ZCCTh0BkHx9mL32gIGvbZe78ev3n694YAAAAAANqe0ANggn3jR+vjyec2GIKG9M85Ik48cpEhKLx3n3ZBVMoVQ9CQ7QM74l+/fZ0hAAAAAABC6AEw4QaHBuOa+24yBA27eNk5RqDQpnR0xSXL1xiChv37+q/G7zdtNAQAAAAAQAg9ACbF5x74Rry4fashaMj5J54ZPV3dhqCw3nbSypjZM90QNGTL9q3xqTu+aAgAAAAAgF2EHgCTYNPWF+LL37/dEDSkp6s71iw5zRAU1rtOOd8INOzyO78cT7/wnCEAAAAAAHYRegBMkivWfyXqeW4IGnLxstVGoJBOOfrEOPbwfkPQkOe3vhCfuevLhgAAAAAA2IPQA2CSPL7xibjzZ981BA1Z1r84jpoz1xAUzntOv9AINOzf7vhSbHpxsyEAAAAAAPYg9ACYRJfffYMRaNhFJ68yAoVyxKxD4k2LlhuChjyzZVNccfdXDAEAAAAAsA+hB8Akuu/RH8ZPf/cLQ9CQi04+OyqlsiEojPeedmGUS36ZSWP+5fbrYsv2Fw0BAAAAALAPX4EHmGRXrv+qEWjI7N5ZccaxJxmCQujp6o6Ll682BA156vln4tp7v2YIAAAAAIBhCD0AJtnXfvideOr5ZwxBQy5e5g/WKYaLTj47eqf0GIKG/NO3Phdbd2w3BAAAAADAMIQeAJNsx+BAXHv/1w1BQ86qvT5m984yBJMqy7J416lvNQQN+d2zT8Xn7/+GIQAAAAAARiD0ACiAz97/9dg24G8uM3aVUjkuXHqWIZhUZxx7chw1Z64haMg/3Hpt7BgcMAQAAAAAwAiEHgAF8MyWTXHjf9xhCBpyyfI1kWWZIZg07zvtQiPQkMc3PhHXf+82QwAAAAAA7IfQA6Agrlj/lcjz3BCMWf+cI+LEIxcZgkkxb/Zr49SFSw1BQz5xyzUxODRoCAAAAACA/RB6ABTEf/3hV3HPf/+HIWjIxcvOMQKT4s9Of1uUPFGGBvz3738VX/N0KwAAAACAVyX0ACiQy+++wQg05LwTVkRPV7chmFDTpkyNC5euNAQN+ftvXhVD9bohAAAAAABehdADoEDu+vlD8bMnf2kIxqynqzvWLDnNEEyoS5a/OaZNmWoIxuxnT/4ybvnRekMAAAAAABwAoQdAwVx1741GoCEXL1ttBCbuF5NZFu869XxD0JC/+frlUc9zQwAAAAAAHAChB0DB3PD922Pj5mcNwZgt618cR82ZawgmxMrFb4y+1xxmCMbsP3/987jjpw8aAgAAAADgAAk9AApmx+BAXPfgNw1BQy46eZURmBDvPe0CI9CQv/n65ZF7mgcAAAAAwAETegAU0L/fe2NsH9xhCMbsopPPjkq5YgjG1cJD58XrjzreEIzZ9x77SdzzX/9hCAAAAACAURB6ABTQ0y88F1//4V2GYMxm986KFceeZAjG1XtPf1tkWWYIxuxjN19hBAAAAACAURJ6ABTUp+/6skfZ05CLl602AuPmoKm98dbXvckQjNmdj3wvHnj0R4YAAAAAABgloQdAQf38yV/GA7/wB2CM3Zuqy2N27yxDMC7++A1vie7OLkMwZp+45WojAAAAAACMgdADoMAuv/sGIzBmlVI5Llx6liEYl2vrnaecZwjG7NYf3xs/+NUjhgAAAAAAGAOhB0CB3fHIg/GLp35jCMbskuVrIssyQ9BUq5ecGocdNNsQjEme5/FxT/MAAAAAABgzoQdAgeV5Hlff+zVDMGb9c46IE49cZAia6j2nXWgExuymH9wZjzzxC0MAAAAAAIyR0AOg4L703Vvj2RefNwRjdvGyc4xA0yw+4ug4aX7NEIzJUL0e/3DrNYYAAAAAAGiA0AOg4LYObI8vPHiLIRiz805YET1d3YagKd53+tuMwJjd8NC34tE//NoQAAAAAAANEHoAJOCqe26MwaFBQzAmPV3d8ebjTzcEDXvNtIPi3BNcS4zN4NBg/OOt1xoCAAAAAKBBQg+ABPx+08a4+UfrDcGYefkWmuGdp5wXXZVOQzAm1z3wzfj1008aAgAAAACgQUIPgER85q4vG4ExO3n+4jhqzlxDMGYd5Ur8yRvfYgjGZPvAjvjnb33OEAAAAAAATSD0AEjEj3/73/HQ4w8bgjG76OSzjcCYnXfiipjdO8sQjMm1990Uv3tugyEAAAAAAJpA6AGQkCvuvsEIjNnbT1oVlVLZEIzJu0+9wAiMydYd2+Nfv/0FQwAAAAAANInQAyAht/3kvvjV008agjGZM31WrFh0siEYtaXzanF830JDMCZX33NjbHj+GUMAAAAAADSJ0AMgIUP1elx9z42GYMwuXrbaCIzae0+/wAiMyYs7tsWn7viiIQAAAAAAmkjoAZCYL3z3lti8bYshGJM3VZfHnOmzDMEBO2T6a2L1cacagjG54q4b4ukXnjMEAAAAAEATCT0AErNl+9b44ndvNQRjUimV48KlZxmCA/auU98alXLFEIzaC9tejE9/50uGAAAAAABoMqEHQIKuXP+VGKwPGYIxeceyNZFlmSF4VZ2Vjrjk9WsMwZh85s7r47kXNxsCAAAAAKDJhB4ACXri2afiWz+53xCMSf+cI+J1Ry4yBK/qwqUr4zXTDjIEo7Z525a44u6vGAIAAAAAYBwIPQASdcXdNxiBMbt42Woj8Krec9oFRmBMPnXHF2OTp3kAAAAAAIwLoQdAoh56/OH44a9/ZgjG5C0nnBE9Xd2GYESvX3B8LDq83xCM2rNbno8rPc0DAAAAAGDcCD0AEuax+IxVT1d3vPn40w3BiN532oVGYEz+7TtfjBe2vWgIAAAAAIBxIvQASNjNP1ofv3vuKUMwJhcvO8cIDOu1Mw+Js2pvMASj9syWTXHV+q8ZAgAAAABgHAk9ABI2VB+Kq++9yRCMycnzF8eCQ/oMwSu857QLolzyy0RG719uvy62bPc0DwAAAACA8eQr+ACJ+/wDN8eL27cagjF5+0mrjMBeuju7Yq2nvTAGG55/Jq6919M8AAAAAADGm9ADIHHPb30hrn/oW4ZgTNaefHZUyhVD8JKLTj4nDpraawhG7Z9v/3xs3bHdEAAAAAAA40zoAdACrlz/1ajnuSEYtYN7Z8aZx55sCCIiIsuyePepbzUEo/bU88/E5++/2RAAAAAAABNA6AHQAh7f+ETc8dMHDMGYXOxlOtjltIVLY8EhfYZg1D5527WxbcDTPAAAAAAAJoLQA6BFXH73DUZgTM6sLo8502cZgnjvaRcagVH73bNPxXUPfNMQAAAAAAATROgB0CIe+MWP4uEnHjUEo1YplePCpWcZos3Nm/3aOMPL+DAG/3jbtbFjcMAQAAAAAAATROgB0EKuWP8VIzAmlyxfE1mWGaKNvefUC6LkGmCUfvvM7+P6795mCAAAAACACST0AGghX/vBnfH7TRsNwajNn31EvO7IRYZoUz1dU+Oik882BKP2iVuuiYGhQUMAAAAAAEwgoQdACxkcGozP3v8NQzAmFy9bbYQ29Y7lq2PalKmGYFQe3/hEfOWh2w0BAAAAADDBhB4ALeba+26KF3dsMwSj9pYTzoierm5DtJksy+Kdp5xnCEbt49+8OgbrQ4YAAAAAAJhgQg+AFvP/s/df8VUX+L7//1lJ6B1EQEXBghQVpYr0jl1RsQAqTp9Rx9nl4n/zv/8/fr/zP2fvPXv23jODBeyFbkcUSOiiWMECKiggTaQmJFm/i7N/nmEgYaWsZJXn88pRSFZeX0aZydvP+uHooVi4cZkQ1FirZi3i+v6jhMgz4/sOjZ6dzxOCGtm6Z0csfu9tIQAAAAAAGoGhB0AO+uvyl6IymRSCGvP2Lfln1qipIlBj//9XHo+KykohAAAAAAAagaEHQA7aumdHrNzyrhDU2KCe/eLiLucLkScu6XJBXHPxlUJQI5/t+ipefn+5EAAAAAAAjcTQAyBHzV4xTwRq5fbBk0TIE7NG3RqJREIIauR/vPK4q1EAAAAAAI3I0AMgR6387N3YvHObENTY7YMmRlFhkRA5rl2L1nHLwPFCUCObd26LNz4sEQIAAAAAoBEZegDksMeLF4pAjZ3VpkOM7T1YiBx397Dro2XT5kJQI//Xkkdd8wAAAAAAaGSGHgA5bP67S2PvoQNCUGPThkwWIYcVFhTE9GtuEIIa+XD7Z/HWJ2uEAAAAAABoZIYeADmsrPxEPL3mFSGosbF9h8bZbTsKkaMmXz4iunfsKgQ18n+/8ngkXfMAAAAAAGh0hh4AOW5OyaIoLS8TghopKiiMqQMnCJGj7h95iwjUyMavPol3Pl0nBAAAAABABjD0AMhx+w7/EIvfe0cIauzOoVMikUgIkWP6nXtxDLnwciGokf/xyuMiAAAAAABkCEMPgDzwl+UvObdPjfXsfF4M7NFXiBwza9StIlAjG7Z9FMWfbRQCAAAAACBDGHoA5IHPdn0Vq7/cJAQ1Nm3IFBFySMfW7eLGq8YIQY38Xy8/JgIAAAAAQAYx9ADIE7NXzBOBGrvhytHRqlkLIXLEjGtujGZFTYUgZSWfvRdrvjAUBAAAAADIJIYeAHni7U/XxRe7vxGCGmnZtHlc33+UEDmgqLAo7r76OiGokX95fa4IAAAAAAAZxtADIE8kk8l4omShENSYt2/JDdf3HxXd2ncWgpQt37wh1n75gRAAAAAAABnG0AMgj7y0/s04cPRHIaiRQT37xcVdzhciy80aeasI1Mj/fPUJEQAAAAAAMpChB0AeOXaiNJ5d86oQ1NjtgyeJkMWu6N4rrrygtxCk7K2P18R7X38qBAAAAABABjL0AMgzTxQvjBMV5UJQI7cPmhhFhUVCZKmfj75dBFKWTCbjX16fKwQAAAAAQIYy9ADIM7t/3Bcvb1ohBDVyVpsOMbbPECGy0NltO8a1/UcKQcre+LAkNn2zRQgAAAAAgAxl6AGQh2Yvf0kEamzakMkiZKGZw2+KJq6xkKJkMhn/0zUPAAAAAICMZugBkIc++vaLWL/tIyGokbF9hsTZbTsKkUWaFjWJu6++TghS9vL7K+LTb78UAgAAAAAggxl6AOSp2cvniUCNFBUUxtSBE4TIIjcPGBdntekgBCmpTCbj3954UggAAAAAgAxn6AGQp978eFV8vW+nENTInUOnRCKRECJLzBx+kwikbPHGt2Pzzm1CAAAAAABkOEMPgDxVmUzGE8ULhaBGenY+Lwb16CdEFhhy4eVxRfdeQpCSisrK+F+vzxUCAAAAACALGHoA5LHn170WPx47LAQ1cseQySJkgVmjbhWBlC18963Y+v12IQAAAAAAsoChB0AeO1J6LJ5b95oQ1MgNV46OVs1aCJHBzulwdky87BohSElFZWX825tPCwEAAAAAkCUMPQDy3BPFC6O8skIIUtayafO44crRQmSwe4ffFEUFhUKQkgWueQAAAAAAZBVDD4A89+2B3fHGhyVCUCPThkwRIUO1aNos7hx6rRCkpKKyMv7omgcAAAAAQFYx9AAgZq+YJwI1MrBH37ikywVCZKBbB06MDq3aCkFK5m940zUPAAAAAIAsY+gBQGz8+pN47+tPhaBGbh88SYQMdO+Im0QgJRWVlfHvS58RAgAAAAAgyxh6ABAREY+udNWDmrlt0IQoKiwSIoOM6DUgenfrKQQpmbfhjdi2Z4cQAAAAAABZxtADgIiIePWDlbF9/y4hSNlZbTrEuD5DhMggs0bdKgIpcc0DAAAAACB7GXoAEBH/+5t+c1ctFoIamTZkiggZ4oJO58TYPkOFICUvrns9vtrzrRAAAAAAAFnI0AOAnzyz5uU4fPyoEKRsTJ/B0aVtJyEywH0jb4mCREIIzqi8ojz+fenTQgAAAAAAZClDDwB+cvj40XhpwxtCkLKigsKYOmiCEI2sVbOWcceQSUKQkhfXvxHf7NspBAAAAABAljL0AOAks1fMi4rKSiFI2bQhkyPhkkSjumPIpGjTvJUQnJFrHgAAAAAA2c/QA4CTbN+/K5Z9ukYIUtaz83kxqEc/IRpJIpGIe4ffJAQpeWHdG7F93y4hAAAAAACymKEHAKeYvWKeCNTItCGTRWgkY/sMiQvP7i4EZ1ReUR5/ess1DwAAAACAbGfoAcAp1n75QXywfYsQpOz6K0dH6+YthWgEs0beKgIpeX7ta655AAAAAADkAEMPAE7rseIFIpCylk2bxw39RwvRwHp2Pi9G9BogBGf0v695PCsEAAAAAEAOMPQA4LSWvL88dh3cKwQp8/YtDe9no6dGIpEQgjN6bu2rsWO/ax4AAAAAALnA0AOA0yqvKI8nVy0WgpQN6NE3LulygRANpG2L1nHrwAlCcEYnKsrjP956TggAAAAAgBxh6AFAlZ5avSSOlh0XgpTdMWSSCA3krquvjVbNWgjBGT275hXXPAAAAAAAcoihBwBV+uHooVjw7ltCkLLbBk2MosIiIdKssKAgZg6/SQjO6ERFefynax4AAAAAADnF0AOAav11xUtRmUwKQUo6tW4f4/oMESLNJvQbFt07dhWCM3pm9cvx7YHdQgAAAAAA5BBDDwCqtW3Pjli+eb0QpGzakCkipNmskbeKwBmVlZ+I/3jrWSEAAAAAAHKMoQcAZzR7xTwRSNmYPoOjS9tOQqTJpV17xNCLrhCCM3pm9cux84c9QgAAAAAA5BhDDwDOqOTzjfHpd1uFICVFBYUxddBEIdLkZ6Nvi0QiIQTVKi0vi/9c9pwQAAAAAAA5yNADgJQ8XjxfBFI2bcgkY4Q06NiqXdw0YKwQnNHTq1zzAAAAAADIVYYeAKRkwcZlsefQfiFISc/O58Xgnv2EqGd3D7sumjdpJgTVKi0vi/9yzQMAAAAAIGcZegCQkrLyE/H06peFIGXThkwRoR4VFRTGjGtuFIIzemrVkth1cK8QAAAAAAA5ytADgJTNWbUoSsvLhCAl1/UfFa2btxSinlzbf1R0a99ZCKpVWl4Wf172vBAAAAAAADnM0AOAlO0/fDAWbnxbCFLSsmnzuKH/aCHqyayRt4jAGT1Zstg1DwAAAACAHGfoAUCNzF7xUiSTSSFIybQhk0WoB5efd0kM6NFXCKpVWl4Wf37bNQ8AAAAAgFxn6AFAjXy266tY9cV7QpCSAT36xiVdLhCijh4YfZsInNHc4kWx++A+IQAAAAAAcpyhBwA1NnvFPBFI2R1DJolQB51at4/r+48SgmqVlpfFX955QQgAAAAAgDxg6AFAjb2zeX18sfsbIUjJbYMmRlFhkRC1NHP4TdG0qIkQVGtO8ULXPAAAAAAA8oShBwA1lkwm4/HiBUKQkk6t28f4vkOFqIUmhUUx/ZrrhaBaR8uOx38te14IAAAAAIA8YegBQK28tOHNOHDkoBCkZNqQKSLUwk1XjY3ObToKQbXmFi+KvYcOCAEAAAAAkCcMPQColeMnSuPpNa8IQUpG9x4cXdp2EqKG7h1xswhU62jZ8fjz2655AAAAAADkE0MPAGptbsmiOFFRLgRnVFRQGFMHTRSiBgb17Bf9z79UCKo1p3hh7Dv8gxAAAAAAAHnE0AOAWtv94754+f3lQpCSaUOnRCKRECJFs0ZNFYFqHS07Hn95+wUhAAAAAADyjKEHAHUye8VLIpCSnmedG4N7XiZECrq2OysmX3aNEFTriZULXPMAAAAAAMhDhh4A1MlH334Ra7/8QAhSMm3IFBFScN+Im6OosEgIqnS07Hj89Z0XhQAAAAAAyEOGHgDU2ewV80QgJdf1HxWtm7cUohrNmzSLu66+Tgiq9fiK+a55AAAAAADkKUMPAOrsrU9Wx9d7vxOCM2rZtHnceOUYIapx68Dx0aFVWyGo0pHSY/HX5a55AAAAAADkK0MPAOqsMpmMx4oXCEFKvH1L9e4bcbMIVOuxFfNi/+GDQgAAAAAA5ClDDwDqxQvrXosfjh4SgjO66oI+cUmXC4Q4jWsuuTJ6n3OhEFTpSOmxeNTbZQEAAAAA5DVDDwDqxdGy4/HCuteEICWuepze/SNuEYFqueYBAAAAAIChBwD15tGV86O8olwIzmjqoAlRVFgkxN84r2OXGN9vmBBU6UjpsXh0uWseAAAAAAD5ztADgHqz6+DeeO3DEiE4o06t28f4vkOF+Bv3j7wlCgv81oyqPbZiXuw/4poHAAAAAEC+890EAOrVn5e/IAIp8fYt/0eLps3i9sGThaBKR0qPxaMrXPMAAAAAAMDQA4B69uH2z2Lj158IwRmN7j04urTtJERE3DFkcrRv2UYIqvTEygWx/7BrHgAAAAAAGHoAkAaz/VvnpKCooDBuGzwp7zskEom4b8QtfkFQpaNlx+Ovy18UAgAAAACAiDD0ACANXv+wOLbv3yUEZ3TX0GsjkUjkdYNRlw6Ki87u7hcDVXLNAwAAAACAv2XoAUC9q6isjLkli4TgjM7v1C0G97wsrxvMGnmLXwhU6WjZ8fjrO655AAAAAADwfxh6AJAWz6x9JQ4dPyIEZ3TnkCl5+7X36HxujOo92C8CqjSneGHsO/yDEAAAAAAA/MTQA4C0OHz8aLy4/g0hOKPrrxwdbVu0zsuv/YGRU6Mgz9+6hqodLTsef3n7BSEAAAAAADiJoQcAafPoynlRUVkpBNVq3qRZXN9/VN593a2atYypgyb4BUCVnixZ5JoHAAAAAACnMPQAIG127N8dSz9ZLQRnNC0P377lrquvjdbNW3r4nNaxstL4s2seAAAAAACchqEHAGk1e/lLInBGV13QJ3p3uzB/fgOWSMS9I27y4KnSk6sWxd5DB4QAAAAAAOAUhh4ApNX6bR/Fpm+2CMEZ3TZoYt58reP7DYsLOp3joXNapeVl8dd3XhQCAAAAAIDTMvQAIO0eL54vAmd02+CJ0bSoSV58rbNG3uqBU6UnSxbH7oP7hAAAAAAA4LQMPQBIuyWbVsTOH/YIQbU6tmoX4/oMzfmvs1fXHjHs4v4eOKdVWl4Wf377eSEAAAAAAKiSoQcAaVdeUR5zVy0WgjOaNnRKzn+Ns0bdGolEwsPmtJ5atcQ1DwAAAAAAqlUkAQAN4enVS+LBCfdEy6bNxaBKoy8dHN3ad87ZCzDtWrSOmweM86A5rdLysvjzMtc8ACDTPTxphghAoytI+Hc4AQDymaEHAA3i4LHDMW/DmzHjmhvFoEqFBQVx68AJ8ae3nsnJr++ea24wdqJKT696OXYd3CsEAGS4f5hynwgAWeCWgeOj37kXCwGQJhecdY4I0IgMPQBoMLNXzIt7ht0QBd62gmrcNfTa+I9lz0Yymcyt33QVFMZMQyeqUFZ+Iv5r2XNCAAAA1JN+515s6AEA5Cz33QBoMF/t/Tbe2bxOCKp1fqduMbjnZTn3dU2+fHic0+FsD5jTema1ax4AAAAAAKTG0AOABvXoinkicEZ3DpmSc1/T/aNu9WA5rbLyE/GfrnkAAAAAAJAiQw8AGlTJ5+/FJ999KQTVuv7K0dG2Reuc+Xr6nXtxTl4poX48t/bV2PnDHiEAAAAAAEiJoQcADe6xlfNFoFrNmzSLG/qPzpmv54HRUz1UTutERXn851uueQAAAAAAkDpDDwAa3KL33o49h/YLQbWmDc2Nt2/p2Lpd3HDlaA+U03puzavx7YHdQgAAAAAAkDJDDwAaXFn5iXhy1RIhqNaV5/eO3t0uzPqvY+Y1N0azoqYeKKcoryiP/1zmmgcAAAAAADVj6AFAo3hy9eI4fqJUCKp1++CJWf36iwqL4u5h13uQnNbza1+LHft3CQEAAAAAQI0YegDQKPYfPhgLNy4TgmrdNmhSNC1qkrWv/8YrR0fXdmd5kJyivKI8/mPZs0IAAAAAAFBjhh4ANJpHV86LZDIpBFXq0KptjOszNGtf//0jb/EQOa3n170e2/e55gEAAAAAQM0ZegDQaD7b9XUUf75RCKo1beiUrHzdA3r0jf7n9/YAOUV5RXn8x1vPCAEAAAAAQK0YegDQqGavmCcC1Rp96eDo1r5z1r3uWa55UIUX17/hmgcAAAAAALVm6AFAo1qxZUN8vvtrIahSYUFBTB04Iatec5e2neLaK0Z6eJyivKI8/rTUNQ8AAAAAAGrP0AOARpVMJuOxlfOFoFp3Dr02EolE1rzemSNuiqLCIg+OU8zbsDS+2bdTCAAAAAAAas3QA4BGN2/D0th3+AchqNL5nbrFkAsvz4rX2rSoSdw19FoPjVNUVFbGn95yzQMAAAAAgLox9ACg0ZWWl8Uza14RgmpNGzIlK17nLQPHx1ltOnhgnGLehjfiqz3fCgEAAAAAQJ0YegCQER4vXhCl5WVCUKXr+4+Kti1aZ/zrnDXyVg+LU1RUVsaflj4rBAAAAAAAdWboAUBG2Hf4h3j5/eVCUKXmTZrFDf1HZ/RrHHrRFdHnnAs9LE6x4N2lsW3PDiEAAAAAAKgzQw8AMsafl78YyWRSCKo0bWhmv33LA6OmekicoqKyMv596TNCAAAAAABQLww9AMgYW3Zui7VbPxCCKl15fu/o3S0zL2ac26FLTOg3zEPiFAs3vhVbv98uBAAAAAAA9cLQA4CMMnvFPBGo1u2DJ2bk67pvxM1RWOC3VpysorIy/vjm00IAAAAAAFBvfDcCgIzy1idr4kv/5jvVuG3QpGha1CSjXlOLps0y/m1laByLNi5zzQMAAAAAgHpl6AFARkkmkzGnZKEQVKlDq7Yxvu/VGfWapg6aGO1btvFwOMn/vubxlBAAAAAAANQrQw8AMs4L616PA0d/FIIqTRuSWdczZg6/yUPhFEvef8eFIgAAAAAA6p2hBwAZ59iJ0nh+7WtCUKXRvQdHt/adM+K1jLx0YPTu1tND4SSVyWT8aenTQgAAAAAAUO8MPQDISI8XL4jyinIhOP1vYBKJmDpwQka8llkjb/VAOMWS996OLTu/EgIAAAAAgHpn6AFARtp1cG+8+mGxEFTprquvi0Qi0aivocdZ58SYPkM8DE5SmUzGv7vmAQAAAABAmhh6AJCxZq94SQSq1L1j1xh64RWN+hruHXFLFDTy2ITM88qmFa55AAAAAACQNoYeAGSsTd9siQ1ffSwEVbpjyORG+9ytmrWMO4ZM8hA4STKZjD+++ZQQAAAAAACkjaEHABnt0RXzRKBK1/cfFW1btG6Uz33n0MnRpnkrD4GTvP5hSWz+bqsQAAAAAACkjaEHABntjY9K4pt9O4XgtJo3aRY3XDmmwT9vIpGImcNv8gA4xZ+WPi0CAAAAAABpZegBQEarqKyMOSULhaBKdzbC27eM6zM0enY+T3xOsvTj1fHB9s+EAAAAAAAgrQw9AMh4z659NQ4dPyIEp9X//N7Ru9uFDfo57x91i/Cc4t/eeEoEAAAAAADSztADgIx3pPRYvLD+dSGo0h1DJjXY57qkywUx4pIBonOS5ZvXx6ZvNgsBAAAAAEDaGXoAkBUeWzk/yisrhOC0pg6cGE2LmjTI55o16pZIJBKic5I/vumaBwAAAAAADcPQA4CssGP/7njzo1VCcFodWrWN8X2vTvvnaduiddwycILgnKTks/di/daPhAAAAAAAoEEYegCQNR5dMU8EqjRtyJS0f467r74uWjZtLjYn+dc35ooAAAAAAECDMfQAIGts+OrjeP+bzUJwWqN7D45u7Tun7eMXFhTEjOE3Cs1J3t32caz98gMhAAAAAABoMIYeAGSVx1bOF4HT/6YmkYjbBk1M28efdNnw6N6xq9Cc5H++9oQIAAAAAAA0KEMPALLKy5tWxM4f9gjBad159bWRSCTS8rFnjbxVYE7y3tefRvFnG4UAAAAAAKBBGXoAkFUqKitiTskiITit7h27xtCLrqj3j9u7W88YctHlAnOSf3l9rggAAAAAADQ4Qw8Ass7Ta16Oo6XHhOC0pg2ZUu8f82ejbxOWk3y04/NYvnm9EAAAAAAANDhDDwCyzo/HDseLG94UgtO6rv/IaNuidb19vI6t28VNA8YKy0n+5fW5kUwmhQAAAAAAoMEZegCQlR5bOT8qfZOV02jepFnccOWYevt404fdEM2KmgrLTz797stY+vFqIQAAAAAAaBSGHgBkpa/2fhtvf7pWCE7rrquvrZePU1hQEPcMu15QTvKvbzzpmgcAAAAAAI3G0AOArDV7xUsicFpXdO8VA3v0q/PHGXbxldGtfWdB+cnnu76O1z8oFgIAAAAAgEZj6AFA1lr9xab45LsvheC0Zo26tc4f46arxgrJSf71jSe9bRQAAAAAAI3K0AOArPboinkicFpTrhhRp2scTYuaxJQrRgjJT7bt+TZe2bRcCAAAAAAAGpWhBwBZbdF7b8f3P+4XglMUFRTGvcNvqvXPH9d3aLRt0VpIfvJvbzwZFZWVQgAAAAAA0KgMPQDIaicqymPuqkVCcFp3XX1dNCtqWqufe6O3beFvfL33u1i0cZkQAAAAAAA0OkMPALLek6sWx7ETpUJwig6t2saEflfX+Oe1bt4yxvcdKiA/+felT0d5ZYUQAAAAAAA0OkMPALLeD0cPxcKNbwnBad02eFKNf86Uy0dE8ybNxCMiIr478H3M37BUCAAAAAAAMoKhBwA54S/vvBjJZFIITjGq96A4u23HGv2cmweME46f/HHp03GiolwIAAAAAAAygqEHADlh654dsWLLBiE4RVFBYdwycHzKP75j63Yx7JIrhSMiInb+sCdeXPe6EAAAAAAAZAxDDwByxqMr54vAaU0dNDHlH3vjlWOiqKBQNCIi4j+XPRdl5SeEAAAAAAAgYxh6AJAzVn72bny262shOEXvbj2jZ+fzUvqxNw0YKxgREfH9j/vj2dWvCAEAAAAAQEYx9AAgZySTyXh05TwhOK1rrxh5xh/TpW2nGHBBX7GIiIj/WvZclJaXCQEAAAAAQEYx9AAgp8x/d2nsPXRACE4x5YoRZ/wx4/sNi0QiIRax/8jBeHaNax4AAAAAAGQeQw8AckpZ+Yl4xjdnOY0ruveK7h27VvtjJvS7WigiIuLPy56PI6XHhAAAAAAAIOMYegCQc+auWhxl5SeE4BQT+g2r8q+1bNo8rrnkSpGIA0d+jLkli4QAAAAAACAjGXoAkHP2HNofi957WwhOMbr3oCr/2vBeA6J5k2YiEbOXv+SaBwAAAAAAGcvQA4Cc9JflL0YymRSCkwy9qH80K2p62r82otcAgYhDx4/EnOKFQgAAAAAAkLEMPQDISZ/t+ipWf7lJCE7SommzGHzhZaf9a8Mu7i8QMXv5S/HjscNCAAAAAACQsQw9AMhZs1e8JAKnGHXpqW/f0ql1+7ikywXi5LnDx4/GYyvmCwEAAAAAQEYz9AAgZ73z6brYtmeHEJxk5KUDT/lzwy7uH4lEQpw890Txgjh49JAQAAAAAABkNEMPAHJWZTIZj630b+dzsku79Yy2LVqf9OcG9uwnTJ47UnosZr/jChAAAAAAAJnP0AOAnPbi+jfiwNEfheD//OYnkYhBfzfsuOy8S4TJc3NLFsX+IweFAAAAAAAg4xl6AJDTjp0ojWfXvCIEJxl84eX/5zdDiUT0PedCUfJYaXlZPLrcNQ8AAAAAALKDoQcAOW9OyaIorygXgp8M/ZuhR4/O50WrZi1FyWNPlSyO73/cLwQAAAAAAFnB0AOAnLfr4N54+YMVQvCTy867JJoUFkVExKVdewiSx0rLy+K/3n5eCAAAAAAAsoahBwB5Yba3ZeBvNC1qEn3PvSgiIs7r2EWQPPbs6ldi98F9QgAAAAAAkDWKJAAgH3y44/PYsO2jGNTzMjGIiIj+518am77ZEud2MPTIV+UV5fHnt18QAgCokev/x29EABrdwj/8MYoKCoWoxqMr5sVL698UAiBNJl52TTwyeaYQ0EgMPQDIG7NXzDP04Cf9u18aERHnuuiRt55f+1p8e2C3EABAjXz87RciAI0umUyKcAY7f9jj79kAadTnnAtFgEbkrVsAyBtvfrwqvtm3UwgiIuKy83pFRMTZbTqKkYfKKyviP5Y9KwQAAAAAAFnH0AOAvFFRWRmPFy8QgoiIuOjs86JJYVG0bt5SjDy0YMPS2L5vlxAAAAAAAGQdQw8A8srz616LQ8ePCEEUFRZFz87nRcumzcXIM5XJZPzpLdc8AAAAAADIToYeAOSVI6XH4rm1rwlBRET06tojWjVrIUSeeeX95bH1++1CAAAAAACQlQw9AMg7T5QsiPLKCiGIS7v1iMKCQiHySDKZjD8ufVoIAAAAAACylqEHAHlnx/7d8eZHq4QgenXtEScqyoXII0s/Xh2bv9sqBAAAAAAAWcvQA4C8NHvFSyIQvbr2iLLyE0LkkT+++ZQIAAAAAABkNUMPAPLSu199Eu99/akQee6Cs86JwgK/HcoXKzZviE3fbBECAAAAAICs5jsbAOStR1fOEyHffyOUSETHVu2EyBOueQAAAAAAkAsMPQDIW69+UBzf/fC9EHkukUiIkAfWfvlBrNv6oRAAAAAAAGQ9Qw8A8lZFZUU8UbxQCMgDrnkAAAAAAJArDD0AyGtPr3k5Dh8/KgTksE3fbI6VW94VAgAAAACAnGDoAUBeO3z8aLy04Q0hIIf92xuueQAAAAAAkDsMPQDIe7NXzIuKykohIAd9+t2X8dYna4QAAAAAACBnGHoAkPe2798Vyz71jWDIRX988+lIJpNCAAAAAACQMww9ACD+91UPILd8+f32eHXTCiEAAAAAAMgphh4AEBFrv/wgPti+RQjIIf/+5tNR6ZoHAAAAAAA5xtADAP7b48ULRYAc8c2+nbFo4zIhAAAAAADIOYYeAPDfFr//Tuw6uFcIyAH/8dYzUV5ZIQQAAAAAADnH0AMA/lt5RXk8tXqJEJDldv6wJ15c94YQAAAAAADkJEMPAPgbT65aHEfLjgsBWey/lj0XJyrKhQAAAAAAICcZegDA3/jh6KFY8O5bQkCW2nvoQDy75lUhAAAAAADIWYYeAPB3/rripahMJoWALPSXd16I4ydKhQAAAAAAIGcZegDA39m2Z0es2LJBCMgyPxw9FE+WLBECAAAAAICcZugBAKcxe8VLIkCWeXT5vDhSelQIAAAAAABymqEHAJxG8Wcb49PvtgoBWeLw8aPxRPECIQAAAAAAyHmGHgBQhceL54sA2fLf15UL4uDRw0IAAAAAAJDzDD0AoAoLNi6LPYf2CwEZ7mjZ8Xh0xTwhAAAAAADIC4YeAFCFsvIT8fTql4WADPfUqiWx//BBIQAAAAAAyAuGHgBQjbmrFkdpeZkQkKHKyk/EX995UQgAAAAAAPKGoQcAVGPf4R9i0XtvCwEZ6tk1r8bug/uEAAAAAAAgbxh6AMAZ/HX5S5FMJoWADFNeUR5/fvt5IQAAAAAAyCuGHgBwBp/t+ipWffGeEJBhXlr/ZuzYv1sIAAAAAADyiqEHAKRg9op5IkAGqaisjP9c5poHAAAAAAD5x9ADAFLwzub18cXub4SADLHk/Xdi254dQgAAAAAAkHcMPQAgBclkMh4vXiAEZMh/H/9j6bNCAAAAAACQlww9ACBF8za8GQeO/igENLLXPyyJzTu3CQEAAAAAQF4y9ACAFB07URrPrHlFCGhkf1r6jAgAAAAAAOQtQw8AqIE5xQvjREW5ENBI3v5kXXyw/TMhAAAAAADIW4YeAFADu3/cF0veXy4ENJI/veWaBwAAAAAA+c3QAwBqaPaKl0SARrDq8/dj/daPhAAAAAAAIK8ZegBADX2044tYt/VDIaCB/fHNp0QAAAAAACDvGXoAQC38dbmrHtCQ3vv601j1+ftCAAAAAACQ9ww9AKAWln68Or7e950Q0ED+9fUnRQAAAAAAgDD0AIBaqUwm4/GVC4SABvDJt1/GO5vXCwEAAAAAAGHoAQC19vy61+PHY4eFgDT71zeejGQyKQQAAAAAAIShBwDU2pHSY/Hs2leFgDT6Yvc38caHJUIAAAAAAMB/M/QAgDp4bMX8KK8oFwLS5E9Ln4lK1zwAAAAAAOAnhh4AUAc7D+6N11wbgLTYvm9XLNr4thAAAAAAAPA3DD0AoI7+8s6LIkAa/Oey56K8skIIAAAAAAD4G4YeAFBHm7Zvife+/lQIqEd7Du2Pl9a/KQQAAAAAAPwdQw8AqAezV8wTAerRn5e9EMdPlAoBAAAAAAB/x9ADAOrBqx+sjO37dwkB9eCHo4fi6dWvCAEAAAAAAKdh6AEA9aCisjLmlCwSAurB4yvmx5HSo0IAAAAAAMBpGHoAQD15Zs0rcfi4b05DXRwtOx5zio2mAAAAAACgKoYeAFBPDh8/Gi+sf0MIqIM5xQtj/5GDQgAAAAAAQBUMPQCgHj26Yl5UVFYKAbVQVn4iHlsxXwgAAAAAAKiGoQcA1KPt+3fF0o9XCwG18NzaV2P3wX1CAAAAAABANQw9AKCezV7xkghQQ+UV5fFfy54XAgAAAAAAzsDQAwDq2bqtH8Wmb7YIATWwcOOy2LF/txAAAAAAAHAGhh4AkAaPrZwvAqSoMpmM/1r2ghAAAAAAAJACQw8ASIMlm1bEzoN7hYAUvPbByvhs11dCAAAAAABACgw9ACANyivKY27JIiEgBf/51nMiAAAAAABAigw9ACBNnlq1JI6WHRcCqrF88/r4YPtnQgAAAAAAQIoMPQAgTQ4eOxzzNrwpBFTj3998RgQAAAAAAKgBQw8ASKO/Lp8XlcmkEHAaG7/6JNZt/VAIAAAAAACoAUMPAEijr/Z+G+9sXicEnMa/vP6kCAAAAAAAUEOGHgCQZrOXzxMB/s4n334ZK7ZsEAIAAAAAAGrI0AMA0qzk8/fi0++2CgF/449vPh1Jb2sEAAAAAAA1ZugBAA3g0ZXzRYD/9uX32+O1D1YKAQAAAAAAtWDoAQANYOHGZbHn0H4hICL+tPTZqHTNAwAAAAAAasXQAwAaQFn5iXhy1RIhyHs7f9gTizYuEwIAAAAAAGrJ0AMAGsjcVYvj+IlSIchrf1r6bJyoKBcCAAAAAABqydADABrI/sMHY+HGt4Ugb+09dCBeWPe6EAAAAAAAUAeGHgDQgGaveCmSyaQQ5KW/vvOSqzYAAAAAAFBHhh4A0IA+2/V1FH/+nhDknUPHj8RTq5YIAQAAAAAAdWToAQANbPbyl0Qg7zy6fH4cOn5ECAAAAAAAqCNDDwBoYMu3bIjPd38tBHnjaNnxeGLlAiEAAAAAAKAeGHoAQANLJpPx2Ir5QpA3nlq1JPYfOSgEAAAAAADUA0MPAGgE8959yze+yQtl5Se8XREAAAAAANQjQw8AaATHT5TG06tfFoKc98K612PXwb1CAAAAAABAPTH0AIBG8njxwigrPyEEOauisjL+8s4LQgAAAAAAQD0y9ACARrL30IFYsmm5EOSsRe+9HV/t/U4IAAAAAACoR4YeANCI/vz2i5FMJoUg5ySTyfjPt54VAgAAAAAA6pmhBwA0os07t8barR8IQc5546NVsWXXV0IAAAAAAEA9M/QAgEY2e/k8Ecg5f3rrGREAAAAAACANDD0AoJEt/WRNbP1+hxDkjJVb3o1N32wRAgAAAAAA0sDQAwAaWTKZjCdKFgpBzvh31zwAAAAAACBtDD0AIAM8v+61+OHoISHIeu99/Wms+WKTEAAAAAAAkCaGHgCQAY6VlcZza18Tgqz3b28+JQIAAAAAAKSRoQcAZIjHVs6P8opyIchan363Nd7+dJ0QAAAAAACQRoYeAJAhdh3cG69+UCwEWeuJ4gWRTCaFAAAAAACANDL0AIAM8pflL4pA1hrde7AIAAAAAACQZoYeAJBBPtj+Wbz71SdCkJWmXD4i+p57kRAAAAAAAJBGhh4AkGFmL39JBLJSIpGIRybNFAIAAAAAANLI0AMAMszrH5XEN/t2CkFWmnT58Oh//qVCAAAAAABAmhh6AECGqaisjHkblgpB1np40gwRAAAAAAAgTQw9ACADjeg1QASy1vi+V8eVF/QWAgAAAAAA0sDQAwAyzMhLB8agnv2EIKs9MmmmCAAAAAAAkAaGHgCQYR6aMF0Est6YPkNicM/LhAAAAAAAgHpm6AEAGWT4JVfFkAt9c5zc8PCkGSIAAAAAAEA9M/QAgAzy8ETXPMgdIy8dGEMuulwIAAAAAACoR4YeAJAhBvXsF0MvukIIcsojk+4VAQAAAAAA6pGhBwBkiD9M9g1xcs81l1wZV1/cXwgAAAAAAKgnhh4AkAEG9Ogbwy+5Sghy0j9dO0sEAAAAAACoJ4YeAJABHpk0QwRy1qCe/WJ4L0MmAAAAAACoD4YeANDIrjy/d4y6dJAQ5LR/mHKfCAAAAAAAUA8MPQCgkf3eNQ/ywMCe/WLkpQOFAAAAAACAOjL0AIBGdNl5F8eY3oOFIC/88/UPRCKREAIAAAAAAOrA0AMAGtHvJ830jW/yxhXde8VowyYAAAAAAKgTQw8AaCR9z70oJvS9Wgjyyj9ee79xEwAAAAAA1IGhBwA0kocnTvcNb/LO5d0vifF9hwoBAAAAAAC1ZOgBAI2gV9cLYtJlw4UgL/3h2vuMnAAAAAAAoJYMPQCgETw8cUYU+EY3earfuRfHxMuuEQIAAAAAAGrB0AMAGtjFXc6P6/qPEoK89o/X3m/sBAAAAAAAtWDoAQAN7KEJ9/gGN3nv0m49YvIVI4QAAAAAAIAaMvQAgAbU46xz4/orRwsBEfGHKfcaPQEAAAAAQA0ZegBAA3p40vQoKigUAiKiV9cecZ3hEwAAAAAA1IihBwA0kAs6nRM3XTVWCPgbj0ye6aoHAAAAAADUgKEHADSQByfc7ZoH/J2Lu5wfNxpAAQAAAABAygw9AKABnNuhS9wycLwQcBqPTLnXCAoAAAAAAFJk6AEADeDBCXdHk8IiIeA0enY+N24a4KoHAAAAAACkwtADANKsW/vOcfvgSUJANR6ePNNVDwAAAAAASIGhBwCk2e/G3+WaB5xBj7POiVsHTRACAAAAAADOwNADANLo7LYd444hk4WAFDwyZaZRFAAAAAAAnIGhBwCk0e/G3x3NipoKASk4t0OXuG3wRCEAAAAAAKAahh4AkCad23SMO4dOEQJq4OFJM1z1AAAAAACAahh6AECa/GbctGjepJkQUAPndDg77jCQAgAAAACAKhl6AEAanNWmQ9x99fVCQC08NPGeaFrURAgAAAAAADgNQw8ASINfjrk9WjR1zQNqo1v7znHX1dcKAQAAAAAAp2HoAQD1rEOrtjF92A1CQB08OHG6tz4CAAAAAIDTMPQAgHr2yzG3R6tmLYSAOji7bce4e9h1QgAAAAAAwN8x9ACAetS+ZZu4d/jNQkA9+O2Eu7wFEgAAAAAA/B1DDwCoRz8bdZtrHlBPOrfpGPd4GyQAAAAAADiJoQcA1JM2zVvFfSNuEgLq0e8m3G08BQAAAAAAf8PQAwDqyc9GT422LVoLAfWoY+t2MWP4jUIAAAAAAMB/M/QAgHrQunnLmDXyViEgDX41blq0atZSCAAAAAAACEMPAKgXD4y8Ndq55gFp0bFVu7jX2yIBAAAAAEBEGHoAQJ21atYi7h95ixCQRr8ce0e0bu6qBwAAAAAAGHoAQB3dN+Lm6NiqnRCQRh1atY1Zo7w9EgAAAAAAGHoAQB20bNo8fjZqqhDQAH4x5vZo6y2SAAAAAADIc4YeAFAHM4ffGJ1atxcCGkDbFq3jAVc9AAAAAADIc4YeAFBLzYqaxs9G3SYENKCfjbkt2rdsIwQAAAAAAHnL0AMAamnGNTfE2W07CgENqE3zVvHAaG+XBAAAAABA/jL0AIBaaFbUNH459g4hoBH8bPRt0bF1OyEAAAAAAMhLhh4AUAv3DLsuurTtJAQ0glbNWsTPRnvbJAAAAAAA8pOhBwDUUNOiJvHLsdOEgEY0a9St0al1eyEAAAAAAMg7hh4AUEN3Dp0S3dqdJQQ0opZNm8fPx9wuBAAAAAAAecfQAwBqoKiwKH41xjUPyAT3jbw5zmrTQQgAAAAAAPKKoQcA1MAdgyfFeR27CAEZoGXT5vGrcYZXAAAAAADkF0MPAEhRUWFR/GbcXUJABrl3xE3RpV0nIQAAAAAAyBuGHgCQoqkDx0f3jl2FgAzSrKhp/Gqsqx4AAAAAAOQPQw8ASEFhQUH8euydQkAGmj78huja7iwhAAAAAADIC4YeAJCCWwaMj56dzxMCMlCzoqbx6/GGWAAAAAAA5AdDDwA4g8KCgvjt+LuFgAx2z7Dro1v7zkIAAAAAAJDzDD0A4AxuvHJMXOiaB2S0pkVN4ncTDLIAAAAAAMh9hh4AUN0/KBOJ+M24u4SALHDX1ddG905dhQAAAAAAIKcZegBANa7rPyp6de0hBGSBosKi+I23WQIAAAAAIMcZegBAFRKJRPzON40hq0wbMjnO79RNCAAAAAAAcpahBwBUYcrlI6J3twuFgCxSVFgUv5twjxAAAAAAAOQsQw8AOI1EIhG/GXeXEJCFbh8yOXp2Pk8IAAAAAABykqEHAJzGhL7D4vLzLhECslBhQUE8ONFVDwAAAAAAcpOhBwCcxoMT7hYBstgtAyfEhWd3FwIAAAAAgJxj6AEAf2dc36FxRfdLhYAsVlhQEA9NnC4EAAAAAAA5x9ADAP7Ob8e55gG54KYB4+LiLucLAQAAAABATjH0AIC/Mbr34BjYo68QkAMKCwri4UkzhAAAAAAAIKcYegDA33hwvGsekEtuuGps9D7nQiEAAAAAAMgZhh4A8N+GXzIgBvW8TAjIpd/sJhLx0MTpQgAAAAAAkDMMPQDgvz3sm8GQk67rPyr6nHOREAAAAAAA5ARDDwCIiKsv6h9DLrxcCMhBiUQifj95phAAAAAAAOQEQw8AiIiHJ84QAXLY5MuHxxXdewkBAAAAAEDWM/QAIO8N7NE3hl3cXwjIYYlEIh6aZNAFAAAAAED2M/QAIO89MuleESAPTLzsmuh/fm8hAAAAAADIaoYeAOS1qy7oEyN6DRAC8sTvJ88UAQAAAACArGboAUBee3iit3KAfDKu79C48oI+QgAAAAAAkLUMPQDIW5ede3GMvnSQEJBn/jDF2zUBAAAAAJC9DD0AyFuPTL43EomEEJBnRvceHEMuvFwIAAAAAACykqEHAHmp7zkXxbg+Q4WAPPXw5JkiAAAAAACQlQw9AMhLD0+a4ZoH5LERvQbE0IuuEAIAAAAAgKxj6AFA3unV9YKY2O8aISDP/dN1D4gAAAAAAEDWMfQAIO88MuneKHDNA/Le4Asvi6sv7i8EAAAAAABZxdADgLzSq+sFMfnyEULkqWQyKQIn+Ydr7xcBAAAAAICsYugBQF55cMJ01zzyVFn5ifhq73dCcJIhF14eI3oNEAIAAAAAgKxh6AFA3uhx1rlx3RWjhMhTOw/uia/3fisEp3DVAwAAAACAbGLoAUDe+P3EGVFY4B99+eq7A9/H1/t2CsEpBvToG6N6DxICAAAAAICsUCQBAPnggk7nxA1XjREij333w5742lu3UIV/uu6BWLnl3Ugmk2IAANVa/f99WgSg0TUp9H/tn8nDk2bEA6OmCgGQJi2btRABGpHfDQKQFx6ccE8UFRQKkce+O/C9oQdVuqJ7rxjbZ0gs+2StGABAtbq17ywCQBZo07xVtGneSggAICe5Xw9Azju/U7e4ZeB4IfLctj074ut9hh5U7ZEp90UikRACAAAAAICMZugBQM777bi7XPMgvvx+e+zYv9tbc1ClK7r3ign9hgkBAAAAAEBGM/QAIKed0/7smDpoohDE1u93xPETpbH/yEExqNIjU+511QMAAAAAgIxm6AFATvvd+LujSWGREHnu+x/3x6HjRyIi4pt9OwWhSv3OvTgmXTZcCAAAAAAAMpahBwA5q1v7znH74ElCEJ/t+uq0fwyn84cp90aBqx4AAAAAAGQoQw8Actavx94ZTYuaCEFs2PbxT3/8+a5vBKFavc+5MKZcMVIIAAAAAAAykqEHADmpS9tOcefQKUIQERHrt3740x9//O0XgnBGj7jqAQAAAABAhjL0ACAn/WrstGhW1FQIoryiPN77+tOf/vP733waJyrKhaFavbr2iOuvHCMEAAAAAAAZx9ADgJxzVpsOcdfV1wlBRER8sP2zOFp2/Kf/fKysND7e4aoHZ/YP194XhQV+uwwAAAAAQGbx/1wDkHN+OeaOaNGkmRBERMS6v3nblv/X2q0fCMMZ9ex8Xtx41VghAAAAAADIKIYeAOSUTq3bx/RhNwjBT9Z8eeqo461P1ghDSn4/eaarHgAAAAAAZBT/rzUAOeUXo2+Plk2bC0FERBwpPRarP3//lD//7raPY/+RgwJxRj07nxe3DBwvBAAAAAAAGcPQA4Cc0aFl25hxzY1C8JMVWzZEaXnZKX++orIy3v5krUCk5OFJM6OooFAIAAAAAAAygqEHADnjZ6Nvi1bNWgjBT5Z+tLrKv/bGR6sEIiUXnHVOTB08UQgAAAAAADKCoQcAOaFdi9Zx3/CbheAnJyrKY+nHVQ893v50XRw8dlgoUvLQxBlRVFgkBAAAAAAAjc7QA4Cc8MCoqdG6eUsh+Mk7ZxhylJWfiJfff0coUtK9U9e4Y8gkIQAAAAAAaHSGHgBkvTbNW8V9I24RgpMs3Pj2GX/MvA1LhSJlD02cEU2LmggBAAAAAECjMvQAIOvNGnlrtGvRWgh+crTseCz7ZM0Zf9yGbR/Htj07BCMl53Q4O+4YMkUIAAAAAAAalaEHAFmtdfOWMWvkrUJwkpffXx5Hy46n9GPnv/uWYKTswYn3uOoBAAAAAECjMvQAIKvdN/zmaN+yjRCc5NEV81L+sc+ueSXKK8pFIyXd2neOu4ddLwQAAAAAAI3G0AOArNWyafN4YORUITjJ2i8/iE+/25ryj//+x/3x+kerhCNlv5twTzRv0kwIAAAAAAAahaEHAFnr3uE3R8fW7YTgJI+tnF/jn/NkyWLhSNnZbTvGPa56AAAAAADQSAw9AMhKLZo0i5+Pvk0ITvLdge9j6Uera/zzVn/xfmzZ+ZWApOw3E+6KFk1d9QAAAAAAoOEZegCQlWZcc2N0at1eCE7yRPHCKK+sqNXPfWbNywKSss5tOsaMa24SAgAAAACABmfoAUDWad6kWfxizO1CcJJjZaXx3NpXa/3zX1r/ZhwpPSYkKfv1+DujZdPmQgAAAAAA0KAMPQDIOndffV10btNRCE4y/90344ejh2r98w8dPxIL3n1LSFLWqXX7uHfEzUIAAAAAANCgDD0AyCpNi5rEL8fcIQSnmFOyqM4f4/GVCyKZTIpJyn417s5o1aylEAAAAAAANBhDDwCyyl1Dr42u7c4SgpMUf7YxNu/cVueP8/nur2P9to8EJWUdWrWN+0a66gEAAAAAQMMx9AAgaxQVFrnmwWk9Xjy/3j7WnOJFglIjvxhzR7Ru7qoHAAAAAAANw9ADgKwxbcjkOLdDFyE4yY79u+PtT9fV28d77cPi2HVwr7CkrEOrtvHAqKlCAAAAAADQIAw9AMgKRYVF8euxdwrBKR5dOS8qKivr7eOVV5THc2tfE5Ya+cXYO6JdyzZCAAAAAACQdoYeAGSF2wZNjO4duwrBSY6UHosX1r1e7x/3qVWLo7yiXGBS1qZ5q5g16lYhAAAAAABIO0MPADJeYUFB/HrsNCE4xYvr34hDx4/U+8f9/sf98cZHqwSmRn42+rZo76oHAAAAAABpZugBQMa7deCE6HHWuUJwkmQyGXNKFqbt488pWSQyNdKmeav42ejbhQAAAAAAIK0MPQDIaIUFBfGbcXcJwSmWb1kfX36/PW0ff80Xm2LLzq+EplhuiyYAAGl+SURBVEYeGD01OrZuJwQAAAAAAGlj6AFARrvxqrFxYefzhOAUj61ckPbP8dTqxUJTI62atYifu+oBAAAAAEAaGXoAkLn/kEok4jdj7xSCU2zb+22s3LIh7Z/npfVL4/Dxo4JTI/ePujU6tW4vBAAAAAAAaWHoAUDGur7/6OjVtYcQnOLxlfOjMplM++c5Uno05r+7VHBqpGXT5vGLsXcIAQAAAABAWhh6AJCREolE/G783UJwiiOlR+OlDW822Od7onhhJBtgVEJuuXfEzXFWmw5CAAAAAABQ7ww9AMhI114xMi7t1lMITvHs2lcb9O1Uvtj9Taz98gPhqZGWTZvHr8d56ykAAAAAAOqfoQcAGSeRSMSD4+8RglNUJpPx5KolDf5555QsEp8amznipuja7iwhAAAAAACoV4YeAGScSf2uiT7nXCgEp3jrkzWxbc+OBv+8b3xYEjt/2OMBUCPNiprGL8dNEwIAAAAAgHpl6AFAxvnd+LtF4LSeKF7QKJ+3vLIinlv7qgdAjU2/5obo1r6zEAAAAAAA1BtDDwAyyvi+V8fl3XsJwSk+3/11lHz+XqN9/qdXvxzlFeUeBDXSrKhp/HrcnUIAAAAAAFBvDD0AyCgPTZguAqf12MoFkUwmG+3zf//j/njtwxIPghq755ob4ryOXYUAAAAAAKBeGHoAkDHG9B4c/c+/VAhOcfDY4Vjw7tJGfx1zShZ6GNRYk8Ki+M14Vz0AAAAAAKgfhh4AZIzfjb9bBE7rmTUvx9Gy443+OtZ9+WFs/m6rB0KN3Tn02ujeyVUPAAAAAADqztADgIwwoteAGNTzMiE4RUVlZTy1aknGvJ65qxZ7KNRYUWFR/Hb8PUIAAAAAAFBnhh4AZISHJ84QgdN68+NVsX3/rox5PQvefSsOHT/iwVBjdwyZFOd36iYEAAAAAAB1YugBQKO75uIrY7BrHlThsZXzM+r1HCk9Fi+tf9ODocaKCoviwYnThQAAAAAAoE4MPQBodA/5xidV2LLrq1i39cOMe11zSxZFMpn0gKix2wZPigvP7i4EAAAAAAC1ZugBQKMa2KNvXH1RfyE4rdnLX8rIQcWX32+P1V9s8oCoscKCgvjdhHuEAAAAAACg1gw9AGhUf5h8rwic1v4jB2PRe29n7OubU7LQQ6JWbhk4Pi5y1QMAAAAAgFoy9ACg0Vx1QZ8YfskAITitZ9a8EsdPlGbs63vzo1Xx7YHdHhQ1VlhQEA9NmiEEAAAAAAC1YugBQKP5/UTf6OT0yisr4smSxRn9GisqK+PZNa96WNTKTQPGxaXdeggBAAAAAECNGXoA0CguP++SGHXpICE4rdc+WBk7D+7J+Nf51OolUVZ+wgOj5r8JTyTiwYnThQAAAAAAoMYMPQBoFI9MvjcSiYQQnNZjKxdkxevcf/hgvPZBsQdGrVx/5Zjofc6FQgAAAAAAUCOGHgA0uH7nXhxjew8RgtP6aMfn8e5XH2fN651TstBDo3a/EU8k4uFJ3sIKAAAAAICaMfQAoMH9ftIM1zyo0qMr5mXV692w7eP4aMfnHhy1cu0VI6PPORcJAQAAAABAygw9AGhQfc65MCb0HSYEp7Xv8A/x8qYVWfe6n179sodHrSQSiXhkykwhAAAAAABImaEHAA3qoQnTXfOgSnNXLY7S8rKse93z310aB48d9gCplUmXDY/+518qBAAAAAAAKTH0AKDBXNLlgph8+QghOK3yivJ4ds0rWfnaj5WVxkvr3/QQqZVEIhEPTZohBAAAAAAAKTH0AKDBPDxxRhS45kEVFr+/PHYd3Ju1r39O8YKoTCY9SGplQr9h0f/83kIAAAAAAHBGhh4ANIiLu5wf1/UfJQRVerx4QVa//q/2fhcln2/0IKm1RybPFAEAAAAAgDMy9ACgQfxu/D2ueVCljV99Epu+2Zz1X8ec4kUeJrU2tu/QuOqCPkIAAAAAAFAtQw8A0u6Cs86JG64cLQRVyvZrHv+vZZ+siR37d3ug1NofptwnAgAAAAAA1TL0ACDtHp4wPYoKCoXgtHb/uC9e/WBlTnwtFZWV8cyalz1Uam1U70Ex5KIrhAAAAAAAoEqGHgCk1QWdzombBowTgio9uWpxnKgoz5mv55k1r0RpeZkHS639ftJMEQAAAAAAqJKhBwBp9dvxd7vmQZXKyk/EM2teyamvaf/hg/HqppUeLrU2vNdVMdRVDwAAAAAAqmDoAUDanNP+7Lh14HghqNLCjcti76EDOfd1zSlZ5OFSJ/903QMiAAAAAABwWoYeAKTNgxPuiSaFRUJQpbmrcnMQsfGrT+LDHZ97wNTa4Asvi2EXXykEAAAAAACn8N03ANKiW/vOcfvgSUJQpXVbP4wPtn+Ws1/fkyWL4/935z940NTaP153f9z+r48IAQAZ5pZ/eUgEoNG9+ND/8la5AAB5zNADgLT4zbi7XPOgWo+vXJDTX9/Cjcvi/3PjL6J9yzYeNrUyqOdlMfLSgbFyy7tiAEAGef/rzSIAjS6ZTIpwBkdKj8XxE6VCAKRJ8yZNo1WzlkJAI/EdOADq3dltO8YdrnlQje8OfB9vfFSS01/j8ROl8eL61+Pno2/3wKm1P0y5z9ADAACgFv7X63PiL++8KARAmtw+eFL833f/sxDQSAokAKC+/XbcXdG8STMhqNLcVYuivLIi97/O4sVR6d+yog4G9Ogbo3sPFgIAAAAAgJ8YegBQrzq36Rh3Dr1WCKp0/ERpPLv21bz4Wr/e910Uu8ZAHf3TdbMikUgIAQAAAABARBh6AFDPfjV2mmseVGv+u2/FgSM/5s3XO6dkoYdOnVzevVeM7TNECAAAAAAAIsLQA4B61KFVu7jbNQ/O4Ini/Bo+LPtkbWzfv8uDp07+4dr7XfUAAAAAACAiDD0AqEe/HjstWjZrIQRVWvXF+7F559a8+pork8l4etUSD586uey8S2JCv2FCAAAAAABg6AFA/ejQsm1MH3aDEFTrsZXz8/Lrfm7ta1FaXuYXAHXyj9fNigJXPQAAAAAA8p6hBwD14udjbo9WrnlQjW8P7I5ln6zJy699/5GDseT95X4RUCe9u/WMSZcPFwIAAAAAIM8ZegBQZ+1bton7ht8sBNV6bOWCqKiszNuvf07xIr8IqLN/uPZ+Vz0AAAAAAPKcoQcAdfbAyKmueVCtY2Wl8eL61/O6waZvNscH2z/zi4E66dW1R1zbf5QQAAAAAAB5zNADgDpp07xV3DfCNQ+q9+L61+OHo4fyvsPcElc9qLtHJt/rqgcAAAAAQB4z9ACgTn42amq0bdFaCKqUTCbjiZKFQkTE4vfeiQNHfhSCOrmk6wVxw1VjhQAAAAAAyFOGHgDUWuvmLeP+kbcKQbVWfvZufLH7GyEi4viJ0nhh3etCUGd/mHJfFBUUCgEAAAAAkIcMPQCotftH3BLtXPPgDB5buUCEv/FE8cKoqKwUgjrp2fncuHGAqx4AAAAAAPnI0AOAWmnZtHnMGuGaB9X7au93sXzzeiH+xrcHdseKLRuEoM5+P3mmqx4AAAAAAHnI0AOAWrlvxC3RsXU7IajWE8ULojKZFOLvzCleKAJ11uOsc+PmgeOFAAAAAADIM4YeANRYy6bN42ejpgpBtY6UHosX178pxGm8s3l9bNvzrRDU2R+m3BtNCouEAAAAAADII4YeANTY9GtujE6t2wtBtZ5b91ocOn5EiNNIJpPx7JpXhKDOzuvYNaYOnigEAAAAAEAeMfQAoEaaFTV1zYMzSiaT8eSqxUJU49k1r8SxslIhqLOHJ81w1QMAAAAAII8YegBQI9OH3RBd2nYSgmot+3RdbP1+hxDVOHjscLy8abkQ1Nm5HbrEHUMmCwEAAAAAkCcMPQBIWbOipvGLMbcLwRk9XrxAhBQ8tmK+CNSLBydOj6ZFTYQAAAAAAMgDhh4ApOyuq6+Lru3OEoJqbduzI4o/2yhECj7+9ovY9M1mIaizczqcHXcOvVYIAAAAAIA8YOgBQEqaFBbFL0bfJgRnNHvF/Egmk0KkaE7xIhGoFw9NmhHNmzQTAgAAAAAgxxl6AJCSO4deG+d26CIE1frx2OGY/+5SIWpg8fvvxL7DPwhBnZ3dtmPcdbWrHgAAAAAAuc7QA4AzKiosil+NmSYEZ/Ts2lfjSOkxIWqgrPxEPL/udSGoF7+dcE+0aOqqBwAAAABALjP0AOCMbh80Kc7r6JoH1atMJuPJVUuEqIW5JYuiorJSCOrs7LYd4+5hNwgBAAAAAJDDDD0AqFZRYVH8ZtydQnBGSz9eHd/s2ylELXx34Pt4Z/M6IagXvxl/p6seAAAAAAA5zNADgGrdOmB8nN+pmxCc0WMr54tQB3OKF4lAvejcpmPMHH6zEAAAAAAAOcrQA4AqFRYUuOZBSrbs+irWfPmBEHWwYsuG2LZnhxDUi1+PvzNaNWspBAAAAABADjL0AKBKN101Lnp2Pk8IzuixFfMjmUwKUQfJZDKeWvWyENSLjq3axb0jbhICAAAAACAHGXoAcFqFBQXx4IR7hOCMDh47HAvfWyZEPXh+3WtxtOy4ENSLX46d5qoHAAAAAEAOMvQA4LRu6D8mLnTNgxQ8vXpJHCsrFaIe/HjscCx+720hqBcdWrWN+0feIgQAAAAAQI4x9ADg1H84JBLx2/F3CcEZlVdWxJySxULUoyeKF4pAvfnVuGnRtkVrIQAAAAAAcoihBwCnuPaKUdGraw8hOKPXPyyJnT/sEaIeffLtl7Hxq0+EoF60bdE6Zo26VQgAAAAAgBxi6AHASRKJRDw44W4hSMnjKxeIkAZzSxaJQL35+Zjbo13LNkIAAAAAAOQIQw8ATjL5suHRu9uFQnBGH3/7Razf9pEQabDk/eWx99ABIagXbZq3ctUDAAAAACCHGHoAcJLfjrtLBFLy6Mr5IqTJiYryeH7da0JQb34++vZo76oHAAAAAEBOMPQA4CcT+g2Ly7v3EoIz2n/4YCx5b7kQafTkqiVRUVkpBPWidfOW8fMxtwsBAAAAAJADDD0A+MlDE+4RgZQ8uXpJlJaXCZFG3x34PpZ9skYI6s2sUVOjY+t2QgAAAAAAZDlDDwAiImJcn6FxRfdLheCMyivK45nVLwvRAOYULxKBetOqWYv4xZg7hAAAAAAAyHKGHgBERMRvxt8lAil5edOK2HlwrxANoPjzjbH1++1CUG/uG3lLdGrdXggAAAAAgCxm6AFAjLp0UAzq0U8IUvLYygUiNJBkMhlPrloiBPWmZdPm8cux04QAAAAAAMhihh4AxIMT7hGBlHy44/N4/5vNQjSgF9e/EUfLjgtBvblv5M3RpV0nIQAAAAAAspShB0CeG37JVTG452VCkJLZy18SoYH9eOxwLNy4TAjqTfMmzVz1AAAAAADIYoYeAHnuoQnTRSAl3/+4P17etEKIRjCneKEI1KsZw2+Mru3OEgIAAAAAIAsZegDksUE9+sXQi64QgpQ8tXpJnKgoF6IRfPrd1tiw7WMhqDfNiprGr8bdKQQAAAAAQBYy9ADIY49MnikCKSkrPxFPr35FiEY0p8RVD+rX9GtuiG7tOwsBAAAAAJBlDD0A8tSAC/rE8EuuEoKULH7vndhzaL8QjejVTSs9A+pV06Im8ZvxdwkBAAAAAJBlDD0A8pRrHtTEnJJFIjSyExXl8eyaV4WgXt097Po4r2NXIQAAAAAAsoihB0AeuvL83jGy10AhSMmGbR/Hpu1bhMgAT5YsjvKKciGoN00Ki+K3E1z1AAAAAADIJoYeAHno4YnTRSBljxcvECFD7P5xX7z1yVohqFd3Dp0S3Tu56gEAAAAAkC0MPQDyzGXnXhxjeg8WgpTsOrg3XvuwRIgMMqd4oQjUq6LConhw4j1CAAAAAABkCUMPgDzz+0kzIpFICEFK5pQs8lYhGabk8/fis11fCUG9un3wpLjgrHOEAAAAAADIAoYeAHmk7zkXxfi+VwtBSsrKT8Rza18TIgM9vfplEahXRYVF8dAkb+sFAAAAAJANDD0A8shDE6e75kHK5r/7Vuw7/IMQGeiFdW/E4eNHhaBeTR00MS48u7sQAAAAAAAZztADIE/06npBTLrsGiFI2ePFC0TIUEdKj8bCjcuEoF4VFhTEQxPvEQIAAAAAIMMZegDkid9PnBEFrnmQojVfbopPv9sqRAZ7fOWCSCaTQlCvbh44Pi7q4qoHAAAAAEAmM/QAyAMXdzk/plwxUghS9tjKBSJkuM93fx3rt34kBPWqsKAgfj9pphAAAAAAABnM0AMgDzw04R7XPEjZtwd2x9KPVwuRBeaULBKBenfjgLHRu1tPIQAAAAAAMpShB0CO63HWuXF9/9FCkLInihdFRWWlEFngtQ+LY9fBvUJQv/8DIZGIhybNEAIAAAAAIEMZegDkuIcnTo/CAn+7JzXHykrj+XWvCZElyivK47m1nhf17/orR0Wfcy8SAgAAAAAgA/nOH0AOu6BTt7jxqjFCkLJ5G96MH44eEiKLPLVqcZRXlAtBvUokEvF7Vz0AAAAAADKSoQdADvvdhHuiqKBQCFI2d9ViEbLM9z/ujzc+WiUE9W7KFSOir6seAAAAAAAZx9ADIEed2+HsuGXAOCFI2crPNsbmnduEyEJzShaJQL1LJBLxyJR7hQAAAAAAyDCGHgA56sEJ90STwiIhSNnjK+eLkKXWfLHJSIe0mHz58Oh//qVCAAAAAABkEEMPgBx0Tvuz47ZBE4UgZV/v+y7e/nSdEFns6dVLRCAtfj95pggAAAAAABnE0AMgB/12/F2ueVAjTxQvispkUogs9tL6pXH4+FEhqHfj+10dV13QRwgAAAAAgAxh6AGQY7q2OyvuGDxJCFJ2pPRYvLDudSGy/jkejfnvLhWCtHhkiqseAAAAAACZwtADIMf8Ztyd0bSoiRCk7IX1r8eh40eEyAFPFC+MpMsspMGYPkNi8IWXCQEAAAAAkAEMPQBySOc2HWLakMlCkLJkMhlzSxYLkSO+2P1NrP3yAyFIi4cnzRABAAAAACADGHoA5JBfj7szmjdpJgQpe2fz+vjy++1C5JA5JYtEIC1G9R4UQy+6QggAAAAAgEZm6AGQI85q0yHuvvo6IaiRx4sXipBj3viwJHb+sEcI0uKRKTNFAAAAAABoZIYeADnil6NvjxaueVAD2/Z+Gyu3bBAix5RXVsSza14RgrS45pKr4uqL+wsBAAAAANCIDD0AckCHlm1j+rDrhaBGHlsxPyqTSSFy0NOrX4nyinIhSIt/vn6WCAAAAAAAjcjQAyAH/HLsHdGyWQshSNnh40dj3rtLhchRew7tj9c+LBGCtBjU87K45pKrhAAAAAAAaCSGHgBZrkPLtjHzmhuFoEaeXftqHD5+VIgcNqdkoQikzT9dd78IAAAAAACNxNADIMs9MGpqtHLNgxqoTCZjbsliIXLcui8/jM3fbRWCtBjYs1+M6j1ICAAAAACARmDoAZDF2jRvFfcOd82DmnnrkzXx9b7vhMgDc1cZ9JA+/3z9A5FIJIQAAAAAAGhghh4AWexno6ZG2xathaBGHl+5QIQ8seDdt+LQ8SNCkBZXdO8Vo3sPFgIAAAAAoIEZegBkqdbNW8b9I28Rghr5bNfXseqL94XIE0dKj8VL698UgrT5p+vud9UDAAAAAKCBGXoAZKlZI2+Ndq55UEOPr5wfyWRSiDwyt2SRZ07aXN69V4zrO1QIAAAAAIAGZOgBkIVaNmsRs0bcLAQ1cvDY4ViwcZkQeebL77e74kJa/cO197nqAQAAAADQgAw9ALLQ/cNvjg6t2glBjTyz5pU4WnZciDw0t2SRCKTNZeddEpMuu0YIAAAAAIAGYugBkGVaNm0eD4y6VQhqpKKyMp5atUSIPPXmR6vi2wO7hSBt/vG6WVHgqgcAAAAAQIMw9ADIMjOH3xSdWrcXghp546OS2L5/lxB5qqKyMp5d86oQpM2l3XrE5CtGCAEAAAAA0AAMPQCySLOipvHASNc8qLnHVi4QIc89tXpJlJWfEIK0+Ydr73PVAwAAAACgARh6AGSRmcNvjLPbdhSCGtmy66tYt/VDIfLc/sMH47UPioUgbXp17RHXXTlKCAAAAACANDP0AMgSzYqaxs9H3yYENfbX5S+JQEREzClZKAJp9cjke131AAAAAABIM0MPgCxx99XXRZe2nYSgRvYfORiLNr4tBBERsWHbx/HRjs+FIG0u6XpB3DhgrBAAAAAAAGlk6AGQBZoWNYlfjb1DCGrs6dUvR2l5mRCc9GsC0ukPU+6LooJCIQAAAAAA0sTQAyAL3DlkSnRtd5YQ1Eh5ZUU8tWqJEJxk/rtL4+Cxw0KQNj07nxs3DRwnBAAAAABAmhh6AGS4osKi+OUY1zyouVc3rYydB/cKwUmOlZXGS+vfFIK0+v3kGa56AAAAAACkiaEHQIa7Y/CkOK9jFyGosceKF4jAac0pXhCVyaQQpE2Ps86NqYMnCgEAAAAAkAaGHgAZrKiwKH4z7k4hqLGPdnwRG7/6RAhO66u930XJ5xuFIK0emTwzmhQWCQEAAAAAUM8MPQAy2G0DJ0T3jl2FoMYeXTFPBKo1p3iRCKTVuR27xG2DJwkBAAAAAFDPDD0AMlRhQUH8etw0IaixfYd/iJc3rRCCai37ZE3s2L9bCNLq95NnuOoBAAAAAFDPDD0AMtQtA8ZHj7POFYIam7tqcZSWlwlBtSoqK+Pp1S8LQVqd0+HsmDZ0ihAAAAAAAPXI0AMgAxUWFMRvx98lBDV2oqI8nlrlm/ek5tk1rxgFkXYPTpoeTYuaCAEAAAAAUE8MPQAy0I1XjokLO58nBDW2+P13Ys+h/UKQkv1HDsarm1YKQVqd075z3HX1dUIAAAAAANQTQw+ATPsbcyIRvxl7pxDUyhPFC0WgRuaULBKBtHto0vRo3qSZEAAAAAAA9cDQAyDDXHfFqOjVtYcQ1NjGrz6JTd9sEYIa/7r5cMfnQpBWZ7ftGHcPc9UDAAAAAKA+GHoAZJBEIhG/G3+3ENTKY8ULRKBWnixZLAJp97sJd0eLpq56AAAAAADUlaEHQAaZcvmI6N2tpxDU2O4f98WrHxQLQa0s3Lgsfjh6SAjSqnPbjjH9mhuEAAAAAACoI0MPgAyRSCTiN2PvFIJamVuyOMoryoWgVo6fKI0X178uBGn32wn3RKtmLYQAAAAAAKgDQw+ADDGx37C4/LxLhKDGyspPxLNrXxWCOplbvDgqk0khSKtOrdvFjOE3CgEAAAAAUAeGHgAZ4nfj7haBWlm4cVnsPXRACOrk633fxcotG4Qg7X49/s5o1aylEAAAAAAAtWToAZABxvUZGld07yUEtTKnZJEI1Iu5fi3RADq2ahf3jbxJCAAAAACAWjL0AMgAD0+cLgK1sm7rh/Hhjs+FoF4s+2RtbN+/SwjS7pdjp0Xr5q56AAAAAADUhqEHQCMbfemg6N/9UiGolcdWLhCBelOZTMbTq5YIQdp1aNU2Zo28VQgAAAAAgFow9ABoZA+Ov1sEauW7A9/Hmx+tEoJ69dza16K0vEwI0u6X4+6Iti1aCwEAAAAAUEOGHgCNaPglV8WgnpcJQa3MKVkU5ZUVQlCv9h85GEveXy4Eade2Ret4YPRUIQAAAAAAasjQA6ARPTxhugjUyvETpfHcuteEIC3mFC8SgQbx8zG3RbuWbYQAAAAAAKgBQw+ARjLsov4x5MLLhaBW5r37Vhw48qMQpMWmbzbHpm+2CEHatWneKn7mqgcAAAAAQI0YegA0kocmuuZB7bm4QLo9uWqxCDSIn4+5PTq1bicEAAAAAECKDD0AGsHAHn1j2EX9haBWSj5/Lzbv3CoEabX4vXdcjaFBtGrWIh4YfZsQAAAAAAApMvQAaASPTJwpArX2+MoFIpB2x0+UxgvrXheCBjFr1K3RqXV7IQAAAAAAUmDoAdDArrqgT4zoNUAIamXH/t2x7NO1QtAgniheGBWVlUKQdq2atYhfjL1dCAAAAACAFBh6ADSwhydMF4Fae2zlfN94p8F8e2B3rNiyQQgaxH0jb3HVAwAAAAAgBYYeAA3osnMvjtGXDhKCWjlWVhovrn9DCBrUnOKFItAgWjZtHr8eN00IAAAAAIAzMPQAaECPTJoZiURCCGrlhfWvx8Fjh4WgQb2zeX1s2/OtEDSI+0beEl3adRICAAAAAKAahh4ADaTfuRfHuD5DhaBWkslkzClZJASN8mvvmTUvC0GDaNakafzKVQ8AAAAAgGoZegA0kIcnTHfNg1pbsWVDfLH7GyFoFM+teTWOlZUKQYOYcc2N0bXdWUIAAAAAAFTB0AOgAfTqckFM6DdMCGrt8eKFItBoDh47HC9vWi4EDaJZk6bxm/F3CQEAAAAAUAVDD4AG8MikmVHgmge1tG3vt7F883ohaFSPrZgvAg3mnmuuj3PadxYCAAAAAOA0DD0A0uySLufH5MtHCEGtPbFyYVQmk0LQqD7+9ovY9M1mIWgQTYuaxG8n3iMEAAAAAMBpGHoApNlDE6a75kGtHSk9Fi9ueEMIMsKc4kUi0GDuvvra6N6pqxAAAAAAAH/H0AMgjXqcdW5cd8UoIai159a+GoePHxWCjLD4/Xdi3+EfhKBBFBUWxW/H3y0EAAAAAMDfMfQASKPfT5wehQX+VkvtJJPJmLtqiRBkjLLyE/H8uteFoMFMGzo5zu/UTQgAAAAAgL/hu48AaXJBp25xw5VjhKDWln26Lrbt2SEEGWVuyaKoqKwUggZRVFgUD068RwgAAAAAgL9h6AGQJg9NmB5FBYVCUGuPr5wvAhnnuwPfx9ufrhOCBnP7kMlxYefzhAAAAAAA+G+GHgBpcH6nbnHzgHFCUGuf7/46ij9/Twgy0tySRSLQYAoLCuJ3rnoAAAAAAPzE0AMgDX477i7XPKiTx4sXRjKZFIKMtGLLBm8rRIO6ddCEuPDs7kIAAAAAAIShB0C9O6f92TF14AQhqLUfjx2O+RuWCkHGSiaT8dSql4WgwRQWFMTDk6YLAQAAAAAQhh4A9e534++KJoVFQlBrz659NY6WHReCjPb8utf8OqVB3TRgXFzc5XwhAAAAAIC8Z+gBUI+6te8ctw+aJAS1VlFZGXNLFgtBxvvx2OFY/N7bQtBgCgsK4uHJM4QAAAAAAPKeoQdAPfr12GnRtKiJENTa0o9Xx/b9u4QgKzxRvFAEGtSNV42NPudcKAQAAAAAkNcMPQDqydltO8a0wZOFoE4eW7lABLLGJ99+GRu/+kQIGu5/vCQS8dCk6UIAAAAAAHnN0AOgnvx6zLRo3qSZENTall1fxdqtHwhBVplbskgEGtR1/UdFn3MvEgIAAAAAyFuGHgD1oHObDnHX1dcJQZ08umJeJJNJIcgqS95fHnsPHRCCBpNIJOKRyTOFAAAAAADylqEHQD345Zg7ooVrHtTBD0cPxaL33haCrHOiojyeX/eaEDSoyZcPjyu69xICAAAAAMhLhh4AddShVbu4Z6hrHtTN06tfjmNlpUKQlZ5ctSQqKiuFoMEkEol4aNIMIQAAAACAvGToAVBHvxpze7Rs1kIIaq28siLmrlosBFnruwPfx7JP1ghBg5p0+TVx5fm9hQAAAAAA8o6hB0AddGjZNmYMu1EI6uS1D4pj5w97hCCrzSleJAIN7vdTZooAAAAAAOQdQw+AOvjZqKnRyjUP6ujx4gUikPWKP98YW7/fLgQNalzfoXHVBX2EAAAAAADyiqEHQC21bdE6Zl7jmgd18/G3X8SGbR8LQdZLJpPxpLcgohE8MuVeEQAAAACAvGLoAVBLPxs5Ndq2aC0EdfLoivkikDNeWPdGHC07LgQNakyfwTHkwsuFAAAAAADyhqEHQC20ad4q7htxsxDUyf7DB2PJ+8uFIGccOn4kFm5cJgQN7uHJM0QAAAAAAPKGoQdALcwaeUu0c82DOpq7anGUlpcJQU6ZU7xQBBrcyEsHxtUXXyEEAAAAAJAXDD0Aaqh185Yxa8StQlAn5RXl8cyaV4Qg53z63dbYsO1jIWhwj0y+VwQAAAAAIC8YegDU0P3Db472LdsIQZ0s2bQidh3cKwQ5aU6Jqx40vGGXXBlXX9xfCAAAAAAg5xl6ANRAy6bNY9ZI1zyou8dXLhCBnPXKppWx+8d9QtDg/vn6WSIAAAAAADnP0AOgBu4dflN0bNVOCOrkg+2fxfvfbBaCnFVeUR7Pr31NCBrcoJ6XxfBeVwkBAAAAAOQ0Qw+AFLVo0ix+Puo2Iaiz2SvmiUDOe7JkcZRXlAtBg/vHa+8XAQAAAADIaYYeACmacc0N0al1eyGok+9/3B+vbFohBDlv94/7YunHa4SgwQ3s2S9G9x4kBAAAAACQsww9AFLQrKhp/Mw1D+rBk6sWxwlXDsgTc0sWiUCj+KfrH4hEIiEEAAAAAJCTDD0AUnDPsOujS9tOQlAnZeUn4uk1rwhB3ij5/L34bNdXQtDgrujeK8b0GSIEAAAAAJCTDD0AzqBpUZP45ejbhaDOFr/3Tuw9dEAI8srTq18WgUbxj9fe56oHAAAAAJCTDD0AzuCuoddG13ZnCUGdPVGyUATyzgvr3ojDx48KQYO7vHuvmNBvmBAAAAAAQM4x9ACoRlFhUfxy9B1CUGfrt30UH2z/TAjyzpHSo7Fw4zIhaBR/mHKvqx4AAAAAQM4x9ACoxp1DJse5Hc4Wgjp7fOUCEcjrX//JZFIIGly/8y6OSZcPFwL4f9q79yC7z/I+4M/v7K5W0mpXlvEdLMwiGzjH17pNUwqpjDGgMRQIUSAkBFKCgxPcmGQCnknbcWbazqQltgmFJIQhYCDEOARsIOArTjGGcCkNOMQp4Bs2xtjGyMYXSavz6x+SbEnelbVnz573fX+/z2eGkZBX+9t9nidP/J73y1kAAACARhH0AFjA+Nh4/MbGX1QIluyHW+6NK268QSFore/cfVt89eYbFYIkfnfTG6LjXT0AAAAAgAYR9ABYwKv+5Rlx9MFHKARL9sHrL4+5HXMKQatd/MXLFYEknnXkMfGSE5+vEAAAAABAYwh6AMxjrNOJN2/crBAs2aPbt8Zf/f3fKgSt97lvXh8/3HKvQpDEWzf9qnf1AAAAAAAaQ9ADYB6v/BcvjGMOeapCsGSf/D/Xxv0PPaAQtN7cjrm45MufUwiSOO6IY+Klp2xUCAAAAACgEQQ9APYx1unE2S94tUIwFB/4wmWKALt85IZP+TFGJPPWTa+PsY7jDwAAAABQPq90AuzjZSefFrOHPk0hWLIvffcf4qa7blYI2OVHD/w4rrzxBoUgidlDnxYvO+U0hQAAAAAAiifoAbDnUqwq7+bB0PzFFz6hCLCPi6+/XBFI5tyX/GqMd8YUAgAAAAAomqAHwB5eevLGOO7wpysES3bn/XfHNd/+skLAPr783X+Im+66RSFI4hmHPjVefuoLFAIAAAAAKJqgB8AuVVXFb57m3TwYjg9cf1ns6PcVAubxkS9+WhFI5rdf/Drv6gEAAAAAFE3QA2CXTSc8P5515DMUgiV7ZNvWuPQrVygELOBvvnZV/PTRhxWCJJ5+yFHx8//qDIUAAAAAAIol6AEQO9/N4y2n/5JCMBQf/9qV8ZOHH1QIWMBDWx+JT3z9aoUgmXNf/LqYGBtXCAAAAACgSIIeABHxot5z4zlHzSoEQ/HhG/xYCngyH/zCZVHXtUKQxFMPPjx+4WdepBAAAAAAQJEEPQAi4rdOf40iMBRf+Oevx0133aIQ8CS+e/ft8fff+6ZCkMx/fNGvxIrxCYUAAAAAAIoj6AG03undn40TnnacQjAUf/GFTyoCHKCLr79cEUjmqHWHxS/+65coBAAAAABQHD+YGmi9NZOr4gPXfzKmV07t/M+qnb/OrJyKmVVrYnrlVIx15OJ4crfe+4O47qavKAQcoCu/9cX44ZZ744i1hygGSfzWGa+Nj/3952Lb3HbFAAAAAACKIegBtN5l3/h8XPaNz+/3Y1ZOTMbaVWticmJFrBxfETOrp2PtqjU7/7Pn71dNx9rVa2JyfEVMTqzY+d9XrYmD16yN8c6YYjfcxddfFv26Vgg4QHP9HfHRL30m3vqS1ysGSRx10KHxS//mzPigd2MCAAAAAAoi6AFwAB7dvjUe3b51SZ9jd1hk7ao1MbN6OibHJx7/s3nCIjO7fr/74w6ZXhedqtKMTD209ZG49KtXKgQs0l/e8LfxljN+OSbG/GspabzljNfGJV/+7JL//zwAAAAAwKh4RR1gRHaHRe5+4L4D+wvzvDHE48GQNTGz691Cdr+DyJ7/bPc7iczs8fvdH8fy+NhXrogHH31IIWCR7nnwx3HFN6+Pl56yUTFI4rCZg+O1zz0z3v93f6MYAAAAAEARBD0ACrLosMg8nhgWmdr7HUVWT+8Kjuz80TM7wyI7AyPrpmb8r+7nUdd1fOiGyxUCBnTxFy8X9CCp3zz9NfHRL30mHtnmXT0AAAAAgPy5rQNomSeGRepF/f3dQZHJiZ1hkMffWWTvsMjucMjkxERMPvZja6bj4DVrY7wz1qiafv6mr8TNP7rDcMGAvvK9b8VNP7g5nn3UrGKQxKEzB8evPPdl8efX/bViAAAAAADZE/QAYFF2B0WWYt93FXnsHUQWCIvsfleR3T+i5tDpdVFVVTY1+cAXLjMYsEQf+uKn4r9t/m2FIJnfPOOX4i+/9Jl4aOsjigEAAAAAZE3QA4CRW54fQfN4OOSJwZG9fwTN2tU7P2YYbrnnjrj+/31dU2GJPvn1a+K8l/16TK+cUgySOHhqbbzuef8+/vSaSxQDAAAAAMiaoAcARVrusMju3z8WGtknLLJuaiYmxsbj/V/4RPTrWkNgiR7a+kh8/KtXxRue/wrFIJk3v+DV8aHrPxUPbX1YMQAAAACAbAl6ANBag4ZFduc6piZXLfnH2ACP+9D1l8frn/fyrH40E+2ybmom3vD8l8e7r/6oYgAAAAAA2eooAQAM5qGtj8SOfl8hYEi+96Pvxw3f+b8KQVJvOm1zrFm5WiEAAAAAgGx5Rw8AALLxoS9eHv/2uFMUgmTWTc3Er/3cK+NdV35EMQCY1//+/YsVAUhuYsxL+wAAbebfBgEAyMZVN94Qd95/dzx13eGKQTJnnbY5Lr7+8tjy8IOKAcATrH/KkYoAUIDDZp4Sxx1xjEIALJMjDzpUESAhQQ8AALKxo9+Pv/ryZ+N3N71BMUhmZtWa+A8/98q48HP+F9sAAFCqN238hXjTxl9QCACgkTpKAABATj5yw6dj29x2hSCpN258VRy0elohAAAAAIDsCHoAAJCVH/90S3zum9crBElNr5yKN/67VykEAAAAAJAdQQ8AALJz8fWXKQLJvXHjq+Ipa9YqBAAAAACQFUEPAACy87Vb/jFuvOM7CkFSU5Or4o1+pjcAAAAAkBlBDwAAsvSRGz6tCCT3az/3ynjKmoMUAgAAAADIhqAHAABZ+uTXr4ktD/9UIUhq9YqVcdZpmxUCAAAAAMiGoAcAAFl6ZNvW+PjXrlIIkvvV5788DplepxAAAAAAQBYEPQAAyNbFX/hk9OtaIUhq9YqV8ebTX60QAAAAAEAWxpUAAIBc3XrvD+Lk3//5mF45FdOrpmJm16/TK6ce+7PplVOxdvWaBf/Z1OQqhWTJXvdvXxbvvfZj8aMHfqwYAAAAAEBSgh4AAGTtgUd+Gg888tOI+w/ko+d/94+VE5OxdvWaWLtq+rFfJydWxMqJFbF21XTM7PPPHv91OibHJ2Jm1ZqoqkozWmzlxGScffpr4g8+8R7FAAAAAACSEvQAAKDxHt2+NR7dsjXu3nLfwJ9jvrDInqGRyV2hkfnCImtXr4nJ8RUaUbhffu5L472fvzTu+smPFAMAAAAASEbQAwAADsByh0Vm5nmnkT3DIuumZmJizL++pzQ5sSLOPv3V8V8+/i7FAAAAAACS8UoxAACMyFLDIruDIpPjK+YNjez5I2ie+DHTcfCatTHeGdOIJXjtrnf1uOPHP1QMAAAAACAJQQ8AACjE7qDIUuwZ/picWBGT43u8e8jq6Vi7ap9f9wqNTMdT1hwUY51Oa3swMTYeZ5/+mvj9Sy8ykAAAAABAEoIeAADQIvu+q0hdL/5zzPduIo/9yJkFwiKPf8xkHDq9LqqqKraGr/nZTfGn1/5VfP8+7+oBAAAAAIyeoAcAALAoS/0RNBHzh0V2v6vIzncQWTFvWGT3n01OrEh3iBobj9964WvjvEsuMAwAAAAAwMgJegAAACO33GGR3WGQlROT84ZF1k3NxMTY4MehzT/z4njP1R+N2++7SzMBAAAAgJES9AAAAIq01LDI1OSqmF45FdOrpmJ65VTM7Pp1etVUzKxa84Q/m145FTN7/P6cF/1K/N5H/6dGAAAAAAAjJegBAAC00kNbH4mHtj4SP9xy7yL/Zq14AAAAAEAyHSUAAAAAAAAAACiDoAcAAAAAAAAAQCEEPQAAAAAAAAAACiHoAQAAAAAAAABQCEEPAAAAAAAAAIBCCHoAAAAAAAAAABRC0AMAAAAAAAAAoBCCHgAAAAAAAAAAhRD0AAAAAAAAAAAohKAHAAAAAAAAAEAhBD0AAAAAAAAAAAoh6AEAAAAAAAAAUAhBDwAAAAAAAACAQgh6AAAAAAAAAAAUQtADAAAAAAAAAKAQgh4AAAAAAAAAAIUQ9AAAAAAAAAAAKISgBwAAAAAAAABAIQQ9AAAAAAAAAAAKIegBAAAAAAAAAFAIQQ8AAAAAAAAAgEIIegAAAAAAAAAAFELQAwAAAAAAAACgEIIeAAAAAAAAAACFEPQAAAAAAAAAACiEoAcAAAAAAAAAQCEEPQAAAAAAAAAACiHoAQAAAAAAAABQCEEPAAAAAAAAAIBCCHoAAAAAAAAAABRC0AMAAAAAAAAAoBCCHgAAAAAAAAAAhRD0AAAAAAAAAAAohKAHAAAAAAAAAEAhBD0AAAAAAAAAAAoh6AEAAAAAAAAAUAhBDwAAAAAAAACAQgh6AAAAAAAAAAAUQtADAAAAAAAAAKAQgh4AAAAAAAAAAIUQ9AAAAAAAAAAAKISgBwAAAAAAAABAIQQ9AAAAAAAAAAAKIegBAAAAAAAAAFAIQQ8AAAAAAAAAgEIIegAAAAAAAAAAFELQAwAAAAAAAACgEIIeAAAAAAAAAACFEPQAAAAAAAAAACiEoAcAAAAAAAAAQCHGlQAAAAAADsxL3vEbigAk9+nfeU+Md8YUYj/e93d/HX/91asUAmCZvPj458ZbX/J6hYBEBD0AAAAA4ADd9IObFQFIrq5rRXgSd2+5z84GWEbHP3WDIkBCfnQLAAAAAAAAAEAhBD0AAAAAAAAAAAoh6AEAAAAAAAAAUAhBDwAAAAAAAACAQgh6AAAAAAAAAAAUQtADAAAAAAAAAKAQgh4AAAAAAAAAAIUQ9AAAAAAAAAAAKISgBwAAAAAAAABAIQQ9AAAAAAAAAAAKIegBAAAAAAAAAFAIQQ8AAAAAAAAAgEIIegAAAAAAAAAAFELQAwAAAAAAAACgEIIeAAAAAAAAAACFEPQAAAAAAAAAACiEoAcAAAAAAAAAQCEEPQAAAAAAAAAACiHoAQAAAAAAAABQCEEPAAAAAAAAAIBCCHoAAAAAAAAAABRC0AMAAAAAAAAAoBCCHgAAAAAAAAAAhRD0AAAAAAAAAAAohKAHAAAAAAAAAEAhBD0AAAAAAAAAAAoh6AEAAAAAAAAAUAhBDwAAAAAAAACAQgh6AAAAAAAAAAAUQtADAAAAAAAAAKAQgh4AAAAAAAAAAIUQ9AAAAAAAAAAAKISgBwAAAAAAAABAIQQ9AAAAAAAAAAAKIegBAAAAAAAAAFAIQQ8AAAAAAAAAgEIIegAAAAAAAAAAFELQAwAAAAAAAACgEIIeAAAAAAAAAACFEPQAAAAAAAAAACiEoAcAAAAAAAAAQCEEPQAAAAAAAAAACiHoAQAAAAAAAABQCEEPAAAAAAAAAIBCCHoAAAAAAAAAABRC0AMAAAAAAAAAoBCCHgAAAAAAAAAAhRD0AAAAAAAAAAAohKAHAAAAAAAAAEAhBD0AAAAAAAAAAAoh6AEAAAAAAAAAUAhBDwAAAAAAAACAQgh6AAAAAAAAAAAUQtADAAAAAAAAAKAQgh4AAAAAAAAAAIUQ9AAAAAAAAAAAKISgBwAAAAAAAABAIQQ9AAAAAAAAAAAKIegBAAAAAAAAAFAIQQ8AAAAAAAAAgEIIegAAAAAAAAAAFELQAwAAAAAAAACgEIIeAAAAAAAAAACFEPQAAAAAAAAAACiEoAcAAAAAAAAAQCEEPQAAAAAAAAAACiHoAQAAAAAAAABQCEEPAAAAAAAAAIBCCHoAAAAAAAAAABRC0AMAAAAAAAAAoBCCHgAAAAAAAAAAhRD0AAAAAAAAAAAohKAHAAAAAAAAAEAhBD0AAAAAAAAAAAoh6AEAAAAAAAAAUAhBDwAAAAAAAACAQgh6AAAAAAAAAAAUQtADAAAAAAAAAKAQgh4AAAAAAAAAAIUQ9AAAAAAAAAAAKISgBwAAAAAAAABAIQQ9AAAAAAAAAAAKIegBAAAAAAAAAFAIQQ8AAAAAAAAAgEIIegAAAAAAAAAAFELQAwAAAAAAAACgEIIeAAAAAAAAAACFEPQAAAAAAAAAACiEoAcAAAAAAAAAQCEEPQAAAAAAAAAACiHoAQAAAAAAAABQCEEPAAAAAAAAAIBCCHoAAAAAAAAAABRC0AMAAAAAAAAAoBCCHgAAAAAAAAAAhRD0AAAAAAAAAAAohKAHAAAAAAAAAEAhBD0AAAAAAAAAAAoh6AEAAAAAAAAAUAhBDwAAAAAAAACAQgh6AAAAAAAAAAAUQtADAAAAAAAAAKAQgh4AAAAAAAAAAIUQ9AAAAAAAAAAAKISgBwAAAAAAAABAIQQ9AAAAAAAAAAAKIegBAAAAAAAAAFAIQQ8AAAAAAAAAgEIIegAAAAAAAAAAFELQAwAAAAAAAACgEIIeAAAAAAAAAACFEPQAAAAAAAAAACiEoAcAAAAAAAAAQCEEPQAAAAAAAAAACiHoAQAAAAAAAABQCEEPAAAAAAAAAIBCCHoAAAAAAAAAABRC0AMAAAAAAAAAoBCCHgAAAAAAAAAAhRD0AAAAAAAAAAAohKAHAAAAAAAAAEAhBD0AAAAAAAAAAAoh6AEAAAAAAAAAUAhBDwAAAAAAAACAQgh6AAAAAAAAAAAUQtADAAAAAAAAAKAQgh4AAAAAAAAAAIUQ9AAAAAAAAAAAKISgBwAAAAAAAABAIQQ9AAAAAAAAAAAKIegBAAAAAAAAAFAIQQ8AAAAAAAAAgEIIegAAAAAAAAAAFELQAwAAAAAAAACgEIIeAAAAAAAAAACFEPQAAAAAAAAAACiEoAcAAAAAAAAAQCEEPQAAAAAAAAAACiHoAQAAAAAAAABQCEEPAAAAAAAAAIBCCHoAAAAAAAAAABRC0AMAAAAAAAAAoBCCHgAAAAAAAAAAhRD0AAAAAAAAAAAohKAHAAAAAAAAAEAhBD0AAAAAAAAAAAoh6AEAAAAAAAAAUAhBDwAAAAAAAACAQgh6AAAAAAAAAAAUQtADAAAAAAAAAKAQgh4AAAAAAAAAAIUQ9AAAAAAAAAAAKISgBwAAAAAAAABAIQQ9AAAAAAAAAAAKIegBAAAAAAAAAFAIQQ8AAAAAAAAAgEIIegAAAAAAAAAAFELQAwAAAAAAAACgEIIeAAAAAAAAAACFEPQAAAAAAAAAACiEoAcAAAAAAAAAQCEEPQAAAAAAAAAACiHoAQAAAAAAAABQCEEPAAAAAAAAAIBCCHoAAAAAAAAAABRC0AMAAAAAAAAAoBCCHgAAAAAAAAAAhRD0AAAAAAAAAAAohKAHAAAAAAAAAEAhBD0AAAAAAAAAAAoh6AEAAAAAAAAAUAhBDwAAAAAAAACAQgh6AAAAAAAAAAAUQtADAAAAAAAAAKAQgh4AAAAAAAAAAIUQ9AAAAAAAAAAAKISgBwAAAAAAAABAIQQ9AAAAAAAAAAAKIegBAAAAAAAAAFAIQQ8AAAAAAAAAgEIIegAAAAAAAAAAFELQAwAAAAAAAACgEIIeAAAAAAAAAACFEPQAAAAAAAAAACiEoAcAAAAAAAAAQCHGlQAAAAAADsxX/+ASRQCSmxjz0v6TOffFr4uzTtusEADLZNXESkWAhPzbIAAAAAAcoEOnD1YEgAJMTa6OqcnVCgEANJIf3QIAAAAAAAAAUAhBDwAAAAAAAACAQgh6AAAAAAAAAAAUQtADAAAAAAAAAKAQgh4AAAAAAAAAAIUQ9AAAAAAAAAAAKISgBwAAAAAAAABAIQQ9AAAAAAAAAAAKIegBAAAAAAAAAFAIQQ8AAAAAAAAAgEIIegAAAAAAAAAAFELQAwAAAAAAAACgEIIeAAAAAAAAAACFEPQAAAAAAAAAACiEoAcAAAAAAAAAQCEEPQAAAAAAAAAACiHoAQAAAAAAAABQCEEPAAAAAAAAAIBCCHoAAAAAAAAAABRC0AMAAAAAAAAAoBCCHgAAAAAAAAAAhRD0AAAAAAAAAAAohKAHAAAAAAAAAEAhBD0AAAAAAAAAAAoh6AEAAAAAAAAAUAhBDwAAAAAAAACAQgh6AAAAAAAAAAAUQtADAAAAAAAAAKAQgh4AAAAAAAAAAIUQ9AAAAAAAAAAAKISgBwAAAAAAAABAIQQ9AAAAAAAAAAAKIegBAAAAAAAAAFAIQQ8AAAAAAAAAgEIIegAAAAAAAAAAFELQAwAAAAAAAACgEIIeAAAAAAAAAACFEPQAAAAAAAAAACiEoAcAAAAAAAAAQCEEPQAAAAAAAAAACiHoAQAAAAAAAABQCEEPAAAAAAAAAIBCCHoAAAAAAAAAABRC0AMAAAAAAAAAoBCCHgAAAAAAAAAAhRD0AAAAAAAAAAAohKAHAAAAAAAAAEAhBD0AAAAAAAAAAAoh6AEAAAAAAAAAUAhBDwAAAAAAAACAQgh6AAAAAAAAAAAUQtADAAAAAAAAAKAQgh4AAAAAAAAAAIUQ9AAAAAAAAAAAKISgBwAAAAAAAABAIQQ9AAAAAAAAAAAKIegBAAAAAAAAAFAIQQ8AAAAAAAAAgEIIegAAAAAAAAAAFELQAwAAAAAAAACgEIIeAAAAAAAAAACFEPQAAAAAAAAAACiEoAcAAAAAAAAAQCEEPQAAAAAAAAAACiHoAQAAAAAAAABQCEEPAAAAAAAAAIBCCHoAAAAAAAAAABRC0AMAAAAAAAAAoBCCHgAAAAAAAAAAhRD0AAAAAAAAAAAohKAHAAAAAAAAAEAhBD0AAAAAAAAAAAoh6AEAAAAAAAAAUAhBDwAAAAAAAACAQgh6AAAAAAAAAAAUQtADAAAAAAAAAKAQgh4AAAAAAAAAAIUQ9AAAAAAAAAAAKISgBwAAAAAAAABAIQQ9AAAAAAAAAAAKIegBAAAAAAAAAFAIQQ8AAAAAAAAAgEIIegAAAAAAAAAAFELQAwAAAAAAAACgEIIeAAAAAAAAAACFEPQAAAAAAAAAACiEoAcAAAAAAAAAQCEEPQAAAAAAAAAACiHoAQAAAAAAAABQCEEPAAAAAAAAAIBCCHoAAAAAAAAAABRC0AMAAAAAAAAAoBCCHgAAAAAAAAAAhRD0AAAAAAAAAAAohKAHAAAAAAAAAEAhBD0AAAAAAAAAAAoh6AEAAAAAAAAAUAhBDwAAAAAAAACAQgh6AAAAAAAAAAAUQtADAAAAAAAAAKAQgh4AAAAAAAAAAIUQ9AAAAAAAAAAAKISgBwAAAAAAAABAIQQ9AAAAAAAAAAAKIegBAAAAAAAAAFAIQQ8AAAAAAAAAgEIIegAAAAAAAAAAFELQAwAAAAAAAACgEIIeAAAAAAAAAACFEPQAAAAAAAAAACiEoAcAAAAAAAAAQCEEPQAAAAAAAAAACiHoAQAAAAAAAABQCEEPAAAAAAAAAIBCCHoAAAAAAAAAABRC0AMAAAAAAAAAoBCCHgAAAAAAAAAAhRD0AAAAAAAAAAAohKAHAAAAAAAAAEAhBD0AAAAAAAAAAAoh6AEAAAAAAAAAUAhBDwAAAAAAAACAQgh6AAAAAAAAAAAUQtADAAAAAAAAAKAQgh4AAAAAAAAAAIUQ9AAAAAAAAAAAKISgBwAAAAAAAABAIQQ9AAAAAAAAAAAKIegBAAAAAAAAAFAIQQ8AAAAAAAAAgEIIegAAAAAAAAAAFELQAwAAAAAAAACgEIIeAAAAAAAAAACFEPQAAAAAAAAAACiEoAcAAAAAAAAAQBl2CHoAAAAAAAAAAJThjnE1AAAAAIAD8yfXXqIIAAAAI7JtbrsiPEH1bUEPAAAAADhAf/jp9ykCAAAAyVRVfMuPbgEAAAAAAAAAKEA/BD0AAAAAAAAAAIowtqP/TUEPAAAAAAAAAID8Pbx63cE3CXoAAAAAAAAAAOTvK/94/qXbBD0AAAAAAAAAAHJXxxcjIgQ9AAAAAAAAAACy1xf0AAAAAAAAAAAowNzYZOeGCEEPAAAAAAAAAICsVRFfuvkPr94SIegBAAAAAAAAAJC1OqrP7f69oAcAAAAAAAAAQM7qHYIeAAAAAAAAAADZq+MHt1107Td2/1dBDwAAAAAAAACATFVVfWlE1Lv/u6AHAAAAAAAAAECm6qr+2J7/fVxJAAAAAAAAAADyU0d8//YLrv3Snn/mHT0AAAAAAAAAADJUVXFJ7PFjWyIEPQAAAAAAAAAAslRX9V/s+2eCHgAAAAAAAAAAuanj+tv/6Jpv7/vHgh4AAAAAAAAAAJmpqvp98/25oAcAAAAAAAAAQF7u3/bQ6kvn+weCHgAAAAAAAAAAWan/5Afv/dTD8/0TQQ8AAAAAAAAAgHxsjXr8fy30DwU9AAAAAAAAAACyUX34touuuGuhfyroAQAAAAAAAACQhx1R13+0vw8YVyMAAAAAAAAAgBzUH73tomv+aX8f4R09AAAAAAAAAADS29Hp9//rk32QoAcAAAAAAAAAQGpVfPCWd37+n5/swwQ9AAAAAAAAAADSenhsR/zBgXygoAcAAAAAAAAAQEJ1Hf/j5ndeffuBfOy4cgEAAAAAAAAApFLdsXW8eseBfrSgBwAAAAAAAABAIlX0f+/ud1zz0IF+vB/dAgAAAAAAAACQRH3trRdec8li/oagBwAAAAAAAADA6D1cR/WmiKgX85cEPQAAAAAAAAAARq2q//PtF15982L/mqAHAAAAAAAAAMBofem27x/8zkH+oqAHAAAAAAAAAMDo/HTHjur1cemlOwb5y4IeAAAAAAAAAAAjUlfV2Xf88VXfGfTvC3oAAAAAAAAAAIzGX95+wVUfXsonEPQAAAAAAAAAAFh+N03MTZy91E8i6AEAAAAAAAAAsLwejDp+/rvv+uwDS/1Egh4AAAAAAAAAAMunjip+7baLrv6nYXwyQQ8AAAAAAAAAgGVT/afbLrj648P6bIIeAAAAAAAAAADLoYr333bhVf99mJ9S0AMAAAAAAAAAYPg+v2Zm3dnD/qSCHgAAAAAAAAAAQ1RV8dWJuYlX/OP5l24b9uceV14AAAAAAAAAgOGoIr61fWu96dZ3f/aB5fj83tEDAAAAAAAAAGA4vlvXYy++893X3LdcD/COHgAAAAAAAAAAS/fPc3NzL7zzXVfftZwP8Y4eAAAAAAAAAABL8+3+RPWCO9913R3L/SDv6AEAAAAAAAAAMLivzW2rX3LnhVffN4qHeUcPAAAAAAAAAIDBfObhrXOn3fnua+4b1QMFPQAAAAAAAAAAFquq33fb2rlX3POe6346ysf60S0AAAAAAAAAAAeuH1X9e7ddcM0FKR4u6AEAAAAAAAAAcGDuq/rxy7e+85orUn0Bgh4AAAAAAAAAAE/uGzHWedWtF155S8ovoqMPAAAAAAAAAAALq+vqz6q1c8+97R1pQx4R3tEDAAAAAAAAAGAh91YRv37bRVddlssX5B09AAAAAAAAAAD2UVdxRdRjJ9564dWX5fR1eUcPAAAAAAAAAIDH/aSOePvtF1z95xFR5/bFCXoAAAAAAAAAAOz06R3Rf/MdF157Z65foKAHAAAAAAAAANB23+5E9dZbLrzqyty/0I5eAQAAAAAAAAAtdX9dVeetWbvulBJCHhHe0QMAAAAAAAAAaJ+Hqqp691zd+cM7LrjixyV94YIeAAAAAAAAAEBbbKsiPlDXY+ffeuEVd5X4DQh6AAAAAAAAAABNd38d8WdVPfbHt15UZsBjN0EPAAAAAAAAAKCpbqmr+qJHHt3x/nvec91Pm/ANCXoAAAAAAAAAAE2yLSKurKvq4ttntn8izr9urknfnKAHAAAAAAAAANAEX4uq/uh4Z+zD33vHlT9q6jc5XlXxO3U/uhHRi6p+TkR1kN4DAAAAAAAAAJmrI+IbdVV9LOr60tsvvPrmNnzT1b5/sP68M9eN1zt6dVV1I+pe1NGNqE6IqA8vooXNelBz/q9LyfKdNb2x0wyBndakOdMbO80Q2Gl2Go3pjQGw0+y0XHVWeINcAACAxH5cRVzTj7h6x9zc3975ruvuaFsBqgP9wCICIC4QsuXFtoxnTW9a3X5DYKc1bqD1xk4zBHaanUZjemMA7DQ7LVeCHgAAACN3W0R8Merqhk6nc/0t35+5MS69dEebC1It9RPMHwCJ4yPiiJF/Ny4QsuXFtoxnTW9a3X5DYKc1bqD1xk4zBHaanUZjemMA7DQ7LVeCHgAAAMvm7oi4NaK6sarqG/tRfWvF9vFvfvddn71HafZWLdcnXiAA0ouII8t/0cArR4uumJLlO2t60+r2GwI7rXEDrTd2miGw0+w0GtMbA2Cn2Wm56qwY/7q5AQAAOGA/2XUq3FZFPFRX8WDUcV9E3LPr17vrasetcw+tueUH7/3Uw8p1YKpRP3BZAyAuELLlxbaMZ01vWt1+Q2CnNW6g9cZOMwR2mp1GY3pjAOw0Oy1X33/3dZW5AQAAIKVsDqZ7BkCqfn+27nR6UdfdiJg94E/iAiFbXmzLeNb0ptXtNwR2WuMGWm/sNENgp9lpNKY3BsBOs9NyJegBAABAatkfTNefd+a6idg+26/HelXd7+43AOICIVtebMt41vSm1e03BHZa4wZab+w0Q2Cn2Wk0pjcGwE6z03Il6AEAAEBqxR5Mjzn3FQeNrXz4mXsFQPqLfAeQgXnlaNEVU7J8Z01vWt1+Q2CnNW6g9cZOMwR2mp1GY3pjAOw0Oy1Xgh4AAACk1riD6WMBkB1jvarqd+vo9CLqbkQ8Y3jfr1eOFl0xJct31vSm1e03BHZa4wZab+w0Q2Cn2Wk0pjcGwE6z03Il6AEAAEBqrTmYDjcA4pWjxfJi28CVa8QjyL03hsBOa9Cc6Y2dZgjsNDuNxvTGANhpdlquBD0AAABIrfUH09m3v3BtVXU2LC4A4pWjxfJi28CVa8QjyL03hsBOa9Cc6Y2dZgjsNDuNxvTGANhpdlquBD0AAABIzcF0AfsPgNTqtkhebBu4co14BLn3xhDYaQ2aM72x0wyBnWan0ZjeGAA7zU7LlaAHAAAAqTmYLtKGczbN1FM7ju3vqHpVFd06ohdRdSPqYyKio0Lz82LbwJVrxCPIvTeGwE5r0JzpjZ1mCOw0O43G9MYA2Gl2Wq4EPQAAAEjNwXRIHg+AdGarKnp1VXeriF5dx7NDAMSLbYNXrhGPIPfeGAI7rUFzpjd2miGw0+w0GtMbA2Cn2Wm5EvQAAAAgNQfTZbbhnE2Tsbq/YUe/6rY5AOLFtoEr14hHkHtvDIGd1qA50xs7zRDYaXYajemNAbDT7LRcCXoAAACQmoNpIr3zN6/Y+sgDx7YlAOLFtoEr14hHkHtvDIGd1qA50xs7zRDYaXYajemNAbDT7LRcCXoAAACQmoNpZpoaAPFi28CVa8QjyL03hsBOa9Cc6Y2dZgjsNDuNxvTGANhpdlquBD0AAABIzcG0EPsJgDwrIsZy//q92DZw5RrxCHLvjSGw0xo0Z3pjpxkCO81OozG9MQB2mp2WK0EPAAAAUnMwLVwpARAvtg1cuUY8gtx7YwjstAbNmd7YaYbATrPTaExvDICdZqflStADAACA1BxMGyq3AIgX2wauXCMeQe69MQR2WoPmTG/sNENgp9lpNKY3BsBOs9NyJegBAABAag6mLXPqWadObFl3yHGjDoB4sW3gyjXiEeTeG0NgpzVozvTGTjMEdpqdRmN6YwDsNDstV4IeAAAApOZgSkTsHQCpq3q2iuhFRDcijo+IyaV+fi+2DVy5RjyC3HtjCOy0Bs2Z3thphsBOs9NoTG8MgJ1mp+VK0AMAAIDUHEzZr1PPOnXinoPXHT1Wd3p1XXX3CID0ImLlgX4eL7YNStBD+xv1oOa0RsnynTO9sdMMgZ1mp9GY3hgAO81Oy5WgBwAAAKk5mDKQxQZAvNg2KEEP7W/Ug5rTGiXLd870xk4zBHaanUZjemMA7DQ7LVeCHgAAAKTmYMpQLRQAqevFvQMIuwl6aH+jHtSc1ihZvnOmN3aaIbDT7DQa0xsDYKfZabkS9AAAACA1B1NGYuP5G8dvfnR8/dhcp1d3qm7dj16nE926rrsR1SoVWoigh/Y36kHNaY2S5TtnemOnGQI7zU6jMb0xAHaanZYrQQ8AAABSczAlKQGQJyPoof2NelBzWqNk+c6Z3thphsBOs9NoTG8MgJ1mp+VK0AMAAIDUHEzJ0sIBkHhORKxuTyUEPVrNpWi+rVGyfOdMb+w0Q2Cn2Wk0pjcGwE6z03Il6AEAAEBqDqYUpX0BEEGPVnMpmm9rlCzfOdMbO80Q2Gl2Go3pjQGw0+y0XAl6AAAAkJqDKc2wefPY+mfe//TxubHZfhW9iKpbRfTqqE+JogMggh6t5lI039YoWb5zpjd2miGw0+w0GtMbA2Cn2Wm5EvQAAAAgNQdTGu/ot51x1ES/090nAHJyREzl/9ULerSaS9F8W6Nk+c6Z3thphsBOs9NoTG8MgJ1mp+VK0AMAAIDUHExprTICIIIereZSNN/WKFm+c6Y3dpohsNPsNBrTGwNgp9lpuRL0AAAAIDUHU9jHfAGQfl2fVFWxZvRfjaBHq7kUzbc1SpbvnOmNnWYI7DQ7jcb0xgDYaXZargQ9AAAASM3BFA5QmgCIoEeruRTNtzVKlu+c6Y2dZgjsNDuNxvTGANhpdlquBD0AAABIzcEUlmiBHwFzYkRML/2zC3q0mkvRfFujZPnOmd7YaYbATrPTaExvDICdZqflStADAACA1BxMYZkMJwAi6NFqLkXzbY2S5TtnemOnGQI7zU6jMb0xAHaanZYrQQ8AAABSczCFEVtcAETQo9VciubbGiXLd870xk4zBHaanUZjemMA7DQ7LVeCHgAAAKTmYAqZWH/emevG6x29uu5364heXVfdKuqTIuLQZX2wF0Lz5VI039YoWb5zpjd2miGw0+w0GtMbA2Cn2Wm5EvQAAAAgNQdTyNzOAMjWXl13dgVAoltFnBgRhw3lAV4IzZdL0Xxbo2T5zpne2GmGwE6z02hMbwyAnWan5UrQAwAAgNQcTKFQQwuAeCE0Xy5F822NkuU7Z3pjpxkCO81OozG9MQB2mp2WK0EPAAAAUnMwhYZZIAByQkQcPu9f8EJovlyK5tsaJct3zvTGTjMEdpqdRmN6YwDsNDstV4IeAAAApOZgCi2xQADk+KjjCNXJlEvRfFujZPnOmd7YaYbATrPTaExvDICdZqflStADAACA1BxMoeXWn3fmuvHtW3t1dLp1Fb06dgVAQgAkOZei+bZGyfKdM72x0wyBnWan0ZjeGAA7zU7LlaAHAAAAqTmYAvNaIADSi4gjVWdEXIrm2xoly3fO9MZOMwR2mp1GY3pjAOw0Oy1Xgh4AAACk5mAKLIoAyAi5FM23NUqW75zpjZ1mCOw0O43G9MYA2Gl2Wq4EPQAAAEjNwRQYivXnnbkutm+fHetUvbrud+u66lWd6EYds6ozIJei+bZGyfKdM72x0wyBnWan0ZjeGAA7zU7LlaAHAAAAqTmYAstKAGQJXIrm2xoly3fO9MZOMwR2mp1GY3pjAOw0Oy1Xgh4AAACk5mAKJHHMuRsP6o+teOY8AZBn2E27uBTNtzVKlu+c6Y2dZgjsNDuNxvTGANhpdlquBD0AAABIzcEUyIoAyB5ciubbGiXLd870xk4zBHaanUZjemMA7DQ7LVeCHgAAAKTmYAoUYfbtL1w7N9fZ0KoAiEvRfFujZPnOmd7YaYbATrPTaExvDICdZqflStADAACA1BxMgaI1OgDiUjTf1ihZvnOmN3aaIbDT7DQa0xsDYKfZabkS9AAAACA1B1OgkTacs2lm24odxxYdAHEpmm9rlCzfOdMbO80Q2Gl2Go3pjQGw0+y0XAl6AAAAkJqDKdAq+wmAHBMRnay+WJei2XKBkPGc6U3rR8AQ2Gl2Gs3pjQGw0+y0XAl6AAAAkJqDKUBEbDhn0+S21f0NY/2d4Y+IqhvR70VUz45UARCXotlygZDxnOlN60fAENhpdhrN6Y0BsNPstFwJegAAAJCagynAfiQNgLgUzZYLhIznTG9aPwKGwE6z02hObwyAnWan5UrQAwAAgNQcTAEG0Dt/84oHH3ng2GUNgLgUzZYLhIznTG9aPwKGwE6z02hObwyAnWan5UrQAwAAgNQcTAGGaD8BkGdFxNiiPplL0Wy5QMh4zvSm9SNgCOw0O43m9MYA2Gl2Wq4EPQAAAEjNwRRgBAYKgLgUzZYLhIznTG9aPwKGwE6z02hObwyAnWan5UrQAwAAgNQcTAES2m8ApF7kO4AMzKvhi66YkuU7Z3rT+hEwBHaanUZzemMA7DQ7LVeCHgAAAKTmYAqQod75m1c8uOWBY8eqfrfu7AqA1AP+CJgn5dXwRVdMyfKdM71p/QgYAjvNTqM5vTEAdpqdlitBDwAAAFJzMAUoyKlnnTpxz9Qhx+0ZAKnqeraOOD4iJgf7rF4NX3TFlCzfOdOb1o+AIbDT7DSa0xsDYKfZabkS9AAAACA1B1OABtgZAFl39NhYp1dH1a3rfq8TVffAAiBeDV8sFwgDVa1RjyHn3hgCO81Ooym9MQB2mp2WK0EPAAAAUnMwBWiw/QRAehGxcudHeTV8sVwgDFS1Rj2GnHtjCOw0O42m9MYA2Gl2Wq4EPQAAAEjNwRSghfYOgNTduo5eJ2KfAAgLcYEwUNUa9Rhy7o0hsNPsNJrSGwNgp9lpuRL0AAAAIDUHUwAes/H8jeM3bxlfP08ApBsRq1RoJxcIA1WtUY8h594YAjvNTqMpvTEAdpqdlitBDwAAAFJzMAXgSQmA7M0FwkBVa9RjyLk3hsBOs9NoSm8MgJ1mp+VK0AMAAIDUHEwBGFhbAyAuEAaqWqMeQ869MQR2mp1GU3pjAOw0Oy1Xgh4AAACk5mAKwNAtGACp4zlRxerSvz8XCANVrVGPIefeGAI7zU6jKb0xAHaanZYrQQ8AAABSczAFYGSaEgBxgTBQ1Rr1GHLujSGw0+w0mtIbA2Cn2Wm5EvQAAAAgNQdTALJw9NvOOGqiX3f7ddWLqLtVXfXqKk6OiKncvlYXCANVrVGPIefeGAI7zU6jKb0xAHaanZYrQQ8AAABSczAFIGs5BkBcIAxUtUY9hpx7YwjsNDuNpvTGANhpdlquBD0AAABIzcEUgCLNFwDpV3FSFbFmuZ/tAmGgqjXqMeTcG0Ngp9lpNKU3BsBOs9NyJegBAABAag6mADTKKAIgLhAGqlqjHkPOvTEEdpqdRlN6YwDsNDstV4IeAAAApOZgCkArDDMA4gJhEC4QjEDjHtSc1iiZnUamvTEAdpqdlitBDwAAAFJzMAWg1eYLgNRVfWJENb3Q33GBMAgXCEagcQ9qTmuUzE4j094YADvNTsuVoAcAAACpOZgCwDz2FwBxgTAIFwhGoHEPak5rlMxOI9PeGAA7zU7LlaAHAAAAqTmYAsAiHP22M46qttfd6FS9Tr/u1p3ObNT1SRFxqOrsjwsEI9C4BzWnNUpmp5FpbwyAnWan5UrQAwAAgNQcTAFgCNafd+a62L61F9Hpduq6V1dVVwBkTy4QjEDjHtSc1iiZnUamvTEAdpqdlitBDwAAAFJzMAWAZbRAAOTEiDisXZVwgdB6gh75tkbJ7DQy7Y0BsNPstFwJegAAAJCagykAJLBAAOSEiDi8md+xC4TWE/TItzVKZqeRaW8MgJ1mp+VK0AMAAIDUHEwBICPNDYC4QGg9QY98W6NkdhqZ9sYA2Gl2Wq4EPQAAAEjNwRQACjB/ACSOj6iPKOM7cIHQeoIe+bZGyew0Mu2NAbDT7LRcCXoAAACQmoMpABSsnACIC4TWE/TItzVKZqeRaW8MgJ1mp+VK0AMAAIDUHEwBoIEW+BEwvYg4Ms1X5AKh9QQ98m2NktlpZNobA2Cn2Wm5EvQAAAAgNQdTAGiRfQIgs3XUvYiqGxGzy/tkFwitJ+iRb2uUzE4j094YADvNTsuVoAcAAACpOZgCALsCINtno+73OlF1hx8AcYHQeoIe+bZGyew0Mu2NAbDT7LRcCXoAAACQmoMpALCgY87deFB/bMUzlx4AcYHQeoIe+bZGyfKdM71p+QgYADvNTsuVoAcAAACpOZgCAIu2nwDIM+b/9wsXCK0n6JFva5Qs3znTm5aPgAGw0+y0XAl6AAAAkJqDKQAwNAsHQOpnjOTfO1zu5EvQI9/WKFm+c6Y3LR8BA2Cn2Wm5EvQAAAAgNQdTAGDZzb79hWvn5jobdgZAoltH9CJiP+8AMiCXO/kS9Mi3NUqW75zpTctHwADYaXZargQ9AAAASM3BFABIZugBEJc7+RL0yLc1SpbvnOlNy0fAANhpdlquBD0AAABIzcEUAMjOhnM2zWxbsePYeQIgx0REZ8G/6HInX4Ie+bZGyfKdM71p+QgYADvNTsuVoAcAAACpOZgCAMV4PABSz3ai7sXjIZBnR0THnVjGBD3ybY2S5TtnetPyETAAdpqdlitBDwAAAFJzMAUAirfhnE2T28Yf3RDVeLcTdS/qfQIgpCfokW9rlCzfOdOblo+AAbDT7LRcCXoAAACQmoMpANBYvfM3r3hwy73HCoBkQNAj39YoWb5zpjctHwEDYKfZabkS9AAAACA1B1MAoHUEQBIQ9Mi3NUqW75zpTctHwADYaXZargQ9AAAASM3BFABgl/0EQJ4VEWMqtASCHvm2RsnynTO9afkIGAA7zU7LlaAHAAAAqTmYAgA8CQGQIRD0yLc1SpbvnOlNy0fAANhpdlquBD0AAABIzcEUAGBAAiCLIOiRb2uULN8505uWj4ABsNPstFwJegAAAJCagykAwJCdetapE/dMzRwnALIHQY98W6Nk+c6Z3rR8BAyAnWan5UrQAwAAgNQcTAEARmTPAEhEzFZ13YuIbkQcHxGTjf7mBT3ybY2S5TtnetPyETAAdpqdlitBDwAAAFJzMAUASGxnAGTd0RGdXlR1d48ASC8iVjbimxT0yLc1SpbvnOlNy0fAANhpdlquBD0AAABIzcEUACBTjQqACHrk2xoly3fO9KblI2AA7DQ7LVeCHgAAAKTmYAoAUJgiAyCCHtlyKZrxnOlNy0fAANhpdlquBD0AAABIzcEUAKApzt84vn7L+Pp5AiDdiFiV9GsT9MiWS9GM50xvWj4CBsBOs9NyJegBAABAag6mAABNl0MARNAjWy5FM54zvWn5CBgAO81Oy5WgBwAAAKk5mAIAtNXCAZDnRMTqoT5L0CNbLkUznjO9afkIGAA7zU7LlaAHAAAAqTmYAgCwt+UIgAh6ZMulaMZzpjctHwEDYKfZabkS9AAAACA1B1MAAA7M5s1j6592/9MjYjai6nWi7tYRvYg4JZ4sACLokS2XohnPmd60fAQMgJ1mp+VK0AMAAIDUHEwBAFiyo992xlHV9rq7TwDk5IiYighBj4y5FM14zvSm5SNgAOw0Oy1Xgh4AAACk5mAKAMCy2SsAUs8TABk6N3yLrpiS5TtnetPyETAAdpqdlitBDwAAAFJzMAUAYOSOfssZR1UTTwiAnBQRa5b2md3wLbpiSpbvnOlNy0fAANhpdlquBD0AAABIzcEUAIBsLD0A4oZvsVyKDlS1Rj2GXHtjAOw0Oy1Xgh4AAACk5mAKAED2FgiAnBgR03t/pBu+xXIpOlDVGvUYcu2NAbDT7LRcCXoAAACQmoMpAADFemIApN+LqOYJgLAQl6IDVa1RjyHX3hgAO81Oy5WgBwAAAKk5mAIA0DiPB0DqXqeObh21AMgCXIoOVLVGPYZce2MA7DQ7LVeCHgAAAKTmYAoAQGusP/t562LFyl50otuJulfX0Y2oT4qoDm1rTVyKDlS1Rj2GXHtjAOw0Oy1Xgh4AAACk5mAKAEDrzR8AiRMj4rCmf+8uRQeqWqMeQ669MQB2mp2WK0EPAAAAUnMwBQCABbQhAOJSdKCqNeox5NobA2Cn2Wm5EvQAAAAgNQdTAABYpAUCICdExOGlfS8uRQeqWqMeQ669MQB2mp2WK0EPAAAAUnMwBQCAIZk3AFLH8VHFEbl+zS5FB6paox5Drr0xAHaanZYrQQ8AAABSczAFAIBllnMAxKXoQFVr1GPItTcGwE6z03Il6AEAAEBqDqYAAJDIAj8CphcRR47qa3ApOlDVGvUYcu2NAbDT7LRcCXoAAACQmoMpAABkZpQBEJeiA1WtUY8h194YADvNTsuVoAcAAACpOZgCAEAh1p/9vHUxMTEb1Viv04luHXUvdoZAZgf9nC5FB6paox5Drr0xAHaanZYrQQ8AAABSczAFAIDCLSUA4lJ0EC5FjYAByLY1ymanjYCgBwAAAKk5mAIAQEMdc+7Gg/r96pnzBECesfss4FJ0EC5FjYAByLY1ymanjYCgBwAAAKk5mAIAQMvsGQCJiG5EvevXxwMg7I9LUSNgALJtjbLZaSMg6AEAAEBqDqYAAEBERMy+/YVr5x7ZsUEA5Mm4FDUCBiDb1iibnTYCgh4AAACk5mAKAADslwDIvlyKtp6gR76tUTY7bQQEPQAAAEjNwRQAABjIhnM2zWyrHj22fQEQl6KtJ+iRb2uUzU4bAUEPAAAAUnMwBQAAhmo/AZBjIqJT/nfoUrT1BD3ybY2y2WkjIOgBAABAag6mAADASGw4Z9PktvFHN0S/6kbV6UX9WAjk2VFUAMSlaOsJeuTbGmWz00ZA0AMAAIDUHEwBAICkyguAuBRtPUGPfFujbHbaCAh6AAAAkJqDKQAAkKXe+ZtXPLjl3mPzC4C4FG09QY98W6NsdtoICHoAAACQmoMpAABQlP0EQJ4VEWPL/xW4FG09QY98W6NsdtoICHoAAACQmoMpAADQCKMLgLgUbT1Bj3xbo2x22ggIegAAAJCagykAANBoww+AuBRtPUGPfFujbPnOmqAHAAAADI2DKQAA0EqDB0BciraeoEe+rVG2fGdN0AMAAACGxsEUAABgD6eederEPVMzx+0dAInZiPr4iJh0KYqgR8atUbZ8Z03QAwAAAIbGwRQAAOAA7AyArDs6ot+LfnSjit0hkF0BkCFzYZ0vQY98W6Ns+c6aoAcAAAAMjYMpAADAEuwnANKLiJUDf2IX1vkS9Mi3NcqW76wJegAAAMDQOJgCAAAsgyUHQFxY50vQI9/WKFu+syboAQAAAEPjYAoAADBK528cX79lfP08AZBuRKx67ONcWOdL0CPf1ihbvrMm6AEAAABD42AKAACQg30DIHX0IuYJgJCeoEe+rVG2fGdN0AMAAACGxsEUAAAgZ7sDIHP9ncGPSgAkOUGPfFujbPnOmqAHAAAADI2DKQAAQIkWDoA8JyJWK9AyEvTItzXKlu+sCXoAAADA0DiYAgAANIkAyPIT9Mi3NcqW76wJegAAAMDQOJgCAAC0xNFvOeOoqqq7UdW7QiB1L+o4OSKmVGcRBD3ybY2y5Ttrgh4AAAAwNA6mAAAALScAskiCHvm2RtnynTVBDwAAABgaB1MAAADmtUAA5KSIWNPqwgh65NsaZct31gQ9AAAAYGgcTAEAAFiU1gdABD3ybY2y5Ttrgh4AAAAwNA6mAAAADEVrAiCCHvm2RtnynTVBDwAAABgaB1MAAACW1QIBkBMjYrrIb0jQI9/WKFu+syboAQAAAEPjYAoAAEASxQZABD3ybY2y5Ttrgh4AAAAwNA6mAAAAZOUJAZDoz1ZRnVRHHJrFFyjokS1Bj4xnTdADAAAAhsbBFAAAgCKsP/t562LFyl7UO7pRdXpR97tJAiCCHtkS9Mh41gQ9AAAAYGgcTAEAACjafAGQqKoTo47DluWBgh7ZEvTIeNYEPQAAAGBoHEwBAABopHkDIFGdEBGHL+kTC3pkS9Aj41kT9AAAAIChcTAFAACgVZYcABH0yJagR8azJugBAAAAQ+NgCgAAALFgAOT4iDhirw8U9MiWoEfGsyboAQAAAEPjYAoAAAD78YQASH+BAMhQSSwMVDVly3fWBD0AAABgaBxMAQAAYAB7BUDqTi+i343o9CLqI5f+2SUWBqqasuU7a4IeAAAAMDQOpgAAADBEewdAqtmoohf96EYVswf+WSQWBiHoMVDVGvWYURD0AAAAIDUHUwAAABiB9Wc/b11MTMxGHb2Iqrv/AIjEwiAEPQaqWqMeMwqCHgAAAKTmYAoAAAAJHXPuxoP6/eqZewdA6kW+AwgRgh4DVq1RjxkFQQ8AAABSczAFAACADO0nAPIM5/n5CXoMVLVGPWYUBD0AAABIzcEUAAAACiIAsjBBj4Gq1qjHjIKgBwAAAKk5mAIAAEADzJ71wrVzK3dsaHMARNBjoKo16jGjIOgBAABAag6mAAAA0GBtCoAIegxUtUY9ZhQEPQAAAEjNwRQAAABaaMM5m2a2VY8eO08A5JiI6JT4PQl6DFS1Rj1mFAQ9AAAASM3BFAAAAHjMEwMg9ezO38ezI/MAiKDHQFVr1GNGQdADAACA1BxMAQAAgCe14ZxNk9v6j26IqupGJ3oRdTe3AIigx0BVa9RjRkHQAwAAgNQcTAEAAICB9c7fvOLBe+49NocAiKDHQFVr1GNGQdADAACA1BxMAQAAgKFLEQAR9Bioao16zCgIegAAAJCagykAAAAwMvsJgDwrIsaW8rkFPQaqWqMeMwqCHgAAAKTmYAoAAAAkN4wAiKDHIAQ9FkvQAwAAgNQcTAEAAIBsLSYAIugxCEGPxRL0AAAAIDUHUwAAAKA4p5516sQ9EzPH7RkAqfvD+REw7SLosViCHgAAAKTmYAoAAAA0xl4BkLo/2+9UvaqObkQcHxGTKrQvQY/FEvQAAAAgNQdTAAAAoPFOPevUiXvG1h0d4/1e9PtdAZDdBD0WS9ADAACA1BxMAQAAgNbaTwCkFxErm18BQY/FEvQAAAAgNQdTAAAAgH20JwAi6LFYgh4AAACk5mAKAAAAcKDO3zi+/u7x9fMEQLoRsaq8b0jQY7EEPQAAAEjNwRQAAABgqYoNgAh6LJagBwAAAKk5mAIAAAAsl4UDIM+JiNXpv0BBj8US9AAAACA1B1MAAACAUcsmACLosViCHgAAAKTmYAoAAACQi82bx9Yfcv/TY3xuNuro9aPqVhG9iDglliUAIuixWIIeAAAApOZgCgAAAFCAo99yxlFVtb27TwDk5IiYGvyzCnoslqAHAAAAqTmYAgAAABRsaQEQQY/FEvQAAAAgNQdTAAAAgAZaIAByUkSsefyjBD0WS9ADAACA1BxMAQAAAFpk7wBI3a2imicAMmSCHgAAADA0DqYAAAAAzBsAqeo4sa5iesmfXNADAAAAhsbBFAAAAIAFDSUAIugBAAAAQ+NgCgAAAMCiLSoAIugBAAAAQ+NgCgAAAMDQrD/7eeuiGu9Fp+r2636vqqpu1HFSRBzahO9P0AMAAIDUHEwBAAAAWHZPCIDUVbeu6hOrqA4r6fsQ9AAAACA1B1MAAAAAkiktACLoAQAAQGoOpgAAAABkZ74ASFRxQkQcnvLrEvQAAAAgNQdTAAAAAIqROgAi6AEAAEBqDqYAAAAAFG+BAMjxEXHEMJ8j6AEAAEBqDqYAAAAANNa8AZBO9KKOIwf5fIIeAAAApOZgCgAAAEDrDBoAEfQAAAAgtf8PErkayvKQBccAAAAldEVYdGRhdGU6Y3JlYXRlADIwMjItMTItMDJUMTI6MTM6NDUrMDA6MDC1J6YFAAAAJXRFWHRkYXRlOm1vZGlmeQAyMDIyLTEyLTAyVDEyOjEzOjQ1KzAwOjAwxHoeuQAAAABJRU5ErkJggg==;fontStyle=1" vertex="1" parent="1">
          <mxGeometry x="205" y="503.08" width="74" height="69.84" as="geometry" />
        </mxCell>
        <mxCell id="35QQ6GFylacjN5FKlyGc-14" style="edgeStyle=orthogonalEdgeStyle;rounded=0;orthogonalLoop=1;jettySize=auto;html=1;strokeWidth=2;fontStyle=1" edge="1" parent="1" source="35QQ6GFylacjN5FKlyGc-5" target="35QQ6GFylacjN5FKlyGc-13">
          <mxGeometry relative="1" as="geometry" />
        </mxCell>
        <mxCell id="35QQ6GFylacjN5FKlyGc-17" style="edgeStyle=orthogonalEdgeStyle;rounded=0;orthogonalLoop=1;jettySize=auto;html=1;strokeWidth=2;fontStyle=1" edge="1" parent="1" source="35QQ6GFylacjN5FKlyGc-6" target="35QQ6GFylacjN5FKlyGc-13">
          <mxGeometry relative="1" as="geometry" />
        </mxCell>
        <mxCell id="35QQ6GFylacjN5FKlyGc-18" style="edgeStyle=orthogonalEdgeStyle;rounded=0;orthogonalLoop=1;jettySize=auto;html=1;strokeWidth=2;fontStyle=1" edge="1" parent="1" source="35QQ6GFylacjN5FKlyGc-7" target="35QQ6GFylacjN5FKlyGc-13">
          <mxGeometry relative="1" as="geometry" />
        </mxCell>
        <mxCell id="35QQ6GFylacjN5FKlyGc-16" style="edgeStyle=orthogonalEdgeStyle;rounded=0;orthogonalLoop=1;jettySize=auto;html=1;strokeWidth=2;fontStyle=1" edge="1" parent="1" source="35QQ6GFylacjN5FKlyGc-8" target="35QQ6GFylacjN5FKlyGc-13">
          <mxGeometry relative="1" as="geometry" />
        </mxCell>
        <mxCell id="35QQ6GFylacjN5FKlyGc-15" style="edgeStyle=orthogonalEdgeStyle;rounded=0;orthogonalLoop=1;jettySize=auto;html=1;entryX=0.5;entryY=1;entryDx=0;entryDy=0;strokeWidth=2;fontStyle=1" edge="1" parent="1" source="35QQ6GFylacjN5FKlyGc-9" target="35QQ6GFylacjN5FKlyGc-13">
          <mxGeometry relative="1" as="geometry" />
        </mxCell>
        <mxCell id="35QQ6GFylacjN5FKlyGc-20" value="&lt;span&gt;Multidata.csv&lt;/span&gt;" style="text;html=1;strokeColor=none;fillColor=none;align=center;verticalAlign=middle;whiteSpace=wrap;rounded=0;fontStyle=1" vertex="1" parent="1">
          <mxGeometry x="289" y="528" width="76" height="30" as="geometry" />
        </mxCell>
        <mxCell id="35QQ6GFylacjN5FKlyGc-51" style="edgeStyle=orthogonalEdgeStyle;rounded=0;orthogonalLoop=1;jettySize=auto;html=1;entryX=0.5;entryY=1;entryDx=0;entryDy=0;strokeWidth=2;" edge="1" parent="1" source="35QQ6GFylacjN5FKlyGc-45" target="35QQ6GFylacjN5FKlyGc-13">
          <mxGeometry relative="1" as="geometry" />
        </mxCell>
        <mxCell id="35QQ6GFylacjN5FKlyGc-45" value="&lt;div&gt;Mapping Cruise&lt;/div&gt;&lt;div&gt;&lt;br&gt;&lt;/div&gt;" style="html=1;verticalLabelPosition=bottom;align=center;labelBackgroundColor=#ffffff;verticalAlign=top;strokeWidth=2;shadow=0;dashed=0;shape=mxgraph.ios7.icons.data;fontStyle=1" vertex="1" parent="1">
          <mxGeometry x="343" y="727" width="44" height="59.1" as="geometry" />
        </mxCell>
        <mxCell id="35QQ6GFylacjN5FKlyGc-49" style="edgeStyle=orthogonalEdgeStyle;rounded=0;orthogonalLoop=1;jettySize=auto;html=1;entryX=0.5;entryY=0;entryDx=0;entryDy=0;strokeWidth=2;" edge="1" parent="1" source="35QQ6GFylacjN5FKlyGc-46" target="35QQ6GFylacjN5FKlyGc-13">
          <mxGeometry relative="1" as="geometry" />
        </mxCell>
        <mxCell id="35QQ6GFylacjN5FKlyGc-46" value="&lt;span&gt;DAR&lt;br&gt;&lt;/span&gt;" style="html=1;verticalLabelPosition=bottom;align=center;labelBackgroundColor=#ffffff;verticalAlign=top;strokeWidth=2;shadow=0;dashed=0;shape=mxgraph.ios7.icons.data;fontStyle=1;" vertex="1" parent="1">
          <mxGeometry x="343" y="300" width="44" height="59.1" as="geometry" />
        </mxCell>
        <mxCell id="35QQ6GFylacjN5FKlyGc-48" style="edgeStyle=orthogonalEdgeStyle;rounded=0;orthogonalLoop=1;jettySize=auto;html=1;entryX=0.5;entryY=0;entryDx=0;entryDy=0;strokeWidth=2;" edge="1" parent="1" source="35QQ6GFylacjN5FKlyGc-47" target="35QQ6GFylacjN5FKlyGc-13">
          <mxGeometry relative="1" as="geometry" />
        </mxCell>
        <mxCell id="35QQ6GFylacjN5FKlyGc-47" value="Export Cteleport" style="html=1;verticalLabelPosition=bottom;align=center;labelBackgroundColor=#ffffff;verticalAlign=top;strokeWidth=2;shadow=0;dashed=0;shape=mxgraph.ios7.icons.data;fontStyle=1;" vertex="1" parent="1">
          <mxGeometry x="343" y="403" width="44" height="59.1" as="geometry" />
        </mxCell>
        <mxCell id="35QQ6GFylacjN5FKlyGc-44" value="QS Amadeus" style="html=1;verticalLabelPosition=bottom;align=center;labelBackgroundColor=#ffffff;verticalAlign=top;strokeWidth=2;shadow=0;dashed=0;shape=mxgraph.ios7.icons.data;fontStyle=1" vertex="1" parent="1">
          <mxGeometry x="343" y="608" width="44" height="59.1" as="geometry" />
        </mxCell>
        <mxCell id="35QQ6GFylacjN5FKlyGc-50" style="edgeStyle=orthogonalEdgeStyle;rounded=0;orthogonalLoop=1;jettySize=auto;html=1;entryX=0.5;entryY=1;entryDx=0;entryDy=0;strokeWidth=2;" edge="1" parent="1" source="35QQ6GFylacjN5FKlyGc-44" target="35QQ6GFylacjN5FKlyGc-13">
          <mxGeometry relative="1" as="geometry" />
        </mxCell>
        <mxCell id="35QQ6GFylacjN5FKlyGc-61" value="" style="shape=flexArrow;endArrow=classic;html=1;rounded=0;width=17.647058823529413;endSize=7.91764705882353;fillColor=#f5f5f5;strokeColor=#666666;" edge="1" parent="1">
          <mxGeometry width="50" height="50" relative="1" as="geometry">
            <mxPoint x="111.60000000000002" y="220" as="sourcePoint" />
            <mxPoint x="111.60000000000002" y="289.1" as="targetPoint" />
          </mxGeometry>
        </mxCell>
        <mxCell id="35QQ6GFylacjN5FKlyGc-62" value="" style="shape=flexArrow;endArrow=classic;html=1;rounded=0;width=17.647058823529413;endSize=7.91764705882353;fillColor=#f5f5f5;strokeColor=#666666;" edge="1" parent="1">
          <mxGeometry width="50" height="50" relative="1" as="geometry">
            <mxPoint x="365" y="220" as="sourcePoint" />
            <mxPoint x="365" y="289.1" as="targetPoint" />
          </mxGeometry>
        </mxCell>
        <mxCell id="35QQ6GFylacjN5FKlyGc-64" value="&lt;b&gt;&lt;font style=&quot;font-size: 11px;&quot;&gt;Data sources for calculated fields&lt;/font&gt;&lt;/b&gt;" style="text;html=1;strokeColor=none;fillColor=none;align=center;verticalAlign=middle;whiteSpace=wrap;rounded=0;" vertex="1" parent="1">
          <mxGeometry x="237.5" y="180" width="255" height="30" as="geometry" />
        </mxCell>
        <mxCell id="35QQ6GFylacjN5FKlyGc-67" value="&lt;b&gt;Data sources&lt;br&gt;&lt;/b&gt;" style="text;html=1;strokeColor=none;fillColor=none;align=center;verticalAlign=middle;whiteSpace=wrap;rounded=0;" vertex="1" parent="1">
          <mxGeometry x="-15.5" y="180" width="255" height="30" as="geometry" />
        </mxCell>
        <mxCell id="35QQ6GFylacjN5FKlyGc-41" value="&lt;font style=&quot;font-size: 13px;&quot;&gt;&lt;b&gt;Connexion To AWS Cloud&lt;/b&gt;&lt;/font&gt;" style="ellipse;whiteSpace=wrap;html=1;fillColor=#fff2cc;strokeColor=#d6b656;" vertex="1" parent="1">
          <mxGeometry x="620" y="508" width="180" height="70" as="geometry" />
        </mxCell>
        <mxCell id="35QQ6GFylacjN5FKlyGc-71" value="" style="shape=flexArrow;endArrow=classic;html=1;rounded=0;fillColor=#fff2cc;strokeColor=#d6b656;" edge="1" parent="1">
          <mxGeometry width="50" height="50" relative="1" as="geometry">
            <mxPoint x="800" y="544" as="sourcePoint" />
            <mxPoint x="920" y="543.2452830188679" as="targetPoint" />
          </mxGeometry>
        </mxCell>
        <mxCell id="35QQ6GFylacjN5FKlyGc-73" value="&lt;b&gt;Ingestion to DataLake&lt;br&gt;&lt;/b&gt;" style="ellipse;whiteSpace=wrap;html=1;fillColor=#fff2cc;strokeColor=#d6b656;" vertex="1" parent="1">
          <mxGeometry x="920" y="508.45" width="180" height="70" as="geometry" />
        </mxCell>
        <mxCell id="35QQ6GFylacjN5FKlyGc-74" value="&lt;font style=&quot;font-size: 12px;&quot;&gt;&lt;b&gt;Raw Data&lt;font style=&quot;font-size: 12px;&quot;&gt;&lt;br&gt;&lt;/font&gt;&lt;/b&gt;&lt;/font&gt;" style="ellipse;whiteSpace=wrap;html=1;fillColor=#ffe6cc;strokeColor=#d79b00;" vertex="1" parent="1">
          <mxGeometry x="1299" y="300" width="180" height="70" as="geometry" />
        </mxCell>
        <mxCell id="35QQ6GFylacjN5FKlyGc-75" value="&lt;b&gt;Processed Data&lt;/b&gt;" style="ellipse;whiteSpace=wrap;html=1;fillColor=#ffe6cc;strokeColor=#d79b00;" vertex="1" parent="1">
          <mxGeometry x="1299" y="580" width="180" height="70" as="geometry" />
        </mxCell>
        <mxCell id="35QQ6GFylacjN5FKlyGc-76" value="&lt;b&gt;Archived Data&lt;br&gt;&lt;/b&gt;" style="ellipse;whiteSpace=wrap;html=1;fillColor=#ffe6cc;strokeColor=#d79b00;" vertex="1" parent="1">
          <mxGeometry x="1040" y="585" width="180" height="70" as="geometry" />
        </mxCell>
        <mxCell id="35QQ6GFylacjN5FKlyGc-77" value="&lt;b&gt;Tranform Data&lt;br&gt;&lt;/b&gt;" style="ellipse;whiteSpace=wrap;html=1;fillColor=#ffe6cc;strokeColor=#d79b00;" vertex="1" parent="1">
          <mxGeometry x="1299" y="445" width="180" height="70" as="geometry" />
        </mxCell>
        <mxCell id="35QQ6GFylacjN5FKlyGc-80" value="" style="shape=flexArrow;endArrow=classic;html=1;rounded=0;fillColor=#fff2cc;strokeColor=#d6b656;exitX=0.5;exitY=1;exitDx=0;exitDy=0;entryX=0.5;entryY=0;entryDx=0;entryDy=0;" edge="1" parent="1" source="35QQ6GFylacjN5FKlyGc-74" target="35QQ6GFylacjN5FKlyGc-77">
          <mxGeometry width="50" height="50" relative="1" as="geometry">
            <mxPoint x="1359" y="380.75" as="sourcePoint" />
            <mxPoint x="1479" y="379.9952830188679" as="targetPoint" />
          </mxGeometry>
        </mxCell>
        <mxCell id="35QQ6GFylacjN5FKlyGc-81" value="" style="shape=flexArrow;endArrow=classic;html=1;rounded=0;fillColor=#fff2cc;strokeColor=#d6b656;exitX=0.5;exitY=1;exitDx=0;exitDy=0;entryX=0.5;entryY=0;entryDx=0;entryDy=0;" edge="1" parent="1" source="35QQ6GFylacjN5FKlyGc-77" target="35QQ6GFylacjN5FKlyGc-75">
          <mxGeometry width="50" height="50" relative="1" as="geometry">
            <mxPoint x="1489" y="538" as="sourcePoint" />
            <mxPoint x="1489" y="694" as="targetPoint" />
          </mxGeometry>
        </mxCell>
        <mxCell id="35QQ6GFylacjN5FKlyGc-82" value="" style="shape=flexArrow;endArrow=classic;html=1;rounded=0;fillColor=#fff2cc;strokeColor=#d6b656;exitX=0;exitY=0.5;exitDx=0;exitDy=0;entryX=1;entryY=0.5;entryDx=0;entryDy=0;" edge="1" parent="1" source="35QQ6GFylacjN5FKlyGc-75">
          <mxGeometry width="50" height="50" relative="1" as="geometry">
            <mxPoint x="1399" y="525" as="sourcePoint" />
            <mxPoint x="1219" y="615" as="targetPoint" />
          </mxGeometry>
        </mxCell>
        <mxCell id="35QQ6GFylacjN5FKlyGc-83" value="&lt;font style=&quot;font-size: 12px;&quot;&gt;&lt;b&gt;&lt;font style=&quot;font-size: 12px;&quot;&gt;Raw Multidata&lt;br&gt;&lt;/font&gt;&lt;/b&gt;&lt;/font&gt;" style="ellipse;whiteSpace=wrap;html=1;fillColor=#d5e8d4;strokeColor=#82b366;" vertex="1" parent="1">
          <mxGeometry x="1179" y="702" width="180" height="70" as="geometry" />
        </mxCell>
        <mxCell id="35QQ6GFylacjN5FKlyGc-84" value="&lt;b&gt;Calculated MultiData&lt;br&gt;&lt;/b&gt;" style="ellipse;whiteSpace=wrap;html=1;" vertex="1" parent="1">
          <mxGeometry x="1425" y="698" width="180" height="70" as="geometry" />
        </mxCell>
        <mxCell id="35QQ6GFylacjN5FKlyGc-86" value="" style="shape=flexArrow;endArrow=classic;html=1;rounded=0;exitX=0.683;exitY=0.976;exitDx=0;exitDy=0;entryX=0;entryY=0;entryDx=0;entryDy=0;exitPerimeter=0;" edge="1" parent="1" source="35QQ6GFylacjN5FKlyGc-75" target="35QQ6GFylacjN5FKlyGc-84">
          <mxGeometry width="50" height="50" relative="1" as="geometry">
            <mxPoint x="1399" y="660" as="sourcePoint" />
            <mxPoint x="1343" y="720" as="targetPoint" />
          </mxGeometry>
        </mxCell>
        <mxCell id="35QQ6GFylacjN5FKlyGc-85" value="" style="shape=flexArrow;endArrow=classic;html=1;rounded=0;fillColor=#d5e8d4;strokeColor=#82b366;exitX=0.328;exitY=0.995;exitDx=0;exitDy=0;entryX=1;entryY=0;entryDx=0;entryDy=0;exitPerimeter=0;" edge="1" parent="1" source="35QQ6GFylacjN5FKlyGc-75" target="35QQ6GFylacjN5FKlyGc-83">
          <mxGeometry width="50" height="50" relative="1" as="geometry">
            <mxPoint x="1309" y="625" as="sourcePoint" />
            <mxPoint x="1229" y="625" as="targetPoint" />
          </mxGeometry>
        </mxCell>
        <mxCell id="35QQ6GFylacjN5FKlyGc-90" value="&lt;b&gt;&lt;font style=&quot;font-size: 17px;&quot;&gt;1&lt;/font&gt;&lt;/b&gt;" style="ellipse;whiteSpace=wrap;html=1;aspect=fixed;fillColor=#400040;labelBackgroundColor=none;fontColor=#ffffff;" vertex="1" parent="1">
          <mxGeometry x="376" y="524.5" width="37" height="37" as="geometry" />
        </mxCell>
        <mxCell id="35QQ6GFylacjN5FKlyGc-92" value="&lt;b&gt;&lt;font style=&quot;font-size: 17px;&quot;&gt;3&lt;/font&gt;&lt;/b&gt;" style="ellipse;whiteSpace=wrap;html=1;aspect=fixed;fillColor=#400040;labelBackgroundColor=none;fontColor=#ffffff;" vertex="1" parent="1">
          <mxGeometry x="991.5" y="461.5" width="37" height="37" as="geometry" />
        </mxCell>
        <mxCell id="35QQ6GFylacjN5FKlyGc-94" value="&lt;font style=&quot;font-size: 17px;&quot;&gt;2&lt;/font&gt;" style="ellipse;whiteSpace=wrap;html=1;aspect=fixed;fillColor=#400040;labelBackgroundColor=none;fontColor=#ffffff;" vertex="1" parent="1">
          <mxGeometry x="687" y="462.49999999999994" width="37" height="37" as="geometry" />
        </mxCell>
        <mxCell id="35QQ6GFylacjN5FKlyGc-95" value="&lt;b&gt;&lt;font style=&quot;font-size: 17px;&quot;&gt;4&lt;/font&gt;&lt;/b&gt;" style="ellipse;whiteSpace=wrap;html=1;aspect=fixed;fillColor=#400040;labelBackgroundColor=none;fontColor=#ffffff;" vertex="1" parent="1">
          <mxGeometry x="1369" y="257" width="37" height="37" as="geometry" />
        </mxCell>
        <mxCell id="35QQ6GFylacjN5FKlyGc-97" value="&lt;span style=&quot;font-size: 17px;&quot;&gt;5&lt;/span&gt;" style="ellipse;whiteSpace=wrap;html=1;aspect=fixed;fillColor=#400040;labelBackgroundColor=none;fontColor=#ffffff;" vertex="1" parent="1">
          <mxGeometry x="1331" y="405" width="37" height="37" as="geometry" />
        </mxCell>
        <mxCell id="35QQ6GFylacjN5FKlyGc-98" value="&lt;font style=&quot;font-size: 17px;&quot;&gt;6&lt;/font&gt;" style="ellipse;whiteSpace=wrap;html=1;aspect=fixed;fillColor=#400040;labelBackgroundColor=none;fontColor=#ffffff;" vertex="1" parent="1">
          <mxGeometry x="1332" y="538.92" width="37" height="37" as="geometry" />
        </mxCell>
        <mxCell id="35QQ6GFylacjN5FKlyGc-99" value="&lt;font size=&quot;1&quot;&gt;&lt;b style=&quot;font-size: 17px;&quot;&gt;7&lt;/b&gt;&lt;/font&gt;" style="ellipse;whiteSpace=wrap;html=1;aspect=fixed;fillColor=#400040;labelBackgroundColor=none;fontColor=#ffffff;" vertex="1" parent="1">
          <mxGeometry x="1202" y="564" width="37" height="37" as="geometry" />
        </mxCell>
        <mxCell id="35QQ6GFylacjN5FKlyGc-100" value="&lt;font style=&quot;font-size: 17px;&quot;&gt;8&lt;/font&gt;" style="ellipse;whiteSpace=wrap;html=1;aspect=fixed;fillColor=#400040;labelBackgroundColor=none;fontColor=#ffffff;" vertex="1" parent="1">
          <mxGeometry x="1373.5" y="714.5" width="37" height="37" as="geometry" />
        </mxCell>
        <mxCell id="35QQ6GFylacjN5FKlyGc-103" value="&lt;font size=&quot;1&quot; color=&quot;#ff8000&quot;&gt;&lt;b style=&quot;font-size: 20px;&quot;&gt;Store, Ingest and Backup&lt;/b&gt;&lt;/font&gt;" style="text;html=1;align=center;verticalAlign=middle;resizable=0;points=[];autosize=1;strokeColor=none;fillColor=none;" vertex="1" parent="1">
          <mxGeometry x="991.5" y="210" width="260" height="40" as="geometry" />
        </mxCell>
        <mxCell id="35QQ6GFylacjN5FKlyGc-104" value="&lt;b style=&quot;font-size: 20px;&quot;&gt;&lt;font style=&quot;font-size: 20px;&quot; color=&quot;#ff8000&quot;&gt;Value layer&lt;/font&gt;&lt;font style=&quot;font-size: 20px;&quot; color=&quot;#ff8000&quot;&gt;&lt;br style=&quot;font-size: 20px;&quot;&gt;&lt;/font&gt;&lt;/b&gt;" style="text;html=1;align=center;verticalAlign=middle;resizable=0;points=[];autosize=1;strokeColor=none;fillColor=none;fontSize=20;" vertex="1" parent="1">
          <mxGeometry x="1800" y="210" width="130" height="40" as="geometry" />
        </mxCell>
        <mxCell id="35QQ6GFylacjN5FKlyGc-105" value="&lt;b&gt;Jointure &lt;br&gt;&lt;/b&gt;" style="ellipse;whiteSpace=wrap;html=1;fillColor=#fff2cc;strokeColor=#d6b656;" vertex="1" parent="1">
          <mxGeometry x="2076" y="494" width="180" height="70" as="geometry" />
        </mxCell>
        <mxCell id="35QQ6GFylacjN5FKlyGc-106" value="&lt;b&gt;Amadeus Database&lt;br&gt;&lt;/b&gt;" style="ellipse;whiteSpace=wrap;html=1;fillColor=#ffe6cc;strokeColor=#d79b00;" vertex="1" parent="1">
          <mxGeometry x="2296" y="300" width="180" height="70" as="geometry" />
        </mxCell>
        <mxCell id="35QQ6GFylacjN5FKlyGc-108" value="&lt;b&gt;CP Database&lt;br&gt;&lt;/b&gt;" style="ellipse;whiteSpace=wrap;html=1;fillColor=#ffe6cc;strokeColor=#d79b00;" vertex="1" parent="1">
          <mxGeometry x="2076" y="300" width="180" height="70" as="geometry" />
        </mxCell>
        <mxCell id="35QQ6GFylacjN5FKlyGc-110" value="&lt;b&gt;Multidata Database&lt;br&gt;&lt;/b&gt;" style="ellipse;whiteSpace=wrap;html=1;fillColor=#ffe6cc;strokeColor=#d79b00;" vertex="1" parent="1">
          <mxGeometry x="1854" y="300" width="180" height="70" as="geometry" />
        </mxCell>
        <mxCell id="35QQ6GFylacjN5FKlyGc-111" value="" style="shape=flexArrow;endArrow=classic;html=1;rounded=0;fillColor=#fff2cc;strokeColor=#d6b656;exitX=0.5;exitY=1;exitDx=0;exitDy=0;entryX=-0.024;entryY=0.362;entryDx=0;entryDy=0;entryPerimeter=0;" edge="1" parent="1" source="35QQ6GFylacjN5FKlyGc-110" target="35QQ6GFylacjN5FKlyGc-105">
          <mxGeometry width="50" height="50" relative="1" as="geometry">
            <mxPoint x="1936" y="415" as="sourcePoint" />
            <mxPoint x="1936" y="490" as="targetPoint" />
          </mxGeometry>
        </mxCell>
        <mxCell id="35QQ6GFylacjN5FKlyGc-112" value="" style="shape=flexArrow;endArrow=classic;html=1;rounded=0;fillColor=#fff2cc;strokeColor=#d6b656;exitX=0.5;exitY=1;exitDx=0;exitDy=0;entryX=0.5;entryY=0;entryDx=0;entryDy=0;" edge="1" parent="1" source="35QQ6GFylacjN5FKlyGc-108" target="35QQ6GFylacjN5FKlyGc-105">
          <mxGeometry width="50" height="50" relative="1" as="geometry">
            <mxPoint x="1954" y="380" as="sourcePoint" />
            <mxPoint x="2082" y="490" as="targetPoint" />
          </mxGeometry>
        </mxCell>
        <mxCell id="35QQ6GFylacjN5FKlyGc-113" value="" style="shape=flexArrow;endArrow=classic;html=1;rounded=0;fillColor=#fff2cc;strokeColor=#d6b656;exitX=0.5;exitY=1;exitDx=0;exitDy=0;entryX=1.006;entryY=0.286;entryDx=0;entryDy=0;entryPerimeter=0;" edge="1" parent="1" source="35QQ6GFylacjN5FKlyGc-106" target="35QQ6GFylacjN5FKlyGc-105">
          <mxGeometry width="50" height="50" relative="1" as="geometry">
            <mxPoint x="2176" y="380" as="sourcePoint" />
            <mxPoint x="2176" y="465" as="targetPoint" />
          </mxGeometry>
        </mxCell>
        <mxCell id="35QQ6GFylacjN5FKlyGc-114" value="&lt;b&gt;Multidata Finale Table &lt;/b&gt;" style="ellipse;whiteSpace=wrap;html=1;fillColor=#ffe6cc;strokeColor=#d79b00;" vertex="1" parent="1">
          <mxGeometry x="2076" y="702" width="180" height="70" as="geometry" />
        </mxCell>
        <mxCell id="35QQ6GFylacjN5FKlyGc-116" value="" style="shape=flexArrow;endArrow=classic;html=1;rounded=0;fillColor=#fff2cc;strokeColor=#d6b656;entryX=0.5;entryY=0;entryDx=0;entryDy=0;exitX=0.5;exitY=1;exitDx=0;exitDy=0;" edge="1" parent="1" source="35QQ6GFylacjN5FKlyGc-105" target="35QQ6GFylacjN5FKlyGc-114">
          <mxGeometry width="50" height="50" relative="1" as="geometry">
            <mxPoint x="2165.17" y="567.55" as="sourcePoint" />
            <mxPoint x="2165.34" y="657.55" as="targetPoint" />
          </mxGeometry>
        </mxCell>
        <mxCell id="35QQ6GFylacjN5FKlyGc-119" value="9" style="ellipse;whiteSpace=wrap;html=1;aspect=fixed;fillColor=#400040;labelBackgroundColor=none;fontColor=#ffffff;" vertex="1" parent="1">
          <mxGeometry x="1850" y="270" width="37" height="37" as="geometry" />
        </mxCell>
        <mxCell id="35QQ6GFylacjN5FKlyGc-120" value="&lt;b&gt;10&lt;/b&gt;" style="ellipse;whiteSpace=wrap;html=1;aspect=fixed;fillColor=#400040;labelBackgroundColor=none;fontColor=#ffffff;" vertex="1" parent="1">
          <mxGeometry x="2076" y="268" width="37" height="37" as="geometry" />
        </mxCell>
        <mxCell id="35QQ6GFylacjN5FKlyGc-121" value="&lt;b&gt;&lt;font style=&quot;font-size: 17px;&quot;&gt;11&lt;/font&gt;&lt;/b&gt;" style="ellipse;whiteSpace=wrap;html=1;aspect=fixed;fillColor=#400040;labelBackgroundColor=none;fontColor=#ffffff;" vertex="1" parent="1">
          <mxGeometry x="2296" y="267" width="37" height="37" as="geometry" />
        </mxCell>
        <mxCell id="35QQ6GFylacjN5FKlyGc-122" value="&lt;b&gt;&lt;font style=&quot;font-size: 17px;&quot;&gt;12&lt;/font&gt;&lt;/b&gt;" style="ellipse;whiteSpace=wrap;html=1;aspect=fixed;fillColor=#400040;labelBackgroundColor=none;fontColor=#ffffff;" vertex="1" parent="1">
          <mxGeometry x="2104" y="450" width="37" height="37" as="geometry" />
        </mxCell>
        <mxCell id="35QQ6GFylacjN5FKlyGc-123" value="&lt;font size=&quot;1&quot;&gt;&lt;b&gt;&lt;font style=&quot;font-size: 17px;&quot;&gt;13&lt;/font&gt;&lt;/b&gt;&lt;/font&gt;" style="ellipse;whiteSpace=wrap;html=1;aspect=fixed;fillColor=#400040;labelBackgroundColor=none;fontColor=#ffffff;" vertex="1" parent="1">
          <mxGeometry x="2106" y="656" width="37" height="37" as="geometry" />
        </mxCell>
      </root>
    </mxGraphModel>
  </diagram>
</mxfile>
